<?xml version="1.0" standalone="no"?>
<!DOCTYPE svg PUBLIC "-//W3C//DTD SVG 1.1//EN" "http://www.w3.org/Graphics/SVG/1.1/DTD/svg11.dtd" >
<svg xmlns="http://www.w3.org/2000/svg" xmlns:xlink="http://www.w3.org/1999/xlink" version="1.1">
<metadata>
Created by FontForge 20190801 at Mon Jul 18 04:49:56 2022
 By www-data
</metadata>
<defs>
<font id="HellasDustCyrillic" horiz-adv-x="0" >
  <font-face 
    font-family="HellasDustCyrillic"
    font-weight="400"
    font-stretch="normal"
    units-per-em="1000"
    panose-1="0 0 0 0 0 0 0 0 0 0"
    ascent="800"
    descent="-200"
    cap-height="723"
    bbox="-5 -95 791.333 788"
    underline-thickness="0"
    underline-position="0"
    unicode-range="U+000A-042F"
  />
<missing-glyph horiz-adv-x="527" 
d="M50 700h427v-700h-427v700zM78 680l185 -309l186 309h-371zM251 350l-180 300v-601zM264 329l-185 -308h370zM276 350l181 -303v605z" />
    <glyph glyph-name=".notdef" horiz-adv-x="527" 
d="M50 700h427v-700h-427v700zM78 680l185 -309l186 309h-371zM251 350l-180 300v-601zM264 329l-185 -308h370zM276 350l181 -303v605z" />
    <glyph glyph-name=".null" 
 />
    <glyph glyph-name=".null" 
 />
    <glyph glyph-name="nonmarkingreturn" horiz-adv-x="333" 
 />
    <glyph glyph-name="LF" unicode="&#xa;" 
 />
    <glyph glyph-name="controlCR" unicode="&#xd;" 
 />
    <glyph glyph-name="space" unicode=" " horiz-adv-x="290" 
 />
    <glyph glyph-name="zero" unicode="0" horiz-adv-x="646" 
d="M29 579q12 4 14 7l-3 -32h-4q-3 0 -7 5q-5 6 -6 7q-2 3 -2 5q0 6 8 8zM122 120q-1 -5 -4 -9q-4 -2 -6 -2q-13 0 -13 16q0 4 1 8l2 13q1 -6 10.5 -13.5t9.5 -12.5zM550 363q0 -22 -11 -44q-1 -77 -53 -159q-26 -38 -106 -132q-35 0 -73 41q-43 44 -72 51q-30 49 -88 150
q-7 33 -7 67q0 81 34 151q36 73 99 113q1 3 3.5 7l5 8t4.5 8q6 12 16 15q16 -17 58 -36t57 -36q9 -4 31 -23q19 -16 31 -21q7 -16 43 -79q28 -48 28 -81zM186 11.5q0 -7.5 3 -9.5q-8 -5 -22 4q-4 16 17 16q2 -3 2 -10.5zM436 175q45 53 54 97q-7 93 -13 118q-17 66 -60 98
l-4 -13l-18 15l14 13q-11 8 -39 29l-62 49q-23 -6 -48 -32q-11 -11 -38 -44q-26 -13 -38 -46q-8 -25 -10 -67q0 -33 -1 -66q38 -154 142 -206q6 -3 21 -19q11 -11 24 -11q40 45 76 85zM260 304q0 -8 -5 -13q-5 -2 -10 1t-10 5l18 18q7 -2 7 -11zM320 403q-18 -4 -18 14
q0 7 11 11h7v-25zM440 131q35 43 48 77q-20 -28 -55 -67q-51 -55 -58 -64q0 -17 7 -17q30 36 58 71zM377 565l38 -28l-4 4zM528 369q-1 7 -2 12q-11 15 -41 74q-23 45 -50 64q16 -20 33 -39q20 -24 22 -46q23 -50 23 -124q0 7 7.5 26.5t7.5 32.5zM494 118q3 -1 6 -5l-18 -18
q-10 2 -3 18q3 0 8 2.5t7 2.5zM497 226l14 18v17zM595 681v-7q-3 -1 -7 -1q-5 0 -14 2.5t-13 2.5q-8 0 -15 -6l-13 15q7 12 15 12q6 0 19.5 -9.5t21.5 -9.5q3 0 6 1zM609 76q0 -3 1 -5h-20q-1 3 -1 5q0 10 21 21q4 -1 4 -5q0 -1 -2.5 -7t-2.5 -9z" />
    <glyph glyph-name="one" unicode="1" horiz-adv-x="556" 
d="M244 691q10 -4 8 -16q3 -97 -14 -276q-18 -189 -18 -278q0 -36 2 -71q-2 -34 -50 -50l-7 5q1 70 13 203q12 128 12 196q0 61 -7 117q5 11 5 33v33q-43 -32 -149 -112h-7l5 23q64 53 92 80q48 45 77 90q-1 3 -1 7q0 7 7 12t13 11q10 -4 19 -7zM76 262q0 -5 -3.5 -9
t-8.5 -4q-6 0 -11 5t-5 10l7 16q8 0 14.5 -5.5t6.5 -12.5zM227 544l7 108h-7v-108zM489 347l25 -12q1 -9 -6.5 -10.5t-14.5 -2.5q-9 0 -16 6zM517 181q10 0 11 -9q0 -16 -7 -16q-16 0 -16 11q-5 14 12 14z" />
    <glyph glyph-name="two" unicode="2" horiz-adv-x="529" 
d="M48 364l25 -11q1 -8 -6.5 -9.5t-14.5 -3.5q-8 0 -15 7zM75 204q9 0 11 -9q0 -15 -6 -15q-16 0 -16 11q-5 13 11 13zM479 56q0 -4 -2 -9q-7 -2 -14 -2q-13 0 -37 7t-36 8q-12 -20 -38 -20q-9 0 -28 2.5t-28 2.5q-28 0 -100.5 -22.5t-113.5 -22.5l-2 22h-3q-3 8 -3 14
q0 11 18 17q23 7 27 11q22 23 44 65q27 49 41 66q60 80 61 81q33 50 33 94q0 17 -6 35q-10 19 -23 93q-12 61 -41 89q0 15 -9 15q-16 -13 -59 -40q-41 -26 -59 -42q-7 -2 -13 6t-11 10q62 121 191 162q118 -131 118 -254q0 -41 -13 -82q-7 -47 -32 -93q-15 -29 -54.5 -83
t-56.5 -84q-21 -16 -20 -25q12 -2 25 -2q23 0 69 13.5t68 13.5q28 0 51 -15q5 -5 33 -12q23 -5 23 -19zM165 518q12 0 21 -34l-9 -79h-7q2 12 2 26q0 45 -17 71q4 16 10 16zM292 273q0 9 -2 18q-13 -22 -58 -87q-37 -52 -53 -88q55 41 76 65q37 43 37 92zM244 655q7 5 13 5
q-4 6 -11 6t-18 -8q-1 -4 4 -9q4 0 12 6zM267 573q18 -29 19 -40q0 21 -14 46q-11 18 -24 41q1 -18 19 -47zM313 260l22 64q20 59 20 118q0 109 -65 173q36 -93 36 -157q0 -29 -7 -53q6 -21 6 -46q0 -17 -12 -99zM377 133q-2 7 31 29q0 -19 -24 -31zM414 281q9 0 9 -15
q0 -6 -6 -19t-7 -20q-11 2 -11 18v28q8 8 15 8zM494 566q0 -4 -1 -9q-7 0 -14 13t-13 15q-2 11 13 26q0 -6 7.5 -21t7.5 -24z" />
    <glyph glyph-name="three" unicode="3" horiz-adv-x="362" 
d="M178 631q57 -46 78 -113q-11 -75 -88 -138q2 -16 23 -23q26 -10 30 -16q40 -51 40 -99q0 -26 -13 -46q-29 -38 -68 -87q-40 -53 -58 -92q-2 -2 -4 -2q-8 0 -12 10q-29 -10 -50 -25q-2 2 -7 2q4 18 21 33q25 22 29 27q7 20 56 78q40 48 40 82q0 24 -17 47q-12 13 -37 25
q-29 13 -38 22q-8 1 -19.5 -4.5t-16.5 -5.5q-6 0 -11 4q-1 12 13 16q17 5 20 11q-3 4 -24 8q-17 2 -17 12q0 4 3 9q9 9 54 27q34 14 44 43q15 23 22 62q10 59 13 68q1 21 -24 35q-16 8 -44 21q-6 -3 -14 -3q-17 0 -60 34q-2 13 9 19q67 6 127 -41zM70 460q10 -4 15 -4
q-6 -10 -37 -10l-4 5q4 13 12 13q4 0 14 -4zM100 231q4 -5 -1 -12q-3 1 -5 -1t-3 -7q-1 0 -8 3.5t-7 8.5q0 12 15 12q6 0 9 -4zM201 440l14 95l-12 19q-21 -108 -54 -151zM211 174q20 30 31 55l-14 56q-19 42 -60 51q15 -17 30 -46q23 -42 27 -48zM287 59q4 0 6 -7
q1 -5 -1.5 -9t-6.5 -3h-8q-1 6 3 12.5t7 6.5zM323 650q0 -6 -2 -10q-7 0 -8.5 10.5t-8.5 12.5q0 5 -10 9.5t-10 10.5q0 2 1 5l13 10q25 -20 25 -48zM302 427q0 -8 -2 -18q-5 -1 -12 -6q-4 4 -4 15q1 16 1 18q6 6 10 6q7 0 7 -15z" />
    <glyph glyph-name="four" unicode="4" horiz-adv-x="608" 
d="M416 274q36 0 38 -36q-23 -6 -53 -6q-41 0 -93 9q-3 -22 -2 -101q1 -63 -10 -101h-15q0 -16 -3.5 -26t-10.5 -13q-6 -1 -9 2.5t-3 11.5q-1 39 10 112q11 80 12 114q-38 11 -88 11q-24 0 -68 -3q-47 -4 -68 -5q-7 1 -17 -5t-13 -6q-5 0 -8 6q14 44 56 107q57 85 66 101
q4 42 50 97q55 67 66 90q12 26 19 37q13 20 30 28l-4 -16h14q-4 -26 0 -104q8 -5 8 -14q0 -3 -2.5 -13.5t-1.5 -16.5q10 -32 21 -98q2 -32 -12 -78q-14 -51 -15 -77q12 -13 38 -13q11 0 34.5 3t33.5 3zM184 281q51 0 97 -10q6 23 6 54q0 40 -12 103q-2 17 -2 34q0 24 4 77
q4 49 4 72q-41 -46 -98.5 -153t-98.5 -152l-19 -31l21 -2q52 8 98 8zM147 330q10 17 24 22q1 -3 1 -5q0 -6 -6 -14q-9 -9 -9 -11zM157 114q6 3 9 -4l-15 -16q-4 3 -4 9q0 9 10 11zM201 628h34q-3 -7 -17 -11q-21 -5 -22 -6l-14 -15q-5 9 -5 16q0 14 24 16zM261 392q4 0 4 -9
q1 -4 -1 -7q-3 -4 -5 -6q-14 6 -14 11q6 11 16 11zM307 455q5 -39 9 -70q9 18 9 38q0 19 -11 51q-12 37 -13 53q0 -29 6 -72zM429 600q3 22 13 28q5 -4 5 -12q0 -5 -3.5 -14.5t-3.5 -14.5q-8 -2 -8 -9v-3q1 -3 1 -4q0 -6 -5 -9h-4q2 18 5 38zM442 456v-18l-18 2q1 1 7 10
q4 7 11 6zM558 617v-6l-22 2q-3 12 10 12q9 0 12 -8z" />
    <glyph glyph-name="five" unicode="5" horiz-adv-x="489" 
d="M75 616v-7l-24 3q-4 12 11 12q10 0 13 -8zM451 655q5 0 8 -8q-16 -19 -53 -29q-37 -9 -64 -15l-79 -11q-3 -18 -17 -51t-16 -53q10 -3 47 -21q27 -14 50 -12q38 -25 54 -39q28 -25 41 -56q-4 -48 -31 -101q-17 -31 -58 -88q-42 -60 -57 -87q-20 -20 -58 -43
q-47 -28 -63 -41l-7 2q2 20 27 39q29 23 35 34q81 83 100 107q53 66 72 129q-21 37 -67 52q-22 4 -85 18q-50 12 -73 38q5 41 44 110q9 21 14 61q7 45 14 62q11 31 36 46l5 -38q14 -4 30 -4q14 0 39 4q26 3 37 3q30 0 50 -16q6 -2 14 3t11 5zM182 113q6 10 14 8
q-2 -3 -5 -19q-2 -13 -12 -13q-9 0 -9 13q6 1 12 11zM309 413q51 -36 77 -40q-24 36 -78 57q-43 15 -91 31l-7 -15q9 1 17 1q34 0 82 -34zM241 320q7 4 11 4q3 -14 3 -21q0 -14 -8 -16q0 3 -8.5 9t-8.5 12q0 4 2 8q2 1 9 4z" />
    <glyph glyph-name="six" unicode="6" horiz-adv-x="596" 
d="M46 432q9 0 27 -36l-6 -11q-11 10 -34 34q6 13 13 13zM73 94q5 0 9 -3q2 -3 2 -6q0 -4 -10 -6t-11 -4h-6q-3 7 2.5 13t13.5 6zM466 235q0 -10 -1 -20q-12 -39 -26 -82q-15 -47 -38 -76q-10 -16 -19 -30q-11 -16 -28 -17q-60 -2 -109 53q-40 53 -76 101q-36 14 -50 59
q-7 28 -7 79q-7 18 -7 35q0 48 47 95q7 12 60 97q18 50 71 93q13 11 30 24.5l34 27t31 24.5l8 -5q-25 -41 -82 -97q-70 -69 -90 -94q-1 -4 -5 -19.5t-4 -22.5q0 -16 17 -18q6 5 13 5q8 0 22 -11t23 -13l15 -17q33 -19 74 -42q45 -27 68 -54q29 -34 29 -75zM161 639l4 -22
q-3 -2 -5 -2q-4 0 -8.5 7t-8.5 7q-2 0 -6 -2q-5 2 -5 6q0 6 5.5 12t12.5 8q9 -3 11 -14zM133 351q16 25 49 100q-16 -23 -32 -45q-18 -28 -18 -47q0 -4 1 -8zM165 200q33 -30 37 -37q-24 40 -61 90q-1 -6 -1 -12q0 -18 25 -41zM383 238q-5 40 -5 54q-76 81 -181 129
q-19 -36 -28 -54q-16 -33 -16 -57q0 -13 6 -27q7 -9 77 -111q47 -69 91 -97q60 26 60 104q0 20 -4 59zM320 272q0 -6 2 -10q-2 -9 -10 -9q-5 0 -13 4q0 3 -1 11t-1 12q0 15 10 18q13 -2 13 -13v-7v-6zM322 502q-2 11 19 17q0 -17 -10 -20q-8 0 -9 3zM379 460q3 0 5 -5
q0 -4 -5.5 -9t-5.5 -8q-2 -1 -3 -1q-4 0 -5 6t-2 8q2 0 8 4.5t8 4.5zM388 77q25 35 30 53q-15 -4 -22 -23q-2 -10 -8 -30zM410 158l23 51q7 10 7 23q0 34 -32 48q4 -14 4 -38q0 -12 -1 -37q-2 -24 -2 -34q0 -8 1 -13zM488 661q9 -2 9 -10q-30 -15 -36 -15q0 9 27 25zM500 22
q7 0 9 -7q-4 -12 -12 -15l-13 4q-1 6 4 12t12 6zM560 295q4 4 11 3q2 -4 2 -7q0 -15 -13 -15t-10 11q3 2 10 8z" />
    <glyph glyph-name="seven" unicode="7" horiz-adv-x="600" 
d="M37 135l36 -16q-4 -10 -11 -10q-4 0 -12 3.5t-11 3.5t-5 -3q-5 3 -5 7q0 3 4 8t4 7zM82 308q0 -5 2 -9q-7 2 -6 17.5t-4 21.5q-4 2 -4 7q0 8 11 14q11 -5 11 -15q0 -6 -5 -17.5t-5 -18.5zM150 563q1 -13 5 -14q-4 -10 -7 -10h-3q-10 17 -10 22t4 10q10 2 11 -8zM429 691
q48 -4 79 -11q-10 -31 -42 -82q-73 -111 -143 -291q-39 -102 -117 -307q-12 0 -32 10l14 37l-24 -6q-2 50 36 135t37 131q20 46 77 135.5t79 137.5q0 10 11 28t11 31q-38 14 -88 14q-37 0 -119 -12q-4 0 -5 3q-1 1 0 5v5l32 12q-5 8 -16 8q-7 0 -19.5 -3t-15.5 -3q-8 0 -8 7
q0 5 4 15q12 1 26 1q13 0 40 -1.5t40 -1.5q37 0 64 10zM184 70q23 28 19 37q-22 -9 -22 -32q0 -4 1 -7zM210 51l3 22l-5 -24zM275.5 326q13.5 41 27.5 61l-5 6q-9 -12 -21 -37q-14 -29 -20 -38.5t-8 -29.5q-2 -17 0 -22q13 19 26.5 60zM385 512q56 55 90 149h-14
q-42 -43 -56 -124q-4 2 -7 2q-11 0 -22 -21q-14 -31 -16 -33q-9 -31 -35 -87q-28 -60 -37 -88v-25q10 41 48 113q39 75 49 114zM379 264l18 23q4 -2 4 -8q0 -4 -3 -12.5t-3 -10.5q-5 -3 -11 -1t-5 9zM402 107q-3 -18 1 -23q-1 -1 -3.5 -5t-4.5 -4t-4 1q-7 27 -7 31
q0 12 9 18q11 -3 9 -18zM544 619q5 0 5 -33q-5 0 -10 7l-7 11q8 15 12 15z" />
    <glyph glyph-name="eight" unicode="8" horiz-adv-x="527" 
d="M43 597q6 0 6 -29q-6 0 -10 6l-6 10q7 13 10 13zM380 248l18 -2q5 -16 5 -32q0 -28 -16 -66q-21 -53 -25 -64q-3 -2 -15.5 -18.5t-19.5 -25.5q-21 -27 -41 -40l-10 2l21 36q-3 3 -6 3q-5 0 -12 -7.5t-10 -7.5q-4 0 -7 9q-27 7 -74 41q-44 32 -76 36q-16 12 -23 34
q-2 7 -5 21t-5 21q10 72 89 162l-35 44q0 59 19 82q-21 -10 -33 -31q0 -2 0.5 -9.5t-0.5 -9.5q0 -5 -4 -7q-5 -2 -8 4t-2 13q3 20 22 39q25 25 31 35q2 26 19 51q9 14 33.5 39.5t35.5 41.5q8 -1 15.5 11t14.5 14q6 7 12 16q13 15 18 15t3 -16q-11 -4 -11 -12q0 -6 11 -23
q17 -12 32 -21q19 -14 17 -30q-3 -7 -3 -16q0 -20 14 -42q2 -44 -23 -87q-14 -21 -54 -67q-5 -14 -22 -30q-18 -17 -22 -25q22 -21 65 -42q48 -24 67 -39zM136.5 266q26.5 30 28.5 51q-46 -46 -65 -108l7 6q3 21 29.5 51zM339 142q31 43 37 76q-18 16 -51 31q-41 18 -55 27
q-9 3 -21 18q-12 14 -24 14q-26 -20 -63 -49q-38 -32 -47 -64q0 -4 -6 -8t-6 -8t2 -8l16 8q36 -23 68 -70q36 -8 53 -11q32 -9 46 -26q1 2 51 70zM112 160q9 -20 32 -25q-9 3 -15 16q-7 10 -17 9zM151 407q1 -9 9 -8l-8 25q-3 -8 -1 -17zM317.5 506q1.5 26 5.5 36
q-6 17 -30 25q-32 11 -38 17q-25 -17 -49 -61q-28 -51 -41 -64q6 -21 12 -43q8 -25 27 -32l81 65q19 4 26 20q5 11 6.5 37zM175 294l34 28q-2 0 -6.5 4.5t-7.5 4.5zM181 529q31 21 54 71q-15 -17 -31 -33q-18 -20 -23 -38zM235 345q49 41 72 79q-12 -15 -44 -33
q-31 -18 -42 -30zM230 74q26 -17 37 -16q-7 8 -37 16zM237 202q2 1 11 -7q-5 -13 -11 -13q-2 0 -4.5 2t-1.5 9q2 8 6 9zM285 513v-10q-23 6 -27 20q2 9 10 9q6 0 11.5 -6t5.5 -13zM288 588q3 0 7 1q-4 6 -10 12q-7 8 -13 8q-5 0 -9 -6q8 -15 25 -15zM354 104q8 24 17 52
q-5 -6 -11.5 -14.5t-12.5 -16.5t-11 -15q-21 -27 -30 -49l14 -1q23 14 34 44zM339 480l2 37q-10 -29 -4 -37h2zM426 354q0 -3 -2 -7h-4t-6 -2t-6 -2q-4 0 -6.5 5t-2.5 10q0 8 11 19q0 -2 9 -11q7 -5 7 -12zM465 475v-17l-1 -5q-1 5 -10 13t-9 14l10 9q9 -3 10 -14zM472 677
q4 0 7 -3q-2 -6 -11 -16l-3 -1q-2 0 -2.5 3.5t-1.5 4.5q2 12 11 12zM476 163l12 -1q4 -11 -10 -18l-6 4z" />
    <glyph glyph-name="nine" unicode="9" horiz-adv-x="607" 
d="M40 689q4 0 8 -3q-3 -4 -13 -16h-3t-2.5 3.5t-1.5 3.5q2 12 12 12zM44 166l13 -2q3 -11 -12 -18l-4 4zM481 396q0 -18 -8 -35q-36 -99 -99 -183q-66 -88 -149 -143q-6 -3 -27 -22q-17 -16 -31 -12q7 4 7 11q0 3 -1.5 8.5t-1.5 8.5q0 7 9 11q98 101 149 153
q114 123 114 159q0 11 -13 42q-16 29 -43 119q-22 78 -54 116q-5 9 -18 13q-16 5 -20 9q-15 -23 -85 -80q-59 -48 -75 -91q2 -7 16 -27q7 3 7 14q0 17 1 19q14 12 57 63q32 39 65 52q4 -13 4 -15q-31 -11 -62 -47q-25 -30 -48 -59q1 -27 29 -54q36 -33 43 -46q8 -16 41 -43
q27 -23 32 -49q5 -3 10.5 -5t5.5 -8q0 -2 -1 -5q1 -1 17 -11q11 -7 11 -15q0 -5 -3 -10q-31 3 -61 26q-14 11 -49 47q-30 31 -52 44q-18 15 -40 54q-25 43 -39 57q0 28 24 60q37 50 39 54q41 30 115 94q-5 3 -5 12t7 10q20 1 30 -19q11 -25 22 -30q4 -7 51 -72
q31 -44 36 -82q43 -46 43 -93zM184 688q0 -6 -5 -9l-6 -7q-9 3 -3 20q3 6 7 6q7 0 7 -10zM229 196q-5 1 -11 -1q-7 -2 -9 -2q-5 0 -7 9q-1 2 -1 4l8 12q14 4 20 -14v-8zM277 98q53 43 123 147q-5 -6 -66 -73q-40 -44 -57 -74zM306 448q0 12 16 12q3 -5 1 -13q-1 -8 -8 -10z
M405 105q6 -1 18 -7q-11 -14 -13 -14q-4 0 -9 5q-5 2 -5 6q0 8 9 10zM439 682q2 -6 2 -44q-10 0 -13 11q-2 7 -5 19q0 5 4 9.5t8 4.5h4zM433 448l25 -52l-12 39zM516 585l2 -24l-20 2q0 12 7 22h11zM524 228q0 -8 -4 -12l-9 -11q-7 2 -7 14l1 17q6 7 11 7q8 0 8 -15z
M573.5 365q2.5 0 3.5 -2q-2 -14 -4 -19q-2 -11 -9 -15q-3 6 -3 31q2 0 6 2.5t6.5 2.5z" />
    <glyph glyph-name="A" unicode="A" horiz-adv-x="698" 
d="M31 356q13 0 18 -11q-6 -14 -24 -18l-11 13q-3 7 2.5 11.5t14.5 4.5zM44 615q0 -6 -6 -7q-11 -8 -21 2q-2 5 4 11.5t13 6.5q10 -3 10 -13zM595 15q5 -6 5 -11q-10 -10 -18 -4q-57 63 -173 135q-141 89 -176 118q-26 -37 -50 -111q-15 -44 -26 -72.5t-18 -42.5
q-11 -5 -18 -5t-7 7q0 5 5.5 21.5t5.5 24.5q0 9 -6 15q0 -1 -12 -28q-9 -19 -22 -19q-3 0 -8 1l-2 22q17 27 32 99q14 67 34 96q10 42 65 127q50 77 54 130q18 19 27 62q12 54 16 65q14 0 16 -5q4 7 7 27q3 16 12 19q23 -10 23 -28q0 -8 -6 -24q-8 -21 -10 -26l29 -40l2 40
h6q29 -68 80 -211q36 -46 69 -140q38 -108 60 -145q1 -4 2.5 -9t3 -9.5t2.5 -8.5q5 -17 5 -28q0 -17 -13 -26q-1 -3 -1 -5q0 -5 5 -11zM130 582q0 -4 -6 -6q-5 -9 -15 2q-2 3 -2 6q0 4 5 7q9 5 10 6q8 -11 8 -15zM209 327q6 25 9 30l-28 -50l6 -6q8 5 13 26zM444 180
q30 -25 90 -79q-6 27 -26 64q-27 91 -31 102q-19 57 -47 95l-6 -1q-3 0 -5.5 0.5t-3.5 4.5v23q-9 18 -39 84q-24 55 -44 84q-9 -7 -15.5 -33.5t-19.5 -36.5q-10 -29 -26 -97q-14 -64 -27 -96q14 -8 79 -31q49 -17 73 -44q1 -1 2.5 -1.5t3 -1.5t4 -2t5.5 -2.5t6.5 -3.5
t7.5 -4q15 -7 19 -24zM351 65q8 -2 10 -10l-27 -28q4 4 4 10q0 3 -1 8t-1 8q0 6 2 11q6 3 13 1zM366 207q3 0 6 2l-27 18q4 -6 8 -11q6 -9 13 -9zM374 525q8 -25 17 -38q2 2 2 6q0 5 -19 32zM411 174q13 -9 35 -23l-30 27q-17 15 -36 22q13 -15 31 -26zM492 298
q10 -19 11 -24q1 4 1 8q0 8 -7 21q-10 15 -11 21q-2 -12 6 -26zM540 163q43 -97 45 -99v7q0 9 -6 20q-9 19 -9.5 20t-33.5 78q-19 48 -28 81q5 -46 32 -107zM673 93q6 0 14 -10q1 -2 1 -5q0 -10 -14 -19q-5 9 -23 8.5t-21 7.5q4 -2 8 -2q7 0 18.5 10t16.5 10zM658 543
q14 0 14 -16q-8 -8 -8 -20q0 -4 1.5 -12.5t1.5 -11.5q0 -11 -11 -13v2l-4 70q3 1 6 1z" />
    <glyph glyph-name="A" unicode="&#xe5;" horiz-adv-x="698" 
d="M31 356q13 0 18 -11q-6 -14 -24 -18l-11 13q-3 7 2.5 11.5t14.5 4.5zM44 615q0 -6 -6 -7q-11 -8 -21 2q-2 5 4 11.5t13 6.5q10 -3 10 -13zM595 15q5 -6 5 -11q-10 -10 -18 -4q-57 63 -173 135q-141 89 -176 118q-26 -37 -50 -111q-15 -44 -26 -72.5t-18 -42.5
q-11 -5 -18 -5t-7 7q0 5 5.5 21.5t5.5 24.5q0 9 -6 15q0 -1 -12 -28q-9 -19 -22 -19q-3 0 -8 1l-2 22q17 27 32 99q14 67 34 96q10 42 65 127q50 77 54 130q18 19 27 62q12 54 16 65q14 0 16 -5q4 7 7 27q3 16 12 19q23 -10 23 -28q0 -8 -6 -24q-8 -21 -10 -26l29 -40l2 40
h6q29 -68 80 -211q36 -46 69 -140q38 -108 60 -145q1 -4 2.5 -9t3 -9.5t2.5 -8.5q5 -17 5 -28q0 -17 -13 -26q-1 -3 -1 -5q0 -5 5 -11zM130 582q0 -4 -6 -6q-5 -9 -15 2q-2 3 -2 6q0 4 5 7q9 5 10 6q8 -11 8 -15zM209 327q6 25 9 30l-28 -50l6 -6q8 5 13 26zM444 180
q30 -25 90 -79q-6 27 -26 64q-27 91 -31 102q-19 57 -47 95l-6 -1q-3 0 -5.5 0.5t-3.5 4.5v23q-9 18 -39 84q-24 55 -44 84q-9 -7 -15.5 -33.5t-19.5 -36.5q-10 -29 -26 -97q-14 -64 -27 -96q14 -8 79 -31q49 -17 73 -44q1 -1 2.5 -1.5t3 -1.5t4 -2t5.5 -2.5t6.5 -3.5
t7.5 -4q15 -7 19 -24zM351 65q8 -2 10 -10l-27 -28q4 4 4 10q0 3 -1 8t-1 8q0 6 2 11q6 3 13 1zM366 207q3 0 6 2l-27 18q4 -6 8 -11q6 -9 13 -9zM374 525q8 -25 17 -38q2 2 2 6q0 5 -19 32zM411 174q13 -9 35 -23l-30 27q-17 15 -36 22q13 -15 31 -26zM492 298
q10 -19 11 -24q1 4 1 8q0 8 -7 21q-10 15 -11 21q-2 -12 6 -26zM540 163q43 -97 45 -99v7q0 9 -6 20q-9 19 -9.5 20t-33.5 78q-19 48 -28 81q5 -46 32 -107zM673 93q6 0 14 -10q1 -2 1 -5q0 -10 -14 -19q-5 9 -23 8.5t-21 7.5q4 -2 8 -2q7 0 18.5 10t16.5 10zM658 543
q14 0 14 -16q-8 -8 -8 -20q0 -4 1.5 -12.5t1.5 -11.5q0 -11 -11 -13v2l-4 70q3 1 6 1z" />
    <glyph glyph-name="A" unicode="&#xe4;" horiz-adv-x="698" 
d="M31 356q13 0 18 -11q-6 -14 -24 -18l-11 13q-3 7 2.5 11.5t14.5 4.5zM44 615q0 -6 -6 -7q-11 -8 -21 2q-2 5 4 11.5t13 6.5q10 -3 10 -13zM595 15q5 -6 5 -11q-10 -10 -18 -4q-57 63 -173 135q-141 89 -176 118q-26 -37 -50 -111q-15 -44 -26 -72.5t-18 -42.5
q-11 -5 -18 -5t-7 7q0 5 5.5 21.5t5.5 24.5q0 9 -6 15q0 -1 -12 -28q-9 -19 -22 -19q-3 0 -8 1l-2 22q17 27 32 99q14 67 34 96q10 42 65 127q50 77 54 130q18 19 27 62q12 54 16 65q14 0 16 -5q4 7 7 27q3 16 12 19q23 -10 23 -28q0 -8 -6 -24q-8 -21 -10 -26l29 -40l2 40
h6q29 -68 80 -211q36 -46 69 -140q38 -108 60 -145q1 -4 2.5 -9t3 -9.5t2.5 -8.5q5 -17 5 -28q0 -17 -13 -26q-1 -3 -1 -5q0 -5 5 -11zM130 582q0 -4 -6 -6q-5 -9 -15 2q-2 3 -2 6q0 4 5 7q9 5 10 6q8 -11 8 -15zM209 327q6 25 9 30l-28 -50l6 -6q8 5 13 26zM444 180
q30 -25 90 -79q-6 27 -26 64q-27 91 -31 102q-19 57 -47 95l-6 -1q-3 0 -5.5 0.5t-3.5 4.5v23q-9 18 -39 84q-24 55 -44 84q-9 -7 -15.5 -33.5t-19.5 -36.5q-10 -29 -26 -97q-14 -64 -27 -96q14 -8 79 -31q49 -17 73 -44q1 -1 2.5 -1.5t3 -1.5t4 -2t5.5 -2.5t6.5 -3.5
t7.5 -4q15 -7 19 -24zM351 65q8 -2 10 -10l-27 -28q4 4 4 10q0 3 -1 8t-1 8q0 6 2 11q6 3 13 1zM366 207q3 0 6 2l-27 18q4 -6 8 -11q6 -9 13 -9zM374 525q8 -25 17 -38q2 2 2 6q0 5 -19 32zM411 174q13 -9 35 -23l-30 27q-17 15 -36 22q13 -15 31 -26zM492 298
q10 -19 11 -24q1 4 1 8q0 8 -7 21q-10 15 -11 21q-2 -12 6 -26zM540 163q43 -97 45 -99v7q0 9 -6 20q-9 19 -9.5 20t-33.5 78q-19 48 -28 81q5 -46 32 -107zM673 93q6 0 14 -10q1 -2 1 -5q0 -10 -14 -19q-5 9 -23 8.5t-21 7.5q4 -2 8 -2q7 0 18.5 10t16.5 10zM658 543
q14 0 14 -16q-8 -8 -8 -20q0 -4 1.5 -12.5t1.5 -11.5q0 -11 -11 -13v2l-4 70q3 1 6 1z" />
    <glyph glyph-name="A" unicode="&#xe3;" horiz-adv-x="698" 
d="M31 356q13 0 18 -11q-6 -14 -24 -18l-11 13q-3 7 2.5 11.5t14.5 4.5zM44 615q0 -6 -6 -7q-11 -8 -21 2q-2 5 4 11.5t13 6.5q10 -3 10 -13zM595 15q5 -6 5 -11q-10 -10 -18 -4q-57 63 -173 135q-141 89 -176 118q-26 -37 -50 -111q-15 -44 -26 -72.5t-18 -42.5
q-11 -5 -18 -5t-7 7q0 5 5.5 21.5t5.5 24.5q0 9 -6 15q0 -1 -12 -28q-9 -19 -22 -19q-3 0 -8 1l-2 22q17 27 32 99q14 67 34 96q10 42 65 127q50 77 54 130q18 19 27 62q12 54 16 65q14 0 16 -5q4 7 7 27q3 16 12 19q23 -10 23 -28q0 -8 -6 -24q-8 -21 -10 -26l29 -40l2 40
h6q29 -68 80 -211q36 -46 69 -140q38 -108 60 -145q1 -4 2.5 -9t3 -9.5t2.5 -8.5q5 -17 5 -28q0 -17 -13 -26q-1 -3 -1 -5q0 -5 5 -11zM130 582q0 -4 -6 -6q-5 -9 -15 2q-2 3 -2 6q0 4 5 7q9 5 10 6q8 -11 8 -15zM209 327q6 25 9 30l-28 -50l6 -6q8 5 13 26zM444 180
q30 -25 90 -79q-6 27 -26 64q-27 91 -31 102q-19 57 -47 95l-6 -1q-3 0 -5.5 0.5t-3.5 4.5v23q-9 18 -39 84q-24 55 -44 84q-9 -7 -15.5 -33.5t-19.5 -36.5q-10 -29 -26 -97q-14 -64 -27 -96q14 -8 79 -31q49 -17 73 -44q1 -1 2.5 -1.5t3 -1.5t4 -2t5.5 -2.5t6.5 -3.5
t7.5 -4q15 -7 19 -24zM351 65q8 -2 10 -10l-27 -28q4 4 4 10q0 3 -1 8t-1 8q0 6 2 11q6 3 13 1zM366 207q3 0 6 2l-27 18q4 -6 8 -11q6 -9 13 -9zM374 525q8 -25 17 -38q2 2 2 6q0 5 -19 32zM411 174q13 -9 35 -23l-30 27q-17 15 -36 22q13 -15 31 -26zM492 298
q10 -19 11 -24q1 4 1 8q0 8 -7 21q-10 15 -11 21q-2 -12 6 -26zM540 163q43 -97 45 -99v7q0 9 -6 20q-9 19 -9.5 20t-33.5 78q-19 48 -28 81q5 -46 32 -107zM673 93q6 0 14 -10q1 -2 1 -5q0 -10 -14 -19q-5 9 -23 8.5t-21 7.5q4 -2 8 -2q7 0 18.5 10t16.5 10zM658 543
q14 0 14 -16q-8 -8 -8 -20q0 -4 1.5 -12.5t1.5 -11.5q0 -11 -11 -13v2l-4 70q3 1 6 1z" />
    <glyph glyph-name="A" unicode="&#xe2;" horiz-adv-x="698" 
d="M31 356q13 0 18 -11q-6 -14 -24 -18l-11 13q-3 7 2.5 11.5t14.5 4.5zM44 615q0 -6 -6 -7q-11 -8 -21 2q-2 5 4 11.5t13 6.5q10 -3 10 -13zM595 15q5 -6 5 -11q-10 -10 -18 -4q-57 63 -173 135q-141 89 -176 118q-26 -37 -50 -111q-15 -44 -26 -72.5t-18 -42.5
q-11 -5 -18 -5t-7 7q0 5 5.5 21.5t5.5 24.5q0 9 -6 15q0 -1 -12 -28q-9 -19 -22 -19q-3 0 -8 1l-2 22q17 27 32 99q14 67 34 96q10 42 65 127q50 77 54 130q18 19 27 62q12 54 16 65q14 0 16 -5q4 7 7 27q3 16 12 19q23 -10 23 -28q0 -8 -6 -24q-8 -21 -10 -26l29 -40l2 40
h6q29 -68 80 -211q36 -46 69 -140q38 -108 60 -145q1 -4 2.5 -9t3 -9.5t2.5 -8.5q5 -17 5 -28q0 -17 -13 -26q-1 -3 -1 -5q0 -5 5 -11zM130 582q0 -4 -6 -6q-5 -9 -15 2q-2 3 -2 6q0 4 5 7q9 5 10 6q8 -11 8 -15zM209 327q6 25 9 30l-28 -50l6 -6q8 5 13 26zM444 180
q30 -25 90 -79q-6 27 -26 64q-27 91 -31 102q-19 57 -47 95l-6 -1q-3 0 -5.5 0.5t-3.5 4.5v23q-9 18 -39 84q-24 55 -44 84q-9 -7 -15.5 -33.5t-19.5 -36.5q-10 -29 -26 -97q-14 -64 -27 -96q14 -8 79 -31q49 -17 73 -44q1 -1 2.5 -1.5t3 -1.5t4 -2t5.5 -2.5t6.5 -3.5
t7.5 -4q15 -7 19 -24zM351 65q8 -2 10 -10l-27 -28q4 4 4 10q0 3 -1 8t-1 8q0 6 2 11q6 3 13 1zM366 207q3 0 6 2l-27 18q4 -6 8 -11q6 -9 13 -9zM374 525q8 -25 17 -38q2 2 2 6q0 5 -19 32zM411 174q13 -9 35 -23l-30 27q-17 15 -36 22q13 -15 31 -26zM492 298
q10 -19 11 -24q1 4 1 8q0 8 -7 21q-10 15 -11 21q-2 -12 6 -26zM540 163q43 -97 45 -99v7q0 9 -6 20q-9 19 -9.5 20t-33.5 78q-19 48 -28 81q5 -46 32 -107zM673 93q6 0 14 -10q1 -2 1 -5q0 -10 -14 -19q-5 9 -23 8.5t-21 7.5q4 -2 8 -2q7 0 18.5 10t16.5 10zM658 543
q14 0 14 -16q-8 -8 -8 -20q0 -4 1.5 -12.5t1.5 -11.5q0 -11 -11 -13v2l-4 70q3 1 6 1z" />
    <glyph glyph-name="A" unicode="&#xe1;" horiz-adv-x="698" 
d="M31 356q13 0 18 -11q-6 -14 -24 -18l-11 13q-3 7 2.5 11.5t14.5 4.5zM44 615q0 -6 -6 -7q-11 -8 -21 2q-2 5 4 11.5t13 6.5q10 -3 10 -13zM595 15q5 -6 5 -11q-10 -10 -18 -4q-57 63 -173 135q-141 89 -176 118q-26 -37 -50 -111q-15 -44 -26 -72.5t-18 -42.5
q-11 -5 -18 -5t-7 7q0 5 5.5 21.5t5.5 24.5q0 9 -6 15q0 -1 -12 -28q-9 -19 -22 -19q-3 0 -8 1l-2 22q17 27 32 99q14 67 34 96q10 42 65 127q50 77 54 130q18 19 27 62q12 54 16 65q14 0 16 -5q4 7 7 27q3 16 12 19q23 -10 23 -28q0 -8 -6 -24q-8 -21 -10 -26l29 -40l2 40
h6q29 -68 80 -211q36 -46 69 -140q38 -108 60 -145q1 -4 2.5 -9t3 -9.5t2.5 -8.5q5 -17 5 -28q0 -17 -13 -26q-1 -3 -1 -5q0 -5 5 -11zM130 582q0 -4 -6 -6q-5 -9 -15 2q-2 3 -2 6q0 4 5 7q9 5 10 6q8 -11 8 -15zM209 327q6 25 9 30l-28 -50l6 -6q8 5 13 26zM444 180
q30 -25 90 -79q-6 27 -26 64q-27 91 -31 102q-19 57 -47 95l-6 -1q-3 0 -5.5 0.5t-3.5 4.5v23q-9 18 -39 84q-24 55 -44 84q-9 -7 -15.5 -33.5t-19.5 -36.5q-10 -29 -26 -97q-14 -64 -27 -96q14 -8 79 -31q49 -17 73 -44q1 -1 2.5 -1.5t3 -1.5t4 -2t5.5 -2.5t6.5 -3.5
t7.5 -4q15 -7 19 -24zM351 65q8 -2 10 -10l-27 -28q4 4 4 10q0 3 -1 8t-1 8q0 6 2 11q6 3 13 1zM366 207q3 0 6 2l-27 18q4 -6 8 -11q6 -9 13 -9zM374 525q8 -25 17 -38q2 2 2 6q0 5 -19 32zM411 174q13 -9 35 -23l-30 27q-17 15 -36 22q13 -15 31 -26zM492 298
q10 -19 11 -24q1 4 1 8q0 8 -7 21q-10 15 -11 21q-2 -12 6 -26zM540 163q43 -97 45 -99v7q0 9 -6 20q-9 19 -9.5 20t-33.5 78q-19 48 -28 81q5 -46 32 -107zM673 93q6 0 14 -10q1 -2 1 -5q0 -10 -14 -19q-5 9 -23 8.5t-21 7.5q4 -2 8 -2q7 0 18.5 10t16.5 10zM658 543
q14 0 14 -16q-8 -8 -8 -20q0 -4 1.5 -12.5t1.5 -11.5q0 -11 -11 -13v2l-4 70q3 1 6 1z" />
    <glyph glyph-name="A" unicode="&#xe0;" horiz-adv-x="698" 
d="M31 356q13 0 18 -11q-6 -14 -24 -18l-11 13q-3 7 2.5 11.5t14.5 4.5zM44 615q0 -6 -6 -7q-11 -8 -21 2q-2 5 4 11.5t13 6.5q10 -3 10 -13zM595 15q5 -6 5 -11q-10 -10 -18 -4q-57 63 -173 135q-141 89 -176 118q-26 -37 -50 -111q-15 -44 -26 -72.5t-18 -42.5
q-11 -5 -18 -5t-7 7q0 5 5.5 21.5t5.5 24.5q0 9 -6 15q0 -1 -12 -28q-9 -19 -22 -19q-3 0 -8 1l-2 22q17 27 32 99q14 67 34 96q10 42 65 127q50 77 54 130q18 19 27 62q12 54 16 65q14 0 16 -5q4 7 7 27q3 16 12 19q23 -10 23 -28q0 -8 -6 -24q-8 -21 -10 -26l29 -40l2 40
h6q29 -68 80 -211q36 -46 69 -140q38 -108 60 -145q1 -4 2.5 -9t3 -9.5t2.5 -8.5q5 -17 5 -28q0 -17 -13 -26q-1 -3 -1 -5q0 -5 5 -11zM130 582q0 -4 -6 -6q-5 -9 -15 2q-2 3 -2 6q0 4 5 7q9 5 10 6q8 -11 8 -15zM209 327q6 25 9 30l-28 -50l6 -6q8 5 13 26zM444 180
q30 -25 90 -79q-6 27 -26 64q-27 91 -31 102q-19 57 -47 95l-6 -1q-3 0 -5.5 0.5t-3.5 4.5v23q-9 18 -39 84q-24 55 -44 84q-9 -7 -15.5 -33.5t-19.5 -36.5q-10 -29 -26 -97q-14 -64 -27 -96q14 -8 79 -31q49 -17 73 -44q1 -1 2.5 -1.5t3 -1.5t4 -2t5.5 -2.5t6.5 -3.5
t7.5 -4q15 -7 19 -24zM351 65q8 -2 10 -10l-27 -28q4 4 4 10q0 3 -1 8t-1 8q0 6 2 11q6 3 13 1zM366 207q3 0 6 2l-27 18q4 -6 8 -11q6 -9 13 -9zM374 525q8 -25 17 -38q2 2 2 6q0 5 -19 32zM411 174q13 -9 35 -23l-30 27q-17 15 -36 22q13 -15 31 -26zM492 298
q10 -19 11 -24q1 4 1 8q0 8 -7 21q-10 15 -11 21q-2 -12 6 -26zM540 163q43 -97 45 -99v7q0 9 -6 20q-9 19 -9.5 20t-33.5 78q-19 48 -28 81q5 -46 32 -107zM673 93q6 0 14 -10q1 -2 1 -5q0 -10 -14 -19q-5 9 -23 8.5t-21 7.5q4 -2 8 -2q7 0 18.5 10t16.5 10zM658 543
q14 0 14 -16q-8 -8 -8 -20q0 -4 1.5 -12.5t1.5 -11.5q0 -11 -11 -13v2l-4 70q3 1 6 1z" />
    <glyph glyph-name="A" unicode="&#xc5;" horiz-adv-x="698" 
d="M31 356q13 0 18 -11q-6 -14 -24 -18l-11 13q-3 7 2.5 11.5t14.5 4.5zM44 615q0 -6 -6 -7q-11 -8 -21 2q-2 5 4 11.5t13 6.5q10 -3 10 -13zM595 15q5 -6 5 -11q-10 -10 -18 -4q-57 63 -173 135q-141 89 -176 118q-26 -37 -50 -111q-15 -44 -26 -72.5t-18 -42.5
q-11 -5 -18 -5t-7 7q0 5 5.5 21.5t5.5 24.5q0 9 -6 15q0 -1 -12 -28q-9 -19 -22 -19q-3 0 -8 1l-2 22q17 27 32 99q14 67 34 96q10 42 65 127q50 77 54 130q18 19 27 62q12 54 16 65q14 0 16 -5q4 7 7 27q3 16 12 19q23 -10 23 -28q0 -8 -6 -24q-8 -21 -10 -26l29 -40l2 40
h6q29 -68 80 -211q36 -46 69 -140q38 -108 60 -145q1 -4 2.5 -9t3 -9.5t2.5 -8.5q5 -17 5 -28q0 -17 -13 -26q-1 -3 -1 -5q0 -5 5 -11zM130 582q0 -4 -6 -6q-5 -9 -15 2q-2 3 -2 6q0 4 5 7q9 5 10 6q8 -11 8 -15zM209 327q6 25 9 30l-28 -50l6 -6q8 5 13 26zM444 180
q30 -25 90 -79q-6 27 -26 64q-27 91 -31 102q-19 57 -47 95l-6 -1q-3 0 -5.5 0.5t-3.5 4.5v23q-9 18 -39 84q-24 55 -44 84q-9 -7 -15.5 -33.5t-19.5 -36.5q-10 -29 -26 -97q-14 -64 -27 -96q14 -8 79 -31q49 -17 73 -44q1 -1 2.5 -1.5t3 -1.5t4 -2t5.5 -2.5t6.5 -3.5
t7.5 -4q15 -7 19 -24zM351 65q8 -2 10 -10l-27 -28q4 4 4 10q0 3 -1 8t-1 8q0 6 2 11q6 3 13 1zM366 207q3 0 6 2l-27 18q4 -6 8 -11q6 -9 13 -9zM374 525q8 -25 17 -38q2 2 2 6q0 5 -19 32zM411 174q13 -9 35 -23l-30 27q-17 15 -36 22q13 -15 31 -26zM492 298
q10 -19 11 -24q1 4 1 8q0 8 -7 21q-10 15 -11 21q-2 -12 6 -26zM540 163q43 -97 45 -99v7q0 9 -6 20q-9 19 -9.5 20t-33.5 78q-19 48 -28 81q5 -46 32 -107zM673 93q6 0 14 -10q1 -2 1 -5q0 -10 -14 -19q-5 9 -23 8.5t-21 7.5q4 -2 8 -2q7 0 18.5 10t16.5 10zM658 543
q14 0 14 -16q-8 -8 -8 -20q0 -4 1.5 -12.5t1.5 -11.5q0 -11 -11 -13v2l-4 70q3 1 6 1z" />
    <glyph glyph-name="A" unicode="&#xc4;" horiz-adv-x="698" 
d="M31 356q13 0 18 -11q-6 -14 -24 -18l-11 13q-3 7 2.5 11.5t14.5 4.5zM44 615q0 -6 -6 -7q-11 -8 -21 2q-2 5 4 11.5t13 6.5q10 -3 10 -13zM595 15q5 -6 5 -11q-10 -10 -18 -4q-57 63 -173 135q-141 89 -176 118q-26 -37 -50 -111q-15 -44 -26 -72.5t-18 -42.5
q-11 -5 -18 -5t-7 7q0 5 5.5 21.5t5.5 24.5q0 9 -6 15q0 -1 -12 -28q-9 -19 -22 -19q-3 0 -8 1l-2 22q17 27 32 99q14 67 34 96q10 42 65 127q50 77 54 130q18 19 27 62q12 54 16 65q14 0 16 -5q4 7 7 27q3 16 12 19q23 -10 23 -28q0 -8 -6 -24q-8 -21 -10 -26l29 -40l2 40
h6q29 -68 80 -211q36 -46 69 -140q38 -108 60 -145q1 -4 2.5 -9t3 -9.5t2.5 -8.5q5 -17 5 -28q0 -17 -13 -26q-1 -3 -1 -5q0 -5 5 -11zM130 582q0 -4 -6 -6q-5 -9 -15 2q-2 3 -2 6q0 4 5 7q9 5 10 6q8 -11 8 -15zM209 327q6 25 9 30l-28 -50l6 -6q8 5 13 26zM444 180
q30 -25 90 -79q-6 27 -26 64q-27 91 -31 102q-19 57 -47 95l-6 -1q-3 0 -5.5 0.5t-3.5 4.5v23q-9 18 -39 84q-24 55 -44 84q-9 -7 -15.5 -33.5t-19.5 -36.5q-10 -29 -26 -97q-14 -64 -27 -96q14 -8 79 -31q49 -17 73 -44q1 -1 2.5 -1.5t3 -1.5t4 -2t5.5 -2.5t6.5 -3.5
t7.5 -4q15 -7 19 -24zM351 65q8 -2 10 -10l-27 -28q4 4 4 10q0 3 -1 8t-1 8q0 6 2 11q6 3 13 1zM366 207q3 0 6 2l-27 18q4 -6 8 -11q6 -9 13 -9zM374 525q8 -25 17 -38q2 2 2 6q0 5 -19 32zM411 174q13 -9 35 -23l-30 27q-17 15 -36 22q13 -15 31 -26zM492 298
q10 -19 11 -24q1 4 1 8q0 8 -7 21q-10 15 -11 21q-2 -12 6 -26zM540 163q43 -97 45 -99v7q0 9 -6 20q-9 19 -9.5 20t-33.5 78q-19 48 -28 81q5 -46 32 -107zM673 93q6 0 14 -10q1 -2 1 -5q0 -10 -14 -19q-5 9 -23 8.5t-21 7.5q4 -2 8 -2q7 0 18.5 10t16.5 10zM658 543
q14 0 14 -16q-8 -8 -8 -20q0 -4 1.5 -12.5t1.5 -11.5q0 -11 -11 -13v2l-4 70q3 1 6 1z" />
    <glyph glyph-name="A" unicode="&#xc3;" horiz-adv-x="698" 
d="M31 356q13 0 18 -11q-6 -14 -24 -18l-11 13q-3 7 2.5 11.5t14.5 4.5zM44 615q0 -6 -6 -7q-11 -8 -21 2q-2 5 4 11.5t13 6.5q10 -3 10 -13zM595 15q5 -6 5 -11q-10 -10 -18 -4q-57 63 -173 135q-141 89 -176 118q-26 -37 -50 -111q-15 -44 -26 -72.5t-18 -42.5
q-11 -5 -18 -5t-7 7q0 5 5.5 21.5t5.5 24.5q0 9 -6 15q0 -1 -12 -28q-9 -19 -22 -19q-3 0 -8 1l-2 22q17 27 32 99q14 67 34 96q10 42 65 127q50 77 54 130q18 19 27 62q12 54 16 65q14 0 16 -5q4 7 7 27q3 16 12 19q23 -10 23 -28q0 -8 -6 -24q-8 -21 -10 -26l29 -40l2 40
h6q29 -68 80 -211q36 -46 69 -140q38 -108 60 -145q1 -4 2.5 -9t3 -9.5t2.5 -8.5q5 -17 5 -28q0 -17 -13 -26q-1 -3 -1 -5q0 -5 5 -11zM130 582q0 -4 -6 -6q-5 -9 -15 2q-2 3 -2 6q0 4 5 7q9 5 10 6q8 -11 8 -15zM209 327q6 25 9 30l-28 -50l6 -6q8 5 13 26zM444 180
q30 -25 90 -79q-6 27 -26 64q-27 91 -31 102q-19 57 -47 95l-6 -1q-3 0 -5.5 0.5t-3.5 4.5v23q-9 18 -39 84q-24 55 -44 84q-9 -7 -15.5 -33.5t-19.5 -36.5q-10 -29 -26 -97q-14 -64 -27 -96q14 -8 79 -31q49 -17 73 -44q1 -1 2.5 -1.5t3 -1.5t4 -2t5.5 -2.5t6.5 -3.5
t7.5 -4q15 -7 19 -24zM351 65q8 -2 10 -10l-27 -28q4 4 4 10q0 3 -1 8t-1 8q0 6 2 11q6 3 13 1zM366 207q3 0 6 2l-27 18q4 -6 8 -11q6 -9 13 -9zM374 525q8 -25 17 -38q2 2 2 6q0 5 -19 32zM411 174q13 -9 35 -23l-30 27q-17 15 -36 22q13 -15 31 -26zM492 298
q10 -19 11 -24q1 4 1 8q0 8 -7 21q-10 15 -11 21q-2 -12 6 -26zM540 163q43 -97 45 -99v7q0 9 -6 20q-9 19 -9.5 20t-33.5 78q-19 48 -28 81q5 -46 32 -107zM673 93q6 0 14 -10q1 -2 1 -5q0 -10 -14 -19q-5 9 -23 8.5t-21 7.5q4 -2 8 -2q7 0 18.5 10t16.5 10zM658 543
q14 0 14 -16q-8 -8 -8 -20q0 -4 1.5 -12.5t1.5 -11.5q0 -11 -11 -13v2l-4 70q3 1 6 1z" />
    <glyph glyph-name="A" unicode="&#xc2;" horiz-adv-x="698" 
d="M31 356q13 0 18 -11q-6 -14 -24 -18l-11 13q-3 7 2.5 11.5t14.5 4.5zM44 615q0 -6 -6 -7q-11 -8 -21 2q-2 5 4 11.5t13 6.5q10 -3 10 -13zM595 15q5 -6 5 -11q-10 -10 -18 -4q-57 63 -173 135q-141 89 -176 118q-26 -37 -50 -111q-15 -44 -26 -72.5t-18 -42.5
q-11 -5 -18 -5t-7 7q0 5 5.5 21.5t5.5 24.5q0 9 -6 15q0 -1 -12 -28q-9 -19 -22 -19q-3 0 -8 1l-2 22q17 27 32 99q14 67 34 96q10 42 65 127q50 77 54 130q18 19 27 62q12 54 16 65q14 0 16 -5q4 7 7 27q3 16 12 19q23 -10 23 -28q0 -8 -6 -24q-8 -21 -10 -26l29 -40l2 40
h6q29 -68 80 -211q36 -46 69 -140q38 -108 60 -145q1 -4 2.5 -9t3 -9.5t2.5 -8.5q5 -17 5 -28q0 -17 -13 -26q-1 -3 -1 -5q0 -5 5 -11zM130 582q0 -4 -6 -6q-5 -9 -15 2q-2 3 -2 6q0 4 5 7q9 5 10 6q8 -11 8 -15zM209 327q6 25 9 30l-28 -50l6 -6q8 5 13 26zM444 180
q30 -25 90 -79q-6 27 -26 64q-27 91 -31 102q-19 57 -47 95l-6 -1q-3 0 -5.5 0.5t-3.5 4.5v23q-9 18 -39 84q-24 55 -44 84q-9 -7 -15.5 -33.5t-19.5 -36.5q-10 -29 -26 -97q-14 -64 -27 -96q14 -8 79 -31q49 -17 73 -44q1 -1 2.5 -1.5t3 -1.5t4 -2t5.5 -2.5t6.5 -3.5
t7.5 -4q15 -7 19 -24zM351 65q8 -2 10 -10l-27 -28q4 4 4 10q0 3 -1 8t-1 8q0 6 2 11q6 3 13 1zM366 207q3 0 6 2l-27 18q4 -6 8 -11q6 -9 13 -9zM374 525q8 -25 17 -38q2 2 2 6q0 5 -19 32zM411 174q13 -9 35 -23l-30 27q-17 15 -36 22q13 -15 31 -26zM492 298
q10 -19 11 -24q1 4 1 8q0 8 -7 21q-10 15 -11 21q-2 -12 6 -26zM540 163q43 -97 45 -99v7q0 9 -6 20q-9 19 -9.5 20t-33.5 78q-19 48 -28 81q5 -46 32 -107zM673 93q6 0 14 -10q1 -2 1 -5q0 -10 -14 -19q-5 9 -23 8.5t-21 7.5q4 -2 8 -2q7 0 18.5 10t16.5 10zM658 543
q14 0 14 -16q-8 -8 -8 -20q0 -4 1.5 -12.5t1.5 -11.5q0 -11 -11 -13v2l-4 70q3 1 6 1z" />
    <glyph glyph-name="A" unicode="&#xc1;" horiz-adv-x="698" 
d="M31 356q13 0 18 -11q-6 -14 -24 -18l-11 13q-3 7 2.5 11.5t14.5 4.5zM44 615q0 -6 -6 -7q-11 -8 -21 2q-2 5 4 11.5t13 6.5q10 -3 10 -13zM595 15q5 -6 5 -11q-10 -10 -18 -4q-57 63 -173 135q-141 89 -176 118q-26 -37 -50 -111q-15 -44 -26 -72.5t-18 -42.5
q-11 -5 -18 -5t-7 7q0 5 5.5 21.5t5.5 24.5q0 9 -6 15q0 -1 -12 -28q-9 -19 -22 -19q-3 0 -8 1l-2 22q17 27 32 99q14 67 34 96q10 42 65 127q50 77 54 130q18 19 27 62q12 54 16 65q14 0 16 -5q4 7 7 27q3 16 12 19q23 -10 23 -28q0 -8 -6 -24q-8 -21 -10 -26l29 -40l2 40
h6q29 -68 80 -211q36 -46 69 -140q38 -108 60 -145q1 -4 2.5 -9t3 -9.5t2.5 -8.5q5 -17 5 -28q0 -17 -13 -26q-1 -3 -1 -5q0 -5 5 -11zM130 582q0 -4 -6 -6q-5 -9 -15 2q-2 3 -2 6q0 4 5 7q9 5 10 6q8 -11 8 -15zM209 327q6 25 9 30l-28 -50l6 -6q8 5 13 26zM444 180
q30 -25 90 -79q-6 27 -26 64q-27 91 -31 102q-19 57 -47 95l-6 -1q-3 0 -5.5 0.5t-3.5 4.5v23q-9 18 -39 84q-24 55 -44 84q-9 -7 -15.5 -33.5t-19.5 -36.5q-10 -29 -26 -97q-14 -64 -27 -96q14 -8 79 -31q49 -17 73 -44q1 -1 2.5 -1.5t3 -1.5t4 -2t5.5 -2.5t6.5 -3.5
t7.5 -4q15 -7 19 -24zM351 65q8 -2 10 -10l-27 -28q4 4 4 10q0 3 -1 8t-1 8q0 6 2 11q6 3 13 1zM366 207q3 0 6 2l-27 18q4 -6 8 -11q6 -9 13 -9zM374 525q8 -25 17 -38q2 2 2 6q0 5 -19 32zM411 174q13 -9 35 -23l-30 27q-17 15 -36 22q13 -15 31 -26zM492 298
q10 -19 11 -24q1 4 1 8q0 8 -7 21q-10 15 -11 21q-2 -12 6 -26zM540 163q43 -97 45 -99v7q0 9 -6 20q-9 19 -9.5 20t-33.5 78q-19 48 -28 81q5 -46 32 -107zM673 93q6 0 14 -10q1 -2 1 -5q0 -10 -14 -19q-5 9 -23 8.5t-21 7.5q4 -2 8 -2q7 0 18.5 10t16.5 10zM658 543
q14 0 14 -16q-8 -8 -8 -20q0 -4 1.5 -12.5t1.5 -11.5q0 -11 -11 -13v2l-4 70q3 1 6 1z" />
    <glyph glyph-name="A" unicode="&#xc0;" horiz-adv-x="698" 
d="M31 356q13 0 18 -11q-6 -14 -24 -18l-11 13q-3 7 2.5 11.5t14.5 4.5zM44 615q0 -6 -6 -7q-11 -8 -21 2q-2 5 4 11.5t13 6.5q10 -3 10 -13zM595 15q5 -6 5 -11q-10 -10 -18 -4q-57 63 -173 135q-141 89 -176 118q-26 -37 -50 -111q-15 -44 -26 -72.5t-18 -42.5
q-11 -5 -18 -5t-7 7q0 5 5.5 21.5t5.5 24.5q0 9 -6 15q0 -1 -12 -28q-9 -19 -22 -19q-3 0 -8 1l-2 22q17 27 32 99q14 67 34 96q10 42 65 127q50 77 54 130q18 19 27 62q12 54 16 65q14 0 16 -5q4 7 7 27q3 16 12 19q23 -10 23 -28q0 -8 -6 -24q-8 -21 -10 -26l29 -40l2 40
h6q29 -68 80 -211q36 -46 69 -140q38 -108 60 -145q1 -4 2.5 -9t3 -9.5t2.5 -8.5q5 -17 5 -28q0 -17 -13 -26q-1 -3 -1 -5q0 -5 5 -11zM130 582q0 -4 -6 -6q-5 -9 -15 2q-2 3 -2 6q0 4 5 7q9 5 10 6q8 -11 8 -15zM209 327q6 25 9 30l-28 -50l6 -6q8 5 13 26zM444 180
q30 -25 90 -79q-6 27 -26 64q-27 91 -31 102q-19 57 -47 95l-6 -1q-3 0 -5.5 0.5t-3.5 4.5v23q-9 18 -39 84q-24 55 -44 84q-9 -7 -15.5 -33.5t-19.5 -36.5q-10 -29 -26 -97q-14 -64 -27 -96q14 -8 79 -31q49 -17 73 -44q1 -1 2.5 -1.5t3 -1.5t4 -2t5.5 -2.5t6.5 -3.5
t7.5 -4q15 -7 19 -24zM351 65q8 -2 10 -10l-27 -28q4 4 4 10q0 3 -1 8t-1 8q0 6 2 11q6 3 13 1zM366 207q3 0 6 2l-27 18q4 -6 8 -11q6 -9 13 -9zM374 525q8 -25 17 -38q2 2 2 6q0 5 -19 32zM411 174q13 -9 35 -23l-30 27q-17 15 -36 22q13 -15 31 -26zM492 298
q10 -19 11 -24q1 4 1 8q0 8 -7 21q-10 15 -11 21q-2 -12 6 -26zM540 163q43 -97 45 -99v7q0 9 -6 20q-9 19 -9.5 20t-33.5 78q-19 48 -28 81q5 -46 32 -107zM673 93q6 0 14 -10q1 -2 1 -5q0 -10 -14 -19q-5 9 -23 8.5t-21 7.5q4 -2 8 -2q7 0 18.5 10t16.5 10zM658 543
q14 0 14 -16q-8 -8 -8 -20q0 -4 1.5 -12.5t1.5 -11.5q0 -11 -11 -13v2l-4 70q3 1 6 1z" />
    <glyph glyph-name="A" unicode="a" horiz-adv-x="698" 
d="M31 356q13 0 18 -11q-6 -14 -24 -18l-11 13q-3 7 2.5 11.5t14.5 4.5zM44 615q0 -6 -6 -7q-11 -8 -21 2q-2 5 4 11.5t13 6.5q10 -3 10 -13zM595 15q5 -6 5 -11q-10 -10 -18 -4q-57 63 -173 135q-141 89 -176 118q-26 -37 -50 -111q-15 -44 -26 -72.5t-18 -42.5
q-11 -5 -18 -5t-7 7q0 5 5.5 21.5t5.5 24.5q0 9 -6 15q0 -1 -12 -28q-9 -19 -22 -19q-3 0 -8 1l-2 22q17 27 32 99q14 67 34 96q10 42 65 127q50 77 54 130q18 19 27 62q12 54 16 65q14 0 16 -5q4 7 7 27q3 16 12 19q23 -10 23 -28q0 -8 -6 -24q-8 -21 -10 -26l29 -40l2 40
h6q29 -68 80 -211q36 -46 69 -140q38 -108 60 -145q1 -4 2.5 -9t3 -9.5t2.5 -8.5q5 -17 5 -28q0 -17 -13 -26q-1 -3 -1 -5q0 -5 5 -11zM130 582q0 -4 -6 -6q-5 -9 -15 2q-2 3 -2 6q0 4 5 7q9 5 10 6q8 -11 8 -15zM209 327q6 25 9 30l-28 -50l6 -6q8 5 13 26zM444 180
q30 -25 90 -79q-6 27 -26 64q-27 91 -31 102q-19 57 -47 95l-6 -1q-3 0 -5.5 0.5t-3.5 4.5v23q-9 18 -39 84q-24 55 -44 84q-9 -7 -15.5 -33.5t-19.5 -36.5q-10 -29 -26 -97q-14 -64 -27 -96q14 -8 79 -31q49 -17 73 -44q1 -1 2.5 -1.5t3 -1.5t4 -2t5.5 -2.5t6.5 -3.5
t7.5 -4q15 -7 19 -24zM351 65q8 -2 10 -10l-27 -28q4 4 4 10q0 3 -1 8t-1 8q0 6 2 11q6 3 13 1zM366 207q3 0 6 2l-27 18q4 -6 8 -11q6 -9 13 -9zM374 525q8 -25 17 -38q2 2 2 6q0 5 -19 32zM411 174q13 -9 35 -23l-30 27q-17 15 -36 22q13 -15 31 -26zM492 298
q10 -19 11 -24q1 4 1 8q0 8 -7 21q-10 15 -11 21q-2 -12 6 -26zM540 163q43 -97 45 -99v7q0 9 -6 20q-9 19 -9.5 20t-33.5 78q-19 48 -28 81q5 -46 32 -107zM673 93q6 0 14 -10q1 -2 1 -5q0 -10 -14 -19q-5 9 -23 8.5t-21 7.5q4 -2 8 -2q7 0 18.5 10t16.5 10zM658 543
q14 0 14 -16q-8 -8 -8 -20q0 -4 1.5 -12.5t1.5 -11.5q0 -11 -11 -13v2l-4 70q3 1 6 1z" />
    <glyph glyph-name="B" unicode="B" horiz-adv-x="434" 
d="M35.5 307.5q4.5 -4.5 2.5 -11.5l-9 -13q-16 4 -22 18q4 11 17 11q7 0 11.5 -4.5zM71 617q0 -2 -2 -7q-9 -9 -13 -2q-5 2 -5 7q0 4 6 16q2 -2 9 -6q5 -3 5 -8zM199 338q92 -5 190 -64q-26 -94 -94.5 -159.5t-153.5 -79.5q-22 -16 -34 -16q-13 0 -16 16q1 14 -2 40
q16 125 22 282q3 76 5 283q3 9 7 9q2 0 5.5 -2t6.5 -2q4 0 8 6q45 -39 89 -79q55 -49 83 -94v-13q-63 -83 -116 -127zM134 321l5 37q-7 -24 -7 -28q0 -5 2 -9zM136 469h5v24zM280 126q58 55 80 136q-98 48 -151 48q-24 0 -44 -7q-18 -134 -18 -236q72 1 133 59zM163 -77
q0 -13 -7 -18q-7 4 -7 27q4 3 7 3q7 0 7 -12zM279 451l6 21q-46 65 -122 125l-7 -22q6 -38 7 -112q1 -88 3 -118q29 18 59 48q8 8 54 58zM215.5 197.5q7.5 6.5 12.5 6.5q2 -9 -9 -19.5t-10 -21.5q-10 12 -4 28q3 0 10.5 6.5zM274 713q17 0 32 -28q-4 -5 -9 -5
q-4 0 -12.5 5.5t-12.5 5.5q-3 0 -5 -2q-4 5 -4 21q6 3 11 3zM370 91l9 -2l-2 -20q-1 2 -7 0q-7 -1 -10 2q-1 2 -1 4q0 10 11 16zM397 585q6 0 8 -10q-3 -7 -12 -16l-11 11q3 15 15 15zM401 473q4 5 12 5l-4 -27q-6 0 -16 12q5 6 8 10zM415 -16l23 -5q-2 -6 -13 -10t-9 -12
q0 -1 -2 -1t-5.5 7t-7.5 7q3 14 14 14z" />
    <glyph glyph-name="B" unicode="b" horiz-adv-x="434" 
d="M35.5 307.5q4.5 -4.5 2.5 -11.5l-9 -13q-16 4 -22 18q4 11 17 11q7 0 11.5 -4.5zM71 617q0 -2 -2 -7q-9 -9 -13 -2q-5 2 -5 7q0 4 6 16q2 -2 9 -6q5 -3 5 -8zM199 338q92 -5 190 -64q-26 -94 -94.5 -159.5t-153.5 -79.5q-22 -16 -34 -16q-13 0 -16 16q1 14 -2 40
q16 125 22 282q3 76 5 283q3 9 7 9q2 0 5.5 -2t6.5 -2q4 0 8 6q45 -39 89 -79q55 -49 83 -94v-13q-63 -83 -116 -127zM134 321l5 37q-7 -24 -7 -28q0 -5 2 -9zM136 469h5v24zM280 126q58 55 80 136q-98 48 -151 48q-24 0 -44 -7q-18 -134 -18 -236q72 1 133 59zM163 -77
q0 -13 -7 -18q-7 4 -7 27q4 3 7 3q7 0 7 -12zM279 451l6 21q-46 65 -122 125l-7 -22q6 -38 7 -112q1 -88 3 -118q29 18 59 48q8 8 54 58zM215.5 197.5q7.5 6.5 12.5 6.5q2 -9 -9 -19.5t-10 -21.5q-10 12 -4 28q3 0 10.5 6.5zM274 713q17 0 32 -28q-4 -5 -9 -5
q-4 0 -12.5 5.5t-12.5 5.5q-3 0 -5 -2q-4 5 -4 21q6 3 11 3zM370 91l9 -2l-2 -20q-1 2 -7 0q-7 -1 -10 2q-1 2 -1 4q0 10 11 16zM397 585q6 0 8 -10q-3 -7 -12 -16l-11 11q3 15 15 15zM401 473q4 5 12 5l-4 -27q-6 0 -16 12q5 6 8 10zM415 -16l23 -5q-2 -6 -13 -10t-9 -12
q0 -1 -2 -1t-5.5 7t-7.5 7q3 14 14 14z" />
    <glyph glyph-name="C" unicode="C" horiz-adv-x="529" 
d="M24.5 90q4.5 -7 5.5 -8q-2 -11 -10 -11q-5 0 -11 5.5t-7 10.5l14 11q4 -1 8.5 -8zM55 711.5q13 -4.5 15 -10.5l-28 -5q-13 0 -17 14q5 0 9 7.5t7 7.5q2 0 3 -1q-2 -8 11 -12.5zM442 662q4 -8 2 -17h-15q-43 0 -82 -30q-21 -16 -65 -66q-38 -45 -65 -61q-6 -32 -29 -64
q-9 -12 -46 -55l90 -125q57 -75 116 -113q1 -1 47 -20q28 -12 32 -31q-3 -10 -16 -14l30 -24v-14q-7 -1 -14 -1q-27 0 -60 32q-35 34 -59 39q-83 36 -145 126q-52 75 -81 176q4 20 26 37q35 26 39 30q-2 5 -2 10q0 10 7 22l11 19q29 17 83 62.5t85 63.5q50 29 99 26
q8 0 12 -8zM190 262q22 -30 44 -45q-7 15 -42 54q-33 36 -36 56l-5 -16q12 -12 39 -49zM388 361q7 7 11 6q12 -23 -2 -33q-19 6 -19 16q1 1 10 11zM492 121q-1 -9 7 -9l-4 -7q-8 6 -8 17q0 8 5 11v-12zM521 561q3 1 5 2q-2 -1 -5 -2q-13 -8 -13 -19q0 -5 4 -10
q-4 -3 -6.5 -3t-7 5t-7.5 3q-2 6 -2 10q0 10 11 12q12 1 21 2z" />
    <glyph glyph-name="C" unicode="&#xe7;" horiz-adv-x="529" 
d="M24.5 90q4.5 -7 5.5 -8q-2 -11 -10 -11q-5 0 -11 5.5t-7 10.5l14 11q4 -1 8.5 -8zM55 711.5q13 -4.5 15 -10.5l-28 -5q-13 0 -17 14q5 0 9 7.5t7 7.5q2 0 3 -1q-2 -8 11 -12.5zM442 662q4 -8 2 -17h-15q-43 0 -82 -30q-21 -16 -65 -66q-38 -45 -65 -61q-6 -32 -29 -64
q-9 -12 -46 -55l90 -125q57 -75 116 -113q1 -1 47 -20q28 -12 32 -31q-3 -10 -16 -14l30 -24v-14q-7 -1 -14 -1q-27 0 -60 32q-35 34 -59 39q-83 36 -145 126q-52 75 -81 176q4 20 26 37q35 26 39 30q-2 5 -2 10q0 10 7 22l11 19q29 17 83 62.5t85 63.5q50 29 99 26
q8 0 12 -8zM190 262q22 -30 44 -45q-7 15 -42 54q-33 36 -36 56l-5 -16q12 -12 39 -49zM388 361q7 7 11 6q12 -23 -2 -33q-19 6 -19 16q1 1 10 11zM492 121q-1 -9 7 -9l-4 -7q-8 6 -8 17q0 8 5 11v-12zM521 561q3 1 5 2q-2 -1 -5 -2q-13 -8 -13 -19q0 -5 4 -10
q-4 -3 -6.5 -3t-7 5t-7.5 3q-2 6 -2 10q0 10 11 12q12 1 21 2z" />
    <glyph glyph-name="C" unicode="&#xc7;" horiz-adv-x="529" 
d="M24.5 90q4.5 -7 5.5 -8q-2 -11 -10 -11q-5 0 -11 5.5t-7 10.5l14 11q4 -1 8.5 -8zM55 711.5q13 -4.5 15 -10.5l-28 -5q-13 0 -17 14q5 0 9 7.5t7 7.5q2 0 3 -1q-2 -8 11 -12.5zM442 662q4 -8 2 -17h-15q-43 0 -82 -30q-21 -16 -65 -66q-38 -45 -65 -61q-6 -32 -29 -64
q-9 -12 -46 -55l90 -125q57 -75 116 -113q1 -1 47 -20q28 -12 32 -31q-3 -10 -16 -14l30 -24v-14q-7 -1 -14 -1q-27 0 -60 32q-35 34 -59 39q-83 36 -145 126q-52 75 -81 176q4 20 26 37q35 26 39 30q-2 5 -2 10q0 10 7 22l11 19q29 17 83 62.5t85 63.5q50 29 99 26
q8 0 12 -8zM190 262q22 -30 44 -45q-7 15 -42 54q-33 36 -36 56l-5 -16q12 -12 39 -49zM388 361q7 7 11 6q12 -23 -2 -33q-19 6 -19 16q1 1 10 11zM492 121q-1 -9 7 -9l-4 -7q-8 6 -8 17q0 8 5 11v-12zM521 561q3 1 5 2q-2 -1 -5 -2q-13 -8 -13 -19q0 -5 4 -10
q-4 -3 -6.5 -3t-7 5t-7.5 3q-2 6 -2 10q0 10 11 12q12 1 21 2z" />
    <glyph glyph-name="C" unicode="c" horiz-adv-x="529" 
d="M24.5 90q4.5 -7 5.5 -8q-2 -11 -10 -11q-5 0 -11 5.5t-7 10.5l14 11q4 -1 8.5 -8zM55 711.5q13 -4.5 15 -10.5l-28 -5q-13 0 -17 14q5 0 9 7.5t7 7.5q2 0 3 -1q-2 -8 11 -12.5zM442 662q4 -8 2 -17h-15q-43 0 -82 -30q-21 -16 -65 -66q-38 -45 -65 -61q-6 -32 -29 -64
q-9 -12 -46 -55l90 -125q57 -75 116 -113q1 -1 47 -20q28 -12 32 -31q-3 -10 -16 -14l30 -24v-14q-7 -1 -14 -1q-27 0 -60 32q-35 34 -59 39q-83 36 -145 126q-52 75 -81 176q4 20 26 37q35 26 39 30q-2 5 -2 10q0 10 7 22l11 19q29 17 83 62.5t85 63.5q50 29 99 26
q8 0 12 -8zM190 262q22 -30 44 -45q-7 15 -42 54q-33 36 -36 56l-5 -16q12 -12 39 -49zM388 361q7 7 11 6q12 -23 -2 -33q-19 6 -19 16q1 1 10 11zM492 121q-1 -9 7 -9l-4 -7q-8 6 -8 17q0 8 5 11v-12zM521 561q3 1 5 2q-2 -1 -5 -2q-13 -8 -13 -19q0 -5 4 -10
q-4 -3 -6.5 -3t-7 5t-7.5 3q-2 6 -2 10q0 10 11 12q12 1 21 2z" />
    <glyph glyph-name="D" unicode="D" horiz-adv-x="476" 
d="M34 615q2 2 4 2q-1 -1 -4 -2q-12 -7 -12 -18q0 -4 3 -8q-3 -4 -6 -4q-2 0 -6.5 4.5t-7.5 3.5q-1 6 -1 10q0 9 10 10q11 2 20 2zM450 347q0 -28 -15 -51q-153 -191 -300 -244q-16 16 -13 27l-2 -2q-4 -4 -7 -4q-4 0 -9 7q-7 8 -9 10v20q0 15 2 40q3 25 3 36q0 13 -3 24
q11 66 11 158q0 27 -1 83q-1 54 -1 82q0 29 1 50q4 9 4 25q0 8 -1 25q-2 18 -2 24q0 34 29 37q14 -3 16 -18v-28q73 -43 166 -129q28 -7 58 -33q10 -8 27 -24.5t22 -21.5q24 -71 24 -93zM415 373q0 5 -4 10q-132 167 -250 227q-6 -11 -6 -26q0 -11 5 -35t5 -36q0 -10 -1 -18
q-18 -76 -18 -180q0 -69 9 -171q16 -5 16 -11q0 -2 -1 -4q-11 0 -13 -14q-3 -18 -7 -21q123 50 252 217q-32 -8 -67 -42l-58 -54q-33 -26 -70 -22q-10 9 -8 13q43 11 100 67.5t94 67.5q1 2 13 15q9 10 9 17zM211 390q9 0 11 -13q-1 -1 -5 -7q-4 -5 -9 -5q-3 0 -5 1v21
q4 3 8 3zM312 737q0 -7 -5 -7q-2 0 -8.5 4.5t-7.5 5.5q0 10 12 10q6 0 9 -4v-9zM356 661q2 0 5 -2q-10 -15 -10 -21t4 -9q-14 0 -20 8q4 7 10 16q5 8 11 8zM374 82v-16q-10 -2 -16 2.5t-4 12.5q-1 3 -1 4q0 3 4.5 3.5t5.5 3.5q10 0 11 -10zM380 456l33 -35q-9 12 -13 19
q-9 11 -20 16zM433 517q5 13 15 17q10 -4 10 -13q0 -5 -5 -14.5t-9 -18.5l-16 9z" />
    <glyph glyph-name="D" unicode="d" horiz-adv-x="476" 
d="M34 615q2 2 4 2q-1 -1 -4 -2q-12 -7 -12 -18q0 -4 3 -8q-3 -4 -6 -4q-2 0 -6.5 4.5t-7.5 3.5q-1 6 -1 10q0 9 10 10q11 2 20 2zM450 347q0 -28 -15 -51q-153 -191 -300 -244q-16 16 -13 27l-2 -2q-4 -4 -7 -4q-4 0 -9 7q-7 8 -9 10v20q0 15 2 40q3 25 3 36q0 13 -3 24
q11 66 11 158q0 27 -1 83q-1 54 -1 82q0 29 1 50q4 9 4 25q0 8 -1 25q-2 18 -2 24q0 34 29 37q14 -3 16 -18v-28q73 -43 166 -129q28 -7 58 -33q10 -8 27 -24.5t22 -21.5q24 -71 24 -93zM415 373q0 5 -4 10q-132 167 -250 227q-6 -11 -6 -26q0 -11 5 -35t5 -36q0 -10 -1 -18
q-18 -76 -18 -180q0 -69 9 -171q16 -5 16 -11q0 -2 -1 -4q-11 0 -13 -14q-3 -18 -7 -21q123 50 252 217q-32 -8 -67 -42l-58 -54q-33 -26 -70 -22q-10 9 -8 13q43 11 100 67.5t94 67.5q1 2 13 15q9 10 9 17zM211 390q9 0 11 -13q-1 -1 -5 -7q-4 -5 -9 -5q-3 0 -5 1v21
q4 3 8 3zM312 737q0 -7 -5 -7q-2 0 -8.5 4.5t-7.5 5.5q0 10 12 10q6 0 9 -4v-9zM356 661q2 0 5 -2q-10 -15 -10 -21t4 -9q-14 0 -20 8q4 7 10 16q5 8 11 8zM374 82v-16q-10 -2 -16 2.5t-4 12.5q-1 3 -1 4q0 3 4.5 3.5t5.5 3.5q10 0 11 -10zM380 456l33 -35q-9 12 -13 19
q-9 11 -20 16zM433 517q5 13 15 17q10 -4 10 -13q0 -5 -5 -14.5t-9 -18.5l-16 9z" />
    <glyph glyph-name="E" unicode="E" horiz-adv-x="464" 
d="M8 66q19 60 49 85q-26 -52 -29 -90q-3 -1 -4 -1t-6 3.5t-10 2.5zM396 313q-9 1 -17 1q-12 0 -33 -4t-31 -4q-13 0 -24 4q-15 -2 -40 -2h-41q-28 -1 -44 -8q25 -100 137 -185q6 -13 50 -46q36 -26 33 -54q-2 -2 -5 -2q-1 0 -8 2.5t-11 1.5q-3 -2 -8 -7q-4 -4 -2 -10h-12
q-141 109 -223 202q-9 23 -36 69q-26 45 -37 71q2 22 16 50q2 5 5.5 11t6 11t6 11.5t5.5 11.5q43 32 122 127q78 92 127 129l18 5q14 -10 12 -22q-12 -9 -26 -40q-12 -26 -28 -28q-24 -24 -52 -72q-35 -61 -48 -78q-14 -10 -26 -19q-14 -12 -13 -27q21 4 48 4q17 0 59 -2
q37 -2 56 -2q2 -16 18 -16h7h6q13 0 18 -8q3 -3 3 -7q0 -5 -8 -13q-19 2 -44 -4q-4 -1 -19.5 -6t-24.5 -7q19 -8 53 -11q45 -4 55 -6v-21zM163 198q20 -3 24 -7q-23 36 -72 102l-14 110q-29 -25 -29 -52q0 -26 31 -70q35 -49 39 -69q5 -11 21 -14zM152 339l35 2q-7 1 -21 8
t-17 7t-3 -3t6 -14zM226 374q11 0 18 1v8q-5 -3 -11 -3t-17 3t-17 3q-7 0 -13 -3q12 -9 40 -9zM431 165q8 -1 14 -7q-25 -11 -32 -11q-11 0 -15 11l5 5q4 0 14 1.5t14 0.5zM449 471q0 -5 -2 -10q-20 5 -20 15q2 0 4 12q2 9 9 7q9 -12 9 -24z" />
    <glyph glyph-name="E" unicode="&#xeb;" horiz-adv-x="464" 
d="M8 66q19 60 49 85q-26 -52 -29 -90q-3 -1 -4 -1t-6 3.5t-10 2.5zM396 313q-9 1 -17 1q-12 0 -33 -4t-31 -4q-13 0 -24 4q-15 -2 -40 -2h-41q-28 -1 -44 -8q25 -100 137 -185q6 -13 50 -46q36 -26 33 -54q-2 -2 -5 -2q-1 0 -8 2.5t-11 1.5q-3 -2 -8 -7q-4 -4 -2 -10h-12
q-141 109 -223 202q-9 23 -36 69q-26 45 -37 71q2 22 16 50q2 5 5.5 11t6 11t6 11.5t5.5 11.5q43 32 122 127q78 92 127 129l18 5q14 -10 12 -22q-12 -9 -26 -40q-12 -26 -28 -28q-24 -24 -52 -72q-35 -61 -48 -78q-14 -10 -26 -19q-14 -12 -13 -27q21 4 48 4q17 0 59 -2
q37 -2 56 -2q2 -16 18 -16h7h6q13 0 18 -8q3 -3 3 -7q0 -5 -8 -13q-19 2 -44 -4q-4 -1 -19.5 -6t-24.5 -7q19 -8 53 -11q45 -4 55 -6v-21zM163 198q20 -3 24 -7q-23 36 -72 102l-14 110q-29 -25 -29 -52q0 -26 31 -70q35 -49 39 -69q5 -11 21 -14zM152 339l35 2q-7 1 -21 8
t-17 7t-3 -3t6 -14zM226 374q11 0 18 1v8q-5 -3 -11 -3t-17 3t-17 3q-7 0 -13 -3q12 -9 40 -9zM431 165q8 -1 14 -7q-25 -11 -32 -11q-11 0 -15 11l5 5q4 0 14 1.5t14 0.5zM449 471q0 -5 -2 -10q-20 5 -20 15q2 0 4 12q2 9 9 7q9 -12 9 -24z" />
    <glyph glyph-name="E" unicode="&#xea;" horiz-adv-x="464" 
d="M8 66q19 60 49 85q-26 -52 -29 -90q-3 -1 -4 -1t-6 3.5t-10 2.5zM396 313q-9 1 -17 1q-12 0 -33 -4t-31 -4q-13 0 -24 4q-15 -2 -40 -2h-41q-28 -1 -44 -8q25 -100 137 -185q6 -13 50 -46q36 -26 33 -54q-2 -2 -5 -2q-1 0 -8 2.5t-11 1.5q-3 -2 -8 -7q-4 -4 -2 -10h-12
q-141 109 -223 202q-9 23 -36 69q-26 45 -37 71q2 22 16 50q2 5 5.5 11t6 11t6 11.5t5.5 11.5q43 32 122 127q78 92 127 129l18 5q14 -10 12 -22q-12 -9 -26 -40q-12 -26 -28 -28q-24 -24 -52 -72q-35 -61 -48 -78q-14 -10 -26 -19q-14 -12 -13 -27q21 4 48 4q17 0 59 -2
q37 -2 56 -2q2 -16 18 -16h7h6q13 0 18 -8q3 -3 3 -7q0 -5 -8 -13q-19 2 -44 -4q-4 -1 -19.5 -6t-24.5 -7q19 -8 53 -11q45 -4 55 -6v-21zM163 198q20 -3 24 -7q-23 36 -72 102l-14 110q-29 -25 -29 -52q0 -26 31 -70q35 -49 39 -69q5 -11 21 -14zM152 339l35 2q-7 1 -21 8
t-17 7t-3 -3t6 -14zM226 374q11 0 18 1v8q-5 -3 -11 -3t-17 3t-17 3q-7 0 -13 -3q12 -9 40 -9zM431 165q8 -1 14 -7q-25 -11 -32 -11q-11 0 -15 11l5 5q4 0 14 1.5t14 0.5zM449 471q0 -5 -2 -10q-20 5 -20 15q2 0 4 12q2 9 9 7q9 -12 9 -24z" />
    <glyph glyph-name="E" unicode="&#xe9;" horiz-adv-x="464" 
d="M8 66q19 60 49 85q-26 -52 -29 -90q-3 -1 -4 -1t-6 3.5t-10 2.5zM396 313q-9 1 -17 1q-12 0 -33 -4t-31 -4q-13 0 -24 4q-15 -2 -40 -2h-41q-28 -1 -44 -8q25 -100 137 -185q6 -13 50 -46q36 -26 33 -54q-2 -2 -5 -2q-1 0 -8 2.5t-11 1.5q-3 -2 -8 -7q-4 -4 -2 -10h-12
q-141 109 -223 202q-9 23 -36 69q-26 45 -37 71q2 22 16 50q2 5 5.5 11t6 11t6 11.5t5.5 11.5q43 32 122 127q78 92 127 129l18 5q14 -10 12 -22q-12 -9 -26 -40q-12 -26 -28 -28q-24 -24 -52 -72q-35 -61 -48 -78q-14 -10 -26 -19q-14 -12 -13 -27q21 4 48 4q17 0 59 -2
q37 -2 56 -2q2 -16 18 -16h7h6q13 0 18 -8q3 -3 3 -7q0 -5 -8 -13q-19 2 -44 -4q-4 -1 -19.5 -6t-24.5 -7q19 -8 53 -11q45 -4 55 -6v-21zM163 198q20 -3 24 -7q-23 36 -72 102l-14 110q-29 -25 -29 -52q0 -26 31 -70q35 -49 39 -69q5 -11 21 -14zM152 339l35 2q-7 1 -21 8
t-17 7t-3 -3t6 -14zM226 374q11 0 18 1v8q-5 -3 -11 -3t-17 3t-17 3q-7 0 -13 -3q12 -9 40 -9zM431 165q8 -1 14 -7q-25 -11 -32 -11q-11 0 -15 11l5 5q4 0 14 1.5t14 0.5zM449 471q0 -5 -2 -10q-20 5 -20 15q2 0 4 12q2 9 9 7q9 -12 9 -24z" />
    <glyph glyph-name="E" unicode="&#xe8;" horiz-adv-x="464" 
d="M8 66q19 60 49 85q-26 -52 -29 -90q-3 -1 -4 -1t-6 3.5t-10 2.5zM396 313q-9 1 -17 1q-12 0 -33 -4t-31 -4q-13 0 -24 4q-15 -2 -40 -2h-41q-28 -1 -44 -8q25 -100 137 -185q6 -13 50 -46q36 -26 33 -54q-2 -2 -5 -2q-1 0 -8 2.5t-11 1.5q-3 -2 -8 -7q-4 -4 -2 -10h-12
q-141 109 -223 202q-9 23 -36 69q-26 45 -37 71q2 22 16 50q2 5 5.5 11t6 11t6 11.5t5.5 11.5q43 32 122 127q78 92 127 129l18 5q14 -10 12 -22q-12 -9 -26 -40q-12 -26 -28 -28q-24 -24 -52 -72q-35 -61 -48 -78q-14 -10 -26 -19q-14 -12 -13 -27q21 4 48 4q17 0 59 -2
q37 -2 56 -2q2 -16 18 -16h7h6q13 0 18 -8q3 -3 3 -7q0 -5 -8 -13q-19 2 -44 -4q-4 -1 -19.5 -6t-24.5 -7q19 -8 53 -11q45 -4 55 -6v-21zM163 198q20 -3 24 -7q-23 36 -72 102l-14 110q-29 -25 -29 -52q0 -26 31 -70q35 -49 39 -69q5 -11 21 -14zM152 339l35 2q-7 1 -21 8
t-17 7t-3 -3t6 -14zM226 374q11 0 18 1v8q-5 -3 -11 -3t-17 3t-17 3q-7 0 -13 -3q12 -9 40 -9zM431 165q8 -1 14 -7q-25 -11 -32 -11q-11 0 -15 11l5 5q4 0 14 1.5t14 0.5zM449 471q0 -5 -2 -10q-20 5 -20 15q2 0 4 12q2 9 9 7q9 -12 9 -24z" />
    <glyph glyph-name="E" unicode="&#xcb;" horiz-adv-x="464" 
d="M8 66q19 60 49 85q-26 -52 -29 -90q-3 -1 -4 -1t-6 3.5t-10 2.5zM396 313q-9 1 -17 1q-12 0 -33 -4t-31 -4q-13 0 -24 4q-15 -2 -40 -2h-41q-28 -1 -44 -8q25 -100 137 -185q6 -13 50 -46q36 -26 33 -54q-2 -2 -5 -2q-1 0 -8 2.5t-11 1.5q-3 -2 -8 -7q-4 -4 -2 -10h-12
q-141 109 -223 202q-9 23 -36 69q-26 45 -37 71q2 22 16 50q2 5 5.5 11t6 11t6 11.5t5.5 11.5q43 32 122 127q78 92 127 129l18 5q14 -10 12 -22q-12 -9 -26 -40q-12 -26 -28 -28q-24 -24 -52 -72q-35 -61 -48 -78q-14 -10 -26 -19q-14 -12 -13 -27q21 4 48 4q17 0 59 -2
q37 -2 56 -2q2 -16 18 -16h7h6q13 0 18 -8q3 -3 3 -7q0 -5 -8 -13q-19 2 -44 -4q-4 -1 -19.5 -6t-24.5 -7q19 -8 53 -11q45 -4 55 -6v-21zM163 198q20 -3 24 -7q-23 36 -72 102l-14 110q-29 -25 -29 -52q0 -26 31 -70q35 -49 39 -69q5 -11 21 -14zM152 339l35 2q-7 1 -21 8
t-17 7t-3 -3t6 -14zM226 374q11 0 18 1v8q-5 -3 -11 -3t-17 3t-17 3q-7 0 -13 -3q12 -9 40 -9zM431 165q8 -1 14 -7q-25 -11 -32 -11q-11 0 -15 11l5 5q4 0 14 1.5t14 0.5zM449 471q0 -5 -2 -10q-20 5 -20 15q2 0 4 12q2 9 9 7q9 -12 9 -24z" />
    <glyph glyph-name="E" unicode="&#xca;" horiz-adv-x="464" 
d="M8 66q19 60 49 85q-26 -52 -29 -90q-3 -1 -4 -1t-6 3.5t-10 2.5zM396 313q-9 1 -17 1q-12 0 -33 -4t-31 -4q-13 0 -24 4q-15 -2 -40 -2h-41q-28 -1 -44 -8q25 -100 137 -185q6 -13 50 -46q36 -26 33 -54q-2 -2 -5 -2q-1 0 -8 2.5t-11 1.5q-3 -2 -8 -7q-4 -4 -2 -10h-12
q-141 109 -223 202q-9 23 -36 69q-26 45 -37 71q2 22 16 50q2 5 5.5 11t6 11t6 11.5t5.5 11.5q43 32 122 127q78 92 127 129l18 5q14 -10 12 -22q-12 -9 -26 -40q-12 -26 -28 -28q-24 -24 -52 -72q-35 -61 -48 -78q-14 -10 -26 -19q-14 -12 -13 -27q21 4 48 4q17 0 59 -2
q37 -2 56 -2q2 -16 18 -16h7h6q13 0 18 -8q3 -3 3 -7q0 -5 -8 -13q-19 2 -44 -4q-4 -1 -19.5 -6t-24.5 -7q19 -8 53 -11q45 -4 55 -6v-21zM163 198q20 -3 24 -7q-23 36 -72 102l-14 110q-29 -25 -29 -52q0 -26 31 -70q35 -49 39 -69q5 -11 21 -14zM152 339l35 2q-7 1 -21 8
t-17 7t-3 -3t6 -14zM226 374q11 0 18 1v8q-5 -3 -11 -3t-17 3t-17 3q-7 0 -13 -3q12 -9 40 -9zM431 165q8 -1 14 -7q-25 -11 -32 -11q-11 0 -15 11l5 5q4 0 14 1.5t14 0.5zM449 471q0 -5 -2 -10q-20 5 -20 15q2 0 4 12q2 9 9 7q9 -12 9 -24z" />
    <glyph glyph-name="E" unicode="&#xc9;" horiz-adv-x="464" 
d="M8 66q19 60 49 85q-26 -52 -29 -90q-3 -1 -4 -1t-6 3.5t-10 2.5zM396 313q-9 1 -17 1q-12 0 -33 -4t-31 -4q-13 0 -24 4q-15 -2 -40 -2h-41q-28 -1 -44 -8q25 -100 137 -185q6 -13 50 -46q36 -26 33 -54q-2 -2 -5 -2q-1 0 -8 2.5t-11 1.5q-3 -2 -8 -7q-4 -4 -2 -10h-12
q-141 109 -223 202q-9 23 -36 69q-26 45 -37 71q2 22 16 50q2 5 5.5 11t6 11t6 11.5t5.5 11.5q43 32 122 127q78 92 127 129l18 5q14 -10 12 -22q-12 -9 -26 -40q-12 -26 -28 -28q-24 -24 -52 -72q-35 -61 -48 -78q-14 -10 -26 -19q-14 -12 -13 -27q21 4 48 4q17 0 59 -2
q37 -2 56 -2q2 -16 18 -16h7h6q13 0 18 -8q3 -3 3 -7q0 -5 -8 -13q-19 2 -44 -4q-4 -1 -19.5 -6t-24.5 -7q19 -8 53 -11q45 -4 55 -6v-21zM163 198q20 -3 24 -7q-23 36 -72 102l-14 110q-29 -25 -29 -52q0 -26 31 -70q35 -49 39 -69q5 -11 21 -14zM152 339l35 2q-7 1 -21 8
t-17 7t-3 -3t6 -14zM226 374q11 0 18 1v8q-5 -3 -11 -3t-17 3t-17 3q-7 0 -13 -3q12 -9 40 -9zM431 165q8 -1 14 -7q-25 -11 -32 -11q-11 0 -15 11l5 5q4 0 14 1.5t14 0.5zM449 471q0 -5 -2 -10q-20 5 -20 15q2 0 4 12q2 9 9 7q9 -12 9 -24z" />
    <glyph glyph-name="E" unicode="&#xc8;" horiz-adv-x="464" 
d="M8 66q19 60 49 85q-26 -52 -29 -90q-3 -1 -4 -1t-6 3.5t-10 2.5zM396 313q-9 1 -17 1q-12 0 -33 -4t-31 -4q-13 0 -24 4q-15 -2 -40 -2h-41q-28 -1 -44 -8q25 -100 137 -185q6 -13 50 -46q36 -26 33 -54q-2 -2 -5 -2q-1 0 -8 2.5t-11 1.5q-3 -2 -8 -7q-4 -4 -2 -10h-12
q-141 109 -223 202q-9 23 -36 69q-26 45 -37 71q2 22 16 50q2 5 5.5 11t6 11t6 11.5t5.5 11.5q43 32 122 127q78 92 127 129l18 5q14 -10 12 -22q-12 -9 -26 -40q-12 -26 -28 -28q-24 -24 -52 -72q-35 -61 -48 -78q-14 -10 -26 -19q-14 -12 -13 -27q21 4 48 4q17 0 59 -2
q37 -2 56 -2q2 -16 18 -16h7h6q13 0 18 -8q3 -3 3 -7q0 -5 -8 -13q-19 2 -44 -4q-4 -1 -19.5 -6t-24.5 -7q19 -8 53 -11q45 -4 55 -6v-21zM163 198q20 -3 24 -7q-23 36 -72 102l-14 110q-29 -25 -29 -52q0 -26 31 -70q35 -49 39 -69q5 -11 21 -14zM152 339l35 2q-7 1 -21 8
t-17 7t-3 -3t6 -14zM226 374q11 0 18 1v8q-5 -3 -11 -3t-17 3t-17 3q-7 0 -13 -3q12 -9 40 -9zM431 165q8 -1 14 -7q-25 -11 -32 -11q-11 0 -15 11l5 5q4 0 14 1.5t14 0.5zM449 471q0 -5 -2 -10q-20 5 -20 15q2 0 4 12q2 9 9 7q9 -12 9 -24z" />
    <glyph glyph-name="E" unicode="e" horiz-adv-x="464" 
d="M8 66q19 60 49 85q-26 -52 -29 -90q-3 -1 -4 -1t-6 3.5t-10 2.5zM396 313q-9 1 -17 1q-12 0 -33 -4t-31 -4q-13 0 -24 4q-15 -2 -40 -2h-41q-28 -1 -44 -8q25 -100 137 -185q6 -13 50 -46q36 -26 33 -54q-2 -2 -5 -2q-1 0 -8 2.5t-11 1.5q-3 -2 -8 -7q-4 -4 -2 -10h-12
q-141 109 -223 202q-9 23 -36 69q-26 45 -37 71q2 22 16 50q2 5 5.5 11t6 11t6 11.5t5.5 11.5q43 32 122 127q78 92 127 129l18 5q14 -10 12 -22q-12 -9 -26 -40q-12 -26 -28 -28q-24 -24 -52 -72q-35 -61 -48 -78q-14 -10 -26 -19q-14 -12 -13 -27q21 4 48 4q17 0 59 -2
q37 -2 56 -2q2 -16 18 -16h7h6q13 0 18 -8q3 -3 3 -7q0 -5 -8 -13q-19 2 -44 -4q-4 -1 -19.5 -6t-24.5 -7q19 -8 53 -11q45 -4 55 -6v-21zM163 198q20 -3 24 -7q-23 36 -72 102l-14 110q-29 -25 -29 -52q0 -26 31 -70q35 -49 39 -69q5 -11 21 -14zM152 339l35 2q-7 1 -21 8
t-17 7t-3 -3t6 -14zM226 374q11 0 18 1v8q-5 -3 -11 -3t-17 3t-17 3q-7 0 -13 -3q12 -9 40 -9zM431 165q8 -1 14 -7q-25 -11 -32 -11q-11 0 -15 11l5 5q4 0 14 1.5t14 0.5zM449 471q0 -5 -2 -10q-20 5 -20 15q2 0 4 12q2 9 9 7q9 -12 9 -24z" />
    <glyph glyph-name="F" unicode="F" horiz-adv-x="442" 
d="M21 698q7 0 32 -13q-6 -5 -13 -6q-5 -2 -14 0q-12 1 -15 1l-5 5q3 13 15 13zM35 364q0 10 20 15q3 -5 3 -10q0 -12 -10 -24q-7 -2 -9 7q-2 11 -4 12zM422 698q9 0 17 -2q0 -21 -10 -24l-9 2q-42 -38 -113 -73q-58 -28 -120 -57q-43 -35 -43 -99q0 -32 11 -67q35 7 93 9
q85 2 98 3q1 -5 1 -9q0 -15 -19 -29q-26 -19 -29 -23q14 -15 12 -23q-15 -7 -40 -7h-41l-77 -10q-1 -11 -1 -23q0 -22 5 -65t5 -63q0 -42 -14 -74q2 -6 2 -12q0 -14 -20 -27q-23 -14 -26 -25l-13 15q-1 17 -1 37q0 36 4 105t4 105q0 56 -7 104q-2 14 -2 30q0 85 71 162
q48 53 144 111q15 3 58 17q35 12 60 12zM129 189q0 11 2 21q-6 -17 -7 -38q-1 -14 1 -38q1 -30 1 -38q7 15 7 35q0 8 -2 28t-2 30zM150 314q7 -3 105 26q-47 -8 -105 -21v-5zM345 221q0 -10 -4 -14q-2 4 -11.5 6.5t-9.5 9.5q0 2 1 4q8 13 14 13q10 0 10 -19zM402.5 587
q16.5 -3 17.5 -9q-5 1 -10 1t-17.5 -1.5t-16.5 -1.5q-22 0 -21 24q2 1 10 4q8 4 12 4q6 0 11 -5q-2 -13 14.5 -16z" />
    <glyph glyph-name="F" unicode="f" horiz-adv-x="442" 
d="M21 698q7 0 32 -13q-6 -5 -13 -6q-5 -2 -14 0q-12 1 -15 1l-5 5q3 13 15 13zM35 364q0 10 20 15q3 -5 3 -10q0 -12 -10 -24q-7 -2 -9 7q-2 11 -4 12zM422 698q9 0 17 -2q0 -21 -10 -24l-9 2q-42 -38 -113 -73q-58 -28 -120 -57q-43 -35 -43 -99q0 -32 11 -67q35 7 93 9
q85 2 98 3q1 -5 1 -9q0 -15 -19 -29q-26 -19 -29 -23q14 -15 12 -23q-15 -7 -40 -7h-41l-77 -10q-1 -11 -1 -23q0 -22 5 -65t5 -63q0 -42 -14 -74q2 -6 2 -12q0 -14 -20 -27q-23 -14 -26 -25l-13 15q-1 17 -1 37q0 36 4 105t4 105q0 56 -7 104q-2 14 -2 30q0 85 71 162
q48 53 144 111q15 3 58 17q35 12 60 12zM129 189q0 11 2 21q-6 -17 -7 -38q-1 -14 1 -38q1 -30 1 -38q7 15 7 35q0 8 -2 28t-2 30zM150 314q7 -3 105 26q-47 -8 -105 -21v-5zM345 221q0 -10 -4 -14q-2 4 -11.5 6.5t-9.5 9.5q0 2 1 4q8 13 14 13q10 0 10 -19zM402.5 587
q16.5 -3 17.5 -9q-5 1 -10 1t-17.5 -1.5t-16.5 -1.5q-22 0 -21 24q2 1 10 4q8 4 12 4q6 0 11 -5q-2 -13 14.5 -16z" />
    <glyph glyph-name="G" unicode="G" horiz-adv-x="616" 
d="M47.5 126q12.5 -5 16.5 -12q-4 1 -8 1q-7 0 -20 -3.5t-18 -3.5q-13 0 -17 18q8 5 21 5t25.5 -5zM510 698q6 0 13 -8q-15 -9 -32 -33q-19 -26 -27 -33q-19 -15 -44 -14q-27 -30 -101 -71q-83 -46 -110 -70q-52 -45 -52 -104q0 -15 4 -32q-3 -44 29 -80q12 -14 68 -56
q44 -34 60 -63l97 -66q-10 67 -9 167v167q4 0 10 6.5t10 5.5q3 -4 9 -16q4 -10 8 -10t11 5l20 -34q6 -47 6 -98.5t-6 -124.5q-6 -72 -11 -128q-2 -18 -25 -18q-18 0 -32 10q-62 32 -115 80q-60 54 -90 111l-37 3q-7 21 -53 80q-38 50 -38 87q0 21 10 44q69 80 173 149
q96 64 204 105q11 4 27 23q15 16 23 16zM118 343l3 65q-6 -7 -11 -14t-4 -17q0 -37 12 -34zM542 137q17 3 17 -26q-6 -3 -12 -3q-16 0 -19 15zM606 526q-2 -11 -2 -15q-17 17 -21 22q-11 14 -13 29q4 0 10.5 4t10.5 4t8 -2q8 -11 8 -26q0 -5 -1 -16z" />
    <glyph glyph-name="G" unicode="g" horiz-adv-x="616" 
d="M47.5 126q12.5 -5 16.5 -12q-4 1 -8 1q-7 0 -20 -3.5t-18 -3.5q-13 0 -17 18q8 5 21 5t25.5 -5zM510 698q6 0 13 -8q-15 -9 -32 -33q-19 -26 -27 -33q-19 -15 -44 -14q-27 -30 -101 -71q-83 -46 -110 -70q-52 -45 -52 -104q0 -15 4 -32q-3 -44 29 -80q12 -14 68 -56
q44 -34 60 -63l97 -66q-10 67 -9 167v167q4 0 10 6.5t10 5.5q3 -4 9 -16q4 -10 8 -10t11 5l20 -34q6 -47 6 -98.5t-6 -124.5q-6 -72 -11 -128q-2 -18 -25 -18q-18 0 -32 10q-62 32 -115 80q-60 54 -90 111l-37 3q-7 21 -53 80q-38 50 -38 87q0 21 10 44q69 80 173 149
q96 64 204 105q11 4 27 23q15 16 23 16zM118 343l3 65q-6 -7 -11 -14t-4 -17q0 -37 12 -34zM542 137q17 3 17 -26q-6 -3 -12 -3q-16 0 -19 15zM606 526q-2 -11 -2 -15q-17 17 -21 22q-11 14 -13 29q4 0 10.5 4t10.5 4t8 -2q8 -11 8 -26q0 -5 -1 -16z" />
    <glyph glyph-name="H" unicode="H" horiz-adv-x="486" 
d="M37 521q5 -1 12 -4q2 -12 -9 -21q-7 -5 -19 -12l-4 4l15 12l-9 9q4 12 14 12zM450 644.5q4 -4.5 8 -3.5q-1 -6 -21 -65q-13 -39 -13 -69q14 -80 14 -171q0 -49 -9 -132q-12 -96 -14 -132v-41q-4 -25 -21 -31q-11 1 -12 15t-10 16q-5 31 -5 65q0 51 13 136q15 102 18 139
q1 6 1 10q0 19 -25 19q-5 0 -16.5 -1t-16.5 -1q-16 0 -23 6q-13 -6 -17 -25q-2 -7 -3 -34q-12 -33 -58 -37q-29 9 -29 47q0 4 3 32q-55 11 -97 -2q-10 -50 -10 -111q0 -32 4 -98t4 -101q-8 -38 -23 -38q-4 0 -10 3q-15 124 -15 178q0 31 3.5 93t3.5 94q0 105 -14 196l22 97
q29 2 29 -23q0 -4 -1.5 -16t-1.5 -17q0 -23 19 -29q-19 -31 -19 -76q0 -16 5 -59q4 -38 2 -60q14 -6 34 -6q12 0 36.5 3.5t36.5 3.5q7 0 13 -1q10 -9 10 -22q0 -3 -8 -35q-5 -20 5 -30q28 10 35 44q1 9 4 28t4 29q43 -12 68 -12q28 0 45 12q1 13 1 25q0 31 -7.5 91t-7.5 90
q0 32 6 60q19 -7 22 -36q4 -36 9 -45q5 0 12 9.5t4 16.5q4 6 7 6q2 0 6 -4.5zM157 163q7 0 11 -15q-11 -17 -39 -12q20 27 28 27zM295 618q7 0 13 -8q-3 -16 -26 -18q-34 -2 -35 -2l1 2q10 -3 25 11.5t22 14.5z" />
    <glyph glyph-name="H" unicode="h" horiz-adv-x="486" 
d="M37 521q5 -1 12 -4q2 -12 -9 -21q-7 -5 -19 -12l-4 4l15 12l-9 9q4 12 14 12zM450 644.5q4 -4.5 8 -3.5q-1 -6 -21 -65q-13 -39 -13 -69q14 -80 14 -171q0 -49 -9 -132q-12 -96 -14 -132v-41q-4 -25 -21 -31q-11 1 -12 15t-10 16q-5 31 -5 65q0 51 13 136q15 102 18 139
q1 6 1 10q0 19 -25 19q-5 0 -16.5 -1t-16.5 -1q-16 0 -23 6q-13 -6 -17 -25q-2 -7 -3 -34q-12 -33 -58 -37q-29 9 -29 47q0 4 3 32q-55 11 -97 -2q-10 -50 -10 -111q0 -32 4 -98t4 -101q-8 -38 -23 -38q-4 0 -10 3q-15 124 -15 178q0 31 3.5 93t3.5 94q0 105 -14 196l22 97
q29 2 29 -23q0 -4 -1.5 -16t-1.5 -17q0 -23 19 -29q-19 -31 -19 -76q0 -16 5 -59q4 -38 2 -60q14 -6 34 -6q12 0 36.5 3.5t36.5 3.5q7 0 13 -1q10 -9 10 -22q0 -3 -8 -35q-5 -20 5 -30q28 10 35 44q1 9 4 28t4 29q43 -12 68 -12q28 0 45 12q1 13 1 25q0 31 -7.5 91t-7.5 90
q0 32 6 60q19 -7 22 -36q4 -36 9 -45q5 0 12 9.5t4 16.5q4 6 7 6q2 0 6 -4.5zM157 163q7 0 11 -15q-11 -17 -39 -12q20 27 28 27zM295 618q7 0 13 -8q-3 -16 -26 -18q-34 -2 -35 -2l1 2q10 -3 25 11.5t22 14.5z" />
    <glyph glyph-name="I" unicode="I" horiz-adv-x="287" 
d="M25 103l12 -42q-2 -8 -14 -8q-6 0 -13 1h1q8 7 8 31q1 11 6 18zM37 398q8 -6 10 -7q0 -11 -3 -11q-6 -5 -16 -5q-12 0 -13 7h8q2 2 2 19q5 0 12 -3zM160 465q9 -198 9 -208q2 -31 -3 -92q-6 -65 -6 -94q0 -31 4 -56q-2 1 -6 1q-5 0 -16.5 -8t-18.5 -8t-12 5q4 30 -1 81
q-6 65 -6 83q0 37 9 66q0 16 -1 52q-1 34 -1 53q0 80 22 132l-10 98q-2 8 -16 45q-10 28 -10 45q0 23 19 38q12 -5 39 -28q0 -79 5 -205zM215 375q2 12 14 9q11 -7 11 -16q0 -6 -10.5 -19.5t-10.5 -20.5q-12 -1 -12 10q0 4 1 13q2 7 1 9q3 1 6 15zM256 110q0 -6 -3 -9
q-13 0 -17 6v14q0 7 7 9l5 -3q8 -6 8 -17zM255 600l15 -15q0 -10 -11 -15q-15 -6 -16 -7q-4 24 12 37z" />
    <glyph glyph-name="I" unicode="&#xef;" horiz-adv-x="287" 
d="M25 103l12 -42q-2 -8 -14 -8q-6 0 -13 1h1q8 7 8 31q1 11 6 18zM37 398q8 -6 10 -7q0 -11 -3 -11q-6 -5 -16 -5q-12 0 -13 7h8q2 2 2 19q5 0 12 -3zM160 465q9 -198 9 -208q2 -31 -3 -92q-6 -65 -6 -94q0 -31 4 -56q-2 1 -6 1q-5 0 -16.5 -8t-18.5 -8t-12 5q4 30 -1 81
q-6 65 -6 83q0 37 9 66q0 16 -1 52q-1 34 -1 53q0 80 22 132l-10 98q-2 8 -16 45q-10 28 -10 45q0 23 19 38q12 -5 39 -28q0 -79 5 -205zM215 375q2 12 14 9q11 -7 11 -16q0 -6 -10.5 -19.5t-10.5 -20.5q-12 -1 -12 10q0 4 1 13q2 7 1 9q3 1 6 15zM256 110q0 -6 -3 -9
q-13 0 -17 6v14q0 7 7 9l5 -3q8 -6 8 -17zM255 600l15 -15q0 -10 -11 -15q-15 -6 -16 -7q-4 24 12 37z" />
    <glyph glyph-name="I" unicode="&#xee;" horiz-adv-x="287" 
d="M25 103l12 -42q-2 -8 -14 -8q-6 0 -13 1h1q8 7 8 31q1 11 6 18zM37 398q8 -6 10 -7q0 -11 -3 -11q-6 -5 -16 -5q-12 0 -13 7h8q2 2 2 19q5 0 12 -3zM160 465q9 -198 9 -208q2 -31 -3 -92q-6 -65 -6 -94q0 -31 4 -56q-2 1 -6 1q-5 0 -16.5 -8t-18.5 -8t-12 5q4 30 -1 81
q-6 65 -6 83q0 37 9 66q0 16 -1 52q-1 34 -1 53q0 80 22 132l-10 98q-2 8 -16 45q-10 28 -10 45q0 23 19 38q12 -5 39 -28q0 -79 5 -205zM215 375q2 12 14 9q11 -7 11 -16q0 -6 -10.5 -19.5t-10.5 -20.5q-12 -1 -12 10q0 4 1 13q2 7 1 9q3 1 6 15zM256 110q0 -6 -3 -9
q-13 0 -17 6v14q0 7 7 9l5 -3q8 -6 8 -17zM255 600l15 -15q0 -10 -11 -15q-15 -6 -16 -7q-4 24 12 37z" />
    <glyph glyph-name="I" unicode="&#xed;" horiz-adv-x="287" 
d="M25 103l12 -42q-2 -8 -14 -8q-6 0 -13 1h1q8 7 8 31q1 11 6 18zM37 398q8 -6 10 -7q0 -11 -3 -11q-6 -5 -16 -5q-12 0 -13 7h8q2 2 2 19q5 0 12 -3zM160 465q9 -198 9 -208q2 -31 -3 -92q-6 -65 -6 -94q0 -31 4 -56q-2 1 -6 1q-5 0 -16.5 -8t-18.5 -8t-12 5q4 30 -1 81
q-6 65 -6 83q0 37 9 66q0 16 -1 52q-1 34 -1 53q0 80 22 132l-10 98q-2 8 -16 45q-10 28 -10 45q0 23 19 38q12 -5 39 -28q0 -79 5 -205zM215 375q2 12 14 9q11 -7 11 -16q0 -6 -10.5 -19.5t-10.5 -20.5q-12 -1 -12 10q0 4 1 13q2 7 1 9q3 1 6 15zM256 110q0 -6 -3 -9
q-13 0 -17 6v14q0 7 7 9l5 -3q8 -6 8 -17zM255 600l15 -15q0 -10 -11 -15q-15 -6 -16 -7q-4 24 12 37z" />
    <glyph glyph-name="I" unicode="&#xec;" horiz-adv-x="287" 
d="M25 103l12 -42q-2 -8 -14 -8q-6 0 -13 1h1q8 7 8 31q1 11 6 18zM37 398q8 -6 10 -7q0 -11 -3 -11q-6 -5 -16 -5q-12 0 -13 7h8q2 2 2 19q5 0 12 -3zM160 465q9 -198 9 -208q2 -31 -3 -92q-6 -65 -6 -94q0 -31 4 -56q-2 1 -6 1q-5 0 -16.5 -8t-18.5 -8t-12 5q4 30 -1 81
q-6 65 -6 83q0 37 9 66q0 16 -1 52q-1 34 -1 53q0 80 22 132l-10 98q-2 8 -16 45q-10 28 -10 45q0 23 19 38q12 -5 39 -28q0 -79 5 -205zM215 375q2 12 14 9q11 -7 11 -16q0 -6 -10.5 -19.5t-10.5 -20.5q-12 -1 -12 10q0 4 1 13q2 7 1 9q3 1 6 15zM256 110q0 -6 -3 -9
q-13 0 -17 6v14q0 7 7 9l5 -3q8 -6 8 -17zM255 600l15 -15q0 -10 -11 -15q-15 -6 -16 -7q-4 24 12 37z" />
    <glyph glyph-name="I" unicode="&#xcf;" horiz-adv-x="287" 
d="M25 103l12 -42q-2 -8 -14 -8q-6 0 -13 1h1q8 7 8 31q1 11 6 18zM37 398q8 -6 10 -7q0 -11 -3 -11q-6 -5 -16 -5q-12 0 -13 7h8q2 2 2 19q5 0 12 -3zM160 465q9 -198 9 -208q2 -31 -3 -92q-6 -65 -6 -94q0 -31 4 -56q-2 1 -6 1q-5 0 -16.5 -8t-18.5 -8t-12 5q4 30 -1 81
q-6 65 -6 83q0 37 9 66q0 16 -1 52q-1 34 -1 53q0 80 22 132l-10 98q-2 8 -16 45q-10 28 -10 45q0 23 19 38q12 -5 39 -28q0 -79 5 -205zM215 375q2 12 14 9q11 -7 11 -16q0 -6 -10.5 -19.5t-10.5 -20.5q-12 -1 -12 10q0 4 1 13q2 7 1 9q3 1 6 15zM256 110q0 -6 -3 -9
q-13 0 -17 6v14q0 7 7 9l5 -3q8 -6 8 -17zM255 600l15 -15q0 -10 -11 -15q-15 -6 -16 -7q-4 24 12 37z" />
    <glyph glyph-name="I" unicode="&#xce;" horiz-adv-x="287" 
d="M25 103l12 -42q-2 -8 -14 -8q-6 0 -13 1h1q8 7 8 31q1 11 6 18zM37 398q8 -6 10 -7q0 -11 -3 -11q-6 -5 -16 -5q-12 0 -13 7h8q2 2 2 19q5 0 12 -3zM160 465q9 -198 9 -208q2 -31 -3 -92q-6 -65 -6 -94q0 -31 4 -56q-2 1 -6 1q-5 0 -16.5 -8t-18.5 -8t-12 5q4 30 -1 81
q-6 65 -6 83q0 37 9 66q0 16 -1 52q-1 34 -1 53q0 80 22 132l-10 98q-2 8 -16 45q-10 28 -10 45q0 23 19 38q12 -5 39 -28q0 -79 5 -205zM215 375q2 12 14 9q11 -7 11 -16q0 -6 -10.5 -19.5t-10.5 -20.5q-12 -1 -12 10q0 4 1 13q2 7 1 9q3 1 6 15zM256 110q0 -6 -3 -9
q-13 0 -17 6v14q0 7 7 9l5 -3q8 -6 8 -17zM255 600l15 -15q0 -10 -11 -15q-15 -6 -16 -7q-4 24 12 37z" />
    <glyph glyph-name="I" unicode="&#xcd;" horiz-adv-x="287" 
d="M25 103l12 -42q-2 -8 -14 -8q-6 0 -13 1h1q8 7 8 31q1 11 6 18zM37 398q8 -6 10 -7q0 -11 -3 -11q-6 -5 -16 -5q-12 0 -13 7h8q2 2 2 19q5 0 12 -3zM160 465q9 -198 9 -208q2 -31 -3 -92q-6 -65 -6 -94q0 -31 4 -56q-2 1 -6 1q-5 0 -16.5 -8t-18.5 -8t-12 5q4 30 -1 81
q-6 65 -6 83q0 37 9 66q0 16 -1 52q-1 34 -1 53q0 80 22 132l-10 98q-2 8 -16 45q-10 28 -10 45q0 23 19 38q12 -5 39 -28q0 -79 5 -205zM215 375q2 12 14 9q11 -7 11 -16q0 -6 -10.5 -19.5t-10.5 -20.5q-12 -1 -12 10q0 4 1 13q2 7 1 9q3 1 6 15zM256 110q0 -6 -3 -9
q-13 0 -17 6v14q0 7 7 9l5 -3q8 -6 8 -17zM255 600l15 -15q0 -10 -11 -15q-15 -6 -16 -7q-4 24 12 37z" />
    <glyph glyph-name="I" unicode="&#xcc;" horiz-adv-x="287" 
d="M25 103l12 -42q-2 -8 -14 -8q-6 0 -13 1h1q8 7 8 31q1 11 6 18zM37 398q8 -6 10 -7q0 -11 -3 -11q-6 -5 -16 -5q-12 0 -13 7h8q2 2 2 19q5 0 12 -3zM160 465q9 -198 9 -208q2 -31 -3 -92q-6 -65 -6 -94q0 -31 4 -56q-2 1 -6 1q-5 0 -16.5 -8t-18.5 -8t-12 5q4 30 -1 81
q-6 65 -6 83q0 37 9 66q0 16 -1 52q-1 34 -1 53q0 80 22 132l-10 98q-2 8 -16 45q-10 28 -10 45q0 23 19 38q12 -5 39 -28q0 -79 5 -205zM215 375q2 12 14 9q11 -7 11 -16q0 -6 -10.5 -19.5t-10.5 -20.5q-12 -1 -12 10q0 4 1 13q2 7 1 9q3 1 6 15zM256 110q0 -6 -3 -9
q-13 0 -17 6v14q0 7 7 9l5 -3q8 -6 8 -17zM255 600l15 -15q0 -10 -11 -15q-15 -6 -16 -7q-4 24 12 37z" />
    <glyph glyph-name="I" unicode="i" horiz-adv-x="287" 
d="M25 103l12 -42q-2 -8 -14 -8q-6 0 -13 1h1q8 7 8 31q1 11 6 18zM37 398q8 -6 10 -7q0 -11 -3 -11q-6 -5 -16 -5q-12 0 -13 7h8q2 2 2 19q5 0 12 -3zM160 465q9 -198 9 -208q2 -31 -3 -92q-6 -65 -6 -94q0 -31 4 -56q-2 1 -6 1q-5 0 -16.5 -8t-18.5 -8t-12 5q4 30 -1 81
q-6 65 -6 83q0 37 9 66q0 16 -1 52q-1 34 -1 53q0 80 22 132l-10 98q-2 8 -16 45q-10 28 -10 45q0 23 19 38q12 -5 39 -28q0 -79 5 -205zM215 375q2 12 14 9q11 -7 11 -16q0 -6 -10.5 -19.5t-10.5 -20.5q-12 -1 -12 10q0 4 1 13q2 7 1 9q3 1 6 15zM256 110q0 -6 -3 -9
q-13 0 -17 6v14q0 7 7 9l5 -3q8 -6 8 -17zM255 600l15 -15q0 -10 -11 -15q-15 -6 -16 -7q-4 24 12 37z" />
    <glyph glyph-name="J" unicode="J" horiz-adv-x="298" 
d="M38 405q3 0 6 -2q-3 0 -6 2q-4 0 -9.5 -6t-11.5 -5q-1 4 -4 11q-2 7 -2 11q0 8 13 11q3 -9 14 -22zM161.5 686.5q11.5 -11.5 13.5 -26.5q1 -30 1 -61q0 -61 -4.5 -185t-4.5 -184q0 -33 1 -62q-11 -67 -19 -88q-17 -49 -56 -66q-9 0 -27.5 -7t-27.5 -7q-7 0 -14 4
q4 6 4 14q0 6 -5 20.5t-5 21.5q0 16 24 22q7 5 22 10q15 6 20 9q2 -5 2 -10q0 -9 -12.5 -21.5t-15.5 -20.5q3 2 20 7q14 4 14 15q0 2 -1 6q36 59 36 160q0 42 -8 122q-15 147 -15 204q0 66 10 121q9 14 23 14q13 0 24.5 -11.5zM218.5 172q12.5 0 19.5 -9q-19 -8 -23 -8
q-7 0 -14 6q5 11 17.5 11zM280 490q9 0 16 5q2 -7 -4 -8q-8 -1 -10 -2q-1 0 -6 3q-4 3 -5 0t-17.5 -7t-16.5 -16q0 -2 1 -5l-23 25q7 15 19 15q7 0 22 -5t24 -5z" />
    <glyph glyph-name="J" unicode="j" horiz-adv-x="298" 
d="M38 405q3 0 6 -2q-3 0 -6 2q-4 0 -9.5 -6t-11.5 -5q-1 4 -4 11q-2 7 -2 11q0 8 13 11q3 -9 14 -22zM161.5 686.5q11.5 -11.5 13.5 -26.5q1 -30 1 -61q0 -61 -4.5 -185t-4.5 -184q0 -33 1 -62q-11 -67 -19 -88q-17 -49 -56 -66q-9 0 -27.5 -7t-27.5 -7q-7 0 -14 4
q4 6 4 14q0 6 -5 20.5t-5 21.5q0 16 24 22q7 5 22 10q15 6 20 9q2 -5 2 -10q0 -9 -12.5 -21.5t-15.5 -20.5q3 2 20 7q14 4 14 15q0 2 -1 6q36 59 36 160q0 42 -8 122q-15 147 -15 204q0 66 10 121q9 14 23 14q13 0 24.5 -11.5zM218.5 172q12.5 0 19.5 -9q-19 -8 -23 -8
q-7 0 -14 6q5 11 17.5 11zM280 490q9 0 16 5q2 -7 -4 -8q-8 -1 -10 -2q-1 0 -6 3q-4 3 -5 0t-17.5 -7t-16.5 -16q0 -2 1 -5l-23 25q7 15 19 15q7 0 22 -5t24 -5z" />
    <glyph glyph-name="K" unicode="K" horiz-adv-x="477" 
d="M26 528q3 0 21 -7q-6 -8 -17 -8q-12 0 -17 10q6 5 13 5zM122 49q0 -25 -6 -49q-16 4 -16 26v12q1 9 1 12q0 9 -3 15q-5 -5 -5 -11v-9q-1 -4 -9 -4q-2 3 -8 8.5t-6 10.5v5q9 120 9 203q0 76 -7 141q-9 89 -9 100q0 14 1 25q-6 23 -6 50q0 9 12 114h11q10 -10 10 -15
q0 -2 -1 -5q13 -3 16 -14q0 -11 0.5 -21.5t6.5 -16.5q7 -185 7 -266q0 -83 -4 -140q-7 -22 -7 -47q0 -20 7 -61q6 -40 6 -63zM178 121q3 -6 2 -11q-2 -16 -18 -16q-11 0 -12 11q2 2 9 16q6 10 14 12q1 -1 5 -12zM462 82q0 -2 -2 -7q-4 3 -8 3q-11 0 -16 -13q-29 34 -134 132
q-87 82 -126 139q9 64 50 129q32 48 92 110l99 99l17 6q6 -6 14 -12q9 -9 10 -18q-83 -81 -124 -121q-73 -74 -113 -133l8 -53q14 -44 54 -83q40 -33 77 -65q48 -41 70 -81q2 -7 17 -15t15 -17zM203 355q-2 -27 22 -56q-1 16 -22 56zM242.5 635.5q6.5 -2.5 10.5 -2.5
q1 -5 1 -8q0 -10 -9 -10q-18 0 -20 16q2 7 8 7q3 0 9.5 -2.5zM419 373v-30q-6 -3 -11.5 1.5t-5.5 10.5q2 2 7 11q4 7 10 7z" />
    <glyph glyph-name="K" unicode="k" horiz-adv-x="477" 
d="M26 528q3 0 21 -7q-6 -8 -17 -8q-12 0 -17 10q6 5 13 5zM122 49q0 -25 -6 -49q-16 4 -16 26v12q1 9 1 12q0 9 -3 15q-5 -5 -5 -11v-9q-1 -4 -9 -4q-2 3 -8 8.5t-6 10.5v5q9 120 9 203q0 76 -7 141q-9 89 -9 100q0 14 1 25q-6 23 -6 50q0 9 12 114h11q10 -10 10 -15
q0 -2 -1 -5q13 -3 16 -14q0 -11 0.5 -21.5t6.5 -16.5q7 -185 7 -266q0 -83 -4 -140q-7 -22 -7 -47q0 -20 7 -61q6 -40 6 -63zM178 121q3 -6 2 -11q-2 -16 -18 -16q-11 0 -12 11q2 2 9 16q6 10 14 12q1 -1 5 -12zM462 82q0 -2 -2 -7q-4 3 -8 3q-11 0 -16 -13q-29 34 -134 132
q-87 82 -126 139q9 64 50 129q32 48 92 110l99 99l17 6q6 -6 14 -12q9 -9 10 -18q-83 -81 -124 -121q-73 -74 -113 -133l8 -53q14 -44 54 -83q40 -33 77 -65q48 -41 70 -81q2 -7 17 -15t15 -17zM203 355q-2 -27 22 -56q-1 16 -22 56zM242.5 635.5q6.5 -2.5 10.5 -2.5
q1 -5 1 -8q0 -10 -9 -10q-18 0 -20 16q2 7 8 7q3 0 9.5 -2.5zM419 373v-30q-6 -3 -11.5 1.5t-5.5 10.5q2 2 7 11q4 7 10 7z" />
    <glyph glyph-name="L" unicode="L" horiz-adv-x="448" 
d="M30 324q-7 0 -12.5 9.5t-7.5 10.5q0 8 6 12.5t14 2.5v-35zM417 96q22 -7 34 -7q1 -4 1 -7q0 -15 -23 -18q-28 -4 -34 -12q-16 5 -32 5q-22 0 -61 -11q-44 -11 -65 -13q-7 -4 -16 -4q-11 0 -33.5 9t-33.5 9q-18 0 -29 -24q-4 1 -7 1q-7 0 -12 -12t-11 -12q-5 0 -12 4
q2 29 11 80q8 49 8 77q0 23 -4 45q9 10 9 23q0 9 -7.5 30t-6.5 32q-24 143 -24 211q0 82 24 156q4 11 21.5 25.5t28.5 14.5q9 0 9 -12q0 -9 -5 -25l-8 -8q-21 -40 -21 -90q0 -32 13 -98q13 -67 13 -103q0 -16 -4.5 -46.5t-4.5 -47.5q0 -23 5 -67q5 -45 5 -68q0 -29 -6 -56
q77 8 227 22q8 4 18.5 4t32.5 -7zM96 450q0 -33 10 -54l-8 77q-2 -11 -2 -23zM239 403v-10q-5 -2 -10 -2q-18 0 -36 29q0 5 1 16q1 6 6 6h5q3 -4 12 -26q6 -15 22 -13zM326 664q7 0 11 -18l-3 -24q-11 2 -10 19.5t-4 21.5q3 1 6 1z" />
    <glyph glyph-name="L" unicode="l" horiz-adv-x="448" 
d="M30 324q-7 0 -12.5 9.5t-7.5 10.5q0 8 6 12.5t14 2.5v-35zM417 96q22 -7 34 -7q1 -4 1 -7q0 -15 -23 -18q-28 -4 -34 -12q-16 5 -32 5q-22 0 -61 -11q-44 -11 -65 -13q-7 -4 -16 -4q-11 0 -33.5 9t-33.5 9q-18 0 -29 -24q-4 1 -7 1q-7 0 -12 -12t-11 -12q-5 0 -12 4
q2 29 11 80q8 49 8 77q0 23 -4 45q9 10 9 23q0 9 -7.5 30t-6.5 32q-24 143 -24 211q0 82 24 156q4 11 21.5 25.5t28.5 14.5q9 0 9 -12q0 -9 -5 -25l-8 -8q-21 -40 -21 -90q0 -32 13 -98q13 -67 13 -103q0 -16 -4.5 -46.5t-4.5 -47.5q0 -23 5 -67q5 -45 5 -68q0 -29 -6 -56
q77 8 227 22q8 4 18.5 4t32.5 -7zM96 450q0 -33 10 -54l-8 77q-2 -11 -2 -23zM239 403v-10q-5 -2 -10 -2q-18 0 -36 29q0 5 1 16q1 6 6 6h5q3 -4 12 -26q6 -15 22 -13zM326 664q7 0 11 -18l-3 -24q-11 2 -10 19.5t-4 21.5q3 1 6 1z" />
    <glyph glyph-name="M" unicode="M" horiz-adv-x="538" 
d="M494 651q-3 -85 7 -168q-16 -82 -16 -206q0 -35 1 -107t1 -104l-10 -31q-3 -1 -5 -1q-6 0 -10 7q-2 1 -4.5 4.5t-2.5 4.5q-10 43 -12 120q-3 95 -6 121l6 35q-4 26 0 107q3 65 -15 105q-4 -40 -38 -75q-5 -6 -66 -58q-1 0 -23 -48q-13 -28 -34 -28q-14 24 -74 97
q-48 59 -63 106q-11 0 -16 10q-5 13 -10 16l-5 -5q11 -37 11 -78q0 -37 -11 -94q-14 -81 -16 -95q-3 -27 -3 -67q0 -14 1 -40v-39q0 -69 -13 -112q-2 -3 -4 -3q-3 0 -11 8q-17 172 -17 265q0 114 19 207q6 16 9 62q2 38 15 55q11 -16 52 -57q36 -35 45 -58q19 -18 43 -59
q30 -52 39 -64q21 14 34 44q10 27 19 55q48 41 51 44q27 28 28 60q5 15 17 15q10 0 21 -11q18 8 33 33q21 39 22 40zM74 389q0 13 -6 23q-8 -21 -6 -92q0 12 6 35t6 34zM191 387q9 -5 8 -12q0 -14 -18 -14q0 10 -10 17t-10 14q12 6 15 5q2 -3 15 -10zM203 167q12 0 15 -18
q-17 -5 -50 -13v11q24 20 35 20zM176 481q7 -12 23 -40q-3 21 -23 40zM231 638l14 -14l-16 -13q4 4 0 11q-5 8 -5 10q0 4 7 6zM314 675q5 -5 4 -9q0 -13 -11 -10q-6 -1 -8.5 2.5t-2.5 11.5q0 10 7 10q6 0 11 -5zM359 473q20 16 29 34l-40 -27q-25 -17 -26 -39q14 12 37 32z
M382 169q8 -6 6 -11q-3 0 -9 -4q-8 -5 -12 -5t-7 2v12q-2 4 2.5 8.5t10.5 4.5q1 -1 9 -7zM464 467l2 111l-16 -14z" />
    <glyph glyph-name="M" unicode="m" horiz-adv-x="538" 
d="M494 651q-3 -85 7 -168q-16 -82 -16 -206q0 -35 1 -107t1 -104l-10 -31q-3 -1 -5 -1q-6 0 -10 7q-2 1 -4.5 4.5t-2.5 4.5q-10 43 -12 120q-3 95 -6 121l6 35q-4 26 0 107q3 65 -15 105q-4 -40 -38 -75q-5 -6 -66 -58q-1 0 -23 -48q-13 -28 -34 -28q-14 24 -74 97
q-48 59 -63 106q-11 0 -16 10q-5 13 -10 16l-5 -5q11 -37 11 -78q0 -37 -11 -94q-14 -81 -16 -95q-3 -27 -3 -67q0 -14 1 -40v-39q0 -69 -13 -112q-2 -3 -4 -3q-3 0 -11 8q-17 172 -17 265q0 114 19 207q6 16 9 62q2 38 15 55q11 -16 52 -57q36 -35 45 -58q19 -18 43 -59
q30 -52 39 -64q21 14 34 44q10 27 19 55q48 41 51 44q27 28 28 60q5 15 17 15q10 0 21 -11q18 8 33 33q21 39 22 40zM74 389q0 13 -6 23q-8 -21 -6 -92q0 12 6 35t6 34zM191 387q9 -5 8 -12q0 -14 -18 -14q0 10 -10 17t-10 14q12 6 15 5q2 -3 15 -10zM203 167q12 0 15 -18
q-17 -5 -50 -13v11q24 20 35 20zM176 481q7 -12 23 -40q-3 21 -23 40zM231 638l14 -14l-16 -13q4 4 0 11q-5 8 -5 10q0 4 7 6zM314 675q5 -5 4 -9q0 -13 -11 -10q-6 -1 -8.5 2.5t-2.5 11.5q0 10 7 10q6 0 11 -5zM359 473q20 16 29 34l-40 -27q-25 -17 -26 -39q14 12 37 32z
M382 169q8 -6 6 -11q-3 0 -9 -4q-8 -5 -12 -5t-7 2v12q-2 4 2.5 8.5t10.5 4.5q1 -1 9 -7zM464 467l2 111l-16 -14z" />
    <glyph glyph-name="N" unicode="N" horiz-adv-x="633" 
d="M47 562q0 -4 -1 -7l-2 -15q-2 6 -12 14.5t-10 14.5q0 4 4 10q4 1 7 1q14 0 14 -18zM539 428q0 -94 24 -155q-8 -31 -8 -97t-9 -99q12 -10 12 -20q0 -9 -15 -25q-17 -17 -19 -26q-19 0 -14 20q-14 18 -70 74q-44 43 -59 84q-9 59 -51 75q-9 1 -28 8.5t-28 7.5q-5 0 -10 -2
q2 22 32 50t30 46q0 14 -11 30q-12 10 -22 10q-16 0 -34 -24.5t-26 -24.5q-9 0 -20 15l-5 -7q-12 14 -21 44l-8.5 25.5l-8.5 25.5q-16 16 -31 52q-17 42 -28 56q-17 -148 -17 -236q0 -97 17 -181q-3 -34 -7 -67q-5 -41 -24 -61q-5 8 -13 8q-16 0 -21 -16q25 113 22 190
q-6 36 -6 75q0 8 8 136q-9 39 -8 104q3 83 1 104q7 3 13 20q7 15 17 15q3 0 6 -1q5 -23 32 -46q29 -26 36 -44q31 -54 33 -58q15 -31 23 -63q29 33 30 33q19 17 40 16q18 -10 27 -30q3 -7 12 -36q9 -11 43 -26q27 -11 30 -35q3 -22 -15 -46q-14 -19 -29 -39q47 -82 141 -133
l8 10q9 52 9 115q0 40 -6 120q-5 80 -5 119q0 15 2 44.5t2 44.5q0 10 -1 32q-2 23 -2 33q0 14 3 26q10 6 14 6q7 0 7 -13q0 -1 -1 -7v-7q0 -14 6 -19q-1 -3 -1 -6q0 -10 13 -19.5t13 -13.5q0 -6 -15 -14q0 -8 -6 -86q-3 -54 -3 -91zM124 89q5 -6 7 -7q1 -4 1 -7q0 -6 -9 -9
q-12 -4 -15 -7l3 35q2 1 4 1q4 0 9 -6zM190 161l21 -26q-9 -13 -22 -10q-6 4 -6 10q0 4 4.5 11t4.5 10q0 2 -2 5zM245 402q24 36 60 43l-23 25l-37 -22q-10 -29 -10 -32q0 -9 10 -14zM305 606q19 -3 25 -17q-4 -6 -9.5 -11t-12.5 -4q-6 9 -15 20q-7 10 -19 12v7q3 -3 31 -7z
M341 309q20 10 28 27q6 9 6 19q0 13 -9 21t-22 8q2 -2 1.5 -11t3.5 -12q0 -18 -20.5 -35t-20.5 -31q18 7 33 14zM332.5 25.5q2.5 -3.5 4.5 -4.5q2 -7 -5 -12t-17 -3q1 1 0 14q-1 9 6 9q1 0 4 -1q2 1 3 1q2 0 4.5 -3.5zM457 126q16 -21 35 -30q0 22 -20 40q-7 7 -41 28
q20 -31 26 -38zM619 228.5q4 -3.5 4 -7.5q0 -6 -5.5 -11.5t-10.5 -5.5q-9 0 -9 12q0 17 12 14q5 2 9 -1.5z" />
    <glyph glyph-name="N" unicode="&#xf1;" horiz-adv-x="633" 
d="M47 562q0 -4 -1 -7l-2 -15q-2 6 -12 14.5t-10 14.5q0 4 4 10q4 1 7 1q14 0 14 -18zM539 428q0 -94 24 -155q-8 -31 -8 -97t-9 -99q12 -10 12 -20q0 -9 -15 -25q-17 -17 -19 -26q-19 0 -14 20q-14 18 -70 74q-44 43 -59 84q-9 59 -51 75q-9 1 -28 8.5t-28 7.5q-5 0 -10 -2
q2 22 32 50t30 46q0 14 -11 30q-12 10 -22 10q-16 0 -34 -24.5t-26 -24.5q-9 0 -20 15l-5 -7q-12 14 -21 44l-8.5 25.5l-8.5 25.5q-16 16 -31 52q-17 42 -28 56q-17 -148 -17 -236q0 -97 17 -181q-3 -34 -7 -67q-5 -41 -24 -61q-5 8 -13 8q-16 0 -21 -16q25 113 22 190
q-6 36 -6 75q0 8 8 136q-9 39 -8 104q3 83 1 104q7 3 13 20q7 15 17 15q3 0 6 -1q5 -23 32 -46q29 -26 36 -44q31 -54 33 -58q15 -31 23 -63q29 33 30 33q19 17 40 16q18 -10 27 -30q3 -7 12 -36q9 -11 43 -26q27 -11 30 -35q3 -22 -15 -46q-14 -19 -29 -39q47 -82 141 -133
l8 10q9 52 9 115q0 40 -6 120q-5 80 -5 119q0 15 2 44.5t2 44.5q0 10 -1 32q-2 23 -2 33q0 14 3 26q10 6 14 6q7 0 7 -13q0 -1 -1 -7v-7q0 -14 6 -19q-1 -3 -1 -6q0 -10 13 -19.5t13 -13.5q0 -6 -15 -14q0 -8 -6 -86q-3 -54 -3 -91zM124 89q5 -6 7 -7q1 -4 1 -7q0 -6 -9 -9
q-12 -4 -15 -7l3 35q2 1 4 1q4 0 9 -6zM190 161l21 -26q-9 -13 -22 -10q-6 4 -6 10q0 4 4.5 11t4.5 10q0 2 -2 5zM245 402q24 36 60 43l-23 25l-37 -22q-10 -29 -10 -32q0 -9 10 -14zM305 606q19 -3 25 -17q-4 -6 -9.5 -11t-12.5 -4q-6 9 -15 20q-7 10 -19 12v7q3 -3 31 -7z
M341 309q20 10 28 27q6 9 6 19q0 13 -9 21t-22 8q2 -2 1.5 -11t3.5 -12q0 -18 -20.5 -35t-20.5 -31q18 7 33 14zM332.5 25.5q2.5 -3.5 4.5 -4.5q2 -7 -5 -12t-17 -3q1 1 0 14q-1 9 6 9q1 0 4 -1q2 1 3 1q2 0 4.5 -3.5zM457 126q16 -21 35 -30q0 22 -20 40q-7 7 -41 28
q20 -31 26 -38zM619 228.5q4 -3.5 4 -7.5q0 -6 -5.5 -11.5t-10.5 -5.5q-9 0 -9 12q0 17 12 14q5 2 9 -1.5z" />
    <glyph glyph-name="N" unicode="&#xd1;" horiz-adv-x="633" 
d="M47 562q0 -4 -1 -7l-2 -15q-2 6 -12 14.5t-10 14.5q0 4 4 10q4 1 7 1q14 0 14 -18zM539 428q0 -94 24 -155q-8 -31 -8 -97t-9 -99q12 -10 12 -20q0 -9 -15 -25q-17 -17 -19 -26q-19 0 -14 20q-14 18 -70 74q-44 43 -59 84q-9 59 -51 75q-9 1 -28 8.5t-28 7.5q-5 0 -10 -2
q2 22 32 50t30 46q0 14 -11 30q-12 10 -22 10q-16 0 -34 -24.5t-26 -24.5q-9 0 -20 15l-5 -7q-12 14 -21 44l-8.5 25.5l-8.5 25.5q-16 16 -31 52q-17 42 -28 56q-17 -148 -17 -236q0 -97 17 -181q-3 -34 -7 -67q-5 -41 -24 -61q-5 8 -13 8q-16 0 -21 -16q25 113 22 190
q-6 36 -6 75q0 8 8 136q-9 39 -8 104q3 83 1 104q7 3 13 20q7 15 17 15q3 0 6 -1q5 -23 32 -46q29 -26 36 -44q31 -54 33 -58q15 -31 23 -63q29 33 30 33q19 17 40 16q18 -10 27 -30q3 -7 12 -36q9 -11 43 -26q27 -11 30 -35q3 -22 -15 -46q-14 -19 -29 -39q47 -82 141 -133
l8 10q9 52 9 115q0 40 -6 120q-5 80 -5 119q0 15 2 44.5t2 44.5q0 10 -1 32q-2 23 -2 33q0 14 3 26q10 6 14 6q7 0 7 -13q0 -1 -1 -7v-7q0 -14 6 -19q-1 -3 -1 -6q0 -10 13 -19.5t13 -13.5q0 -6 -15 -14q0 -8 -6 -86q-3 -54 -3 -91zM124 89q5 -6 7 -7q1 -4 1 -7q0 -6 -9 -9
q-12 -4 -15 -7l3 35q2 1 4 1q4 0 9 -6zM190 161l21 -26q-9 -13 -22 -10q-6 4 -6 10q0 4 4.5 11t4.5 10q0 2 -2 5zM245 402q24 36 60 43l-23 25l-37 -22q-10 -29 -10 -32q0 -9 10 -14zM305 606q19 -3 25 -17q-4 -6 -9.5 -11t-12.5 -4q-6 9 -15 20q-7 10 -19 12v7q3 -3 31 -7z
M341 309q20 10 28 27q6 9 6 19q0 13 -9 21t-22 8q2 -2 1.5 -11t3.5 -12q0 -18 -20.5 -35t-20.5 -31q18 7 33 14zM332.5 25.5q2.5 -3.5 4.5 -4.5q2 -7 -5 -12t-17 -3q1 1 0 14q-1 9 6 9q1 0 4 -1q2 1 3 1q2 0 4.5 -3.5zM457 126q16 -21 35 -30q0 22 -20 40q-7 7 -41 28
q20 -31 26 -38zM619 228.5q4 -3.5 4 -7.5q0 -6 -5.5 -11.5t-10.5 -5.5q-9 0 -9 12q0 17 12 14q5 2 9 -1.5z" />
    <glyph glyph-name="N" unicode="n" horiz-adv-x="633" 
d="M47 562q0 -4 -1 -7l-2 -15q-2 6 -12 14.5t-10 14.5q0 4 4 10q4 1 7 1q14 0 14 -18zM539 428q0 -94 24 -155q-8 -31 -8 -97t-9 -99q12 -10 12 -20q0 -9 -15 -25q-17 -17 -19 -26q-19 0 -14 20q-14 18 -70 74q-44 43 -59 84q-9 59 -51 75q-9 1 -28 8.5t-28 7.5q-5 0 -10 -2
q2 22 32 50t30 46q0 14 -11 30q-12 10 -22 10q-16 0 -34 -24.5t-26 -24.5q-9 0 -20 15l-5 -7q-12 14 -21 44l-8.5 25.5l-8.5 25.5q-16 16 -31 52q-17 42 -28 56q-17 -148 -17 -236q0 -97 17 -181q-3 -34 -7 -67q-5 -41 -24 -61q-5 8 -13 8q-16 0 -21 -16q25 113 22 190
q-6 36 -6 75q0 8 8 136q-9 39 -8 104q3 83 1 104q7 3 13 20q7 15 17 15q3 0 6 -1q5 -23 32 -46q29 -26 36 -44q31 -54 33 -58q15 -31 23 -63q29 33 30 33q19 17 40 16q18 -10 27 -30q3 -7 12 -36q9 -11 43 -26q27 -11 30 -35q3 -22 -15 -46q-14 -19 -29 -39q47 -82 141 -133
l8 10q9 52 9 115q0 40 -6 120q-5 80 -5 119q0 15 2 44.5t2 44.5q0 10 -1 32q-2 23 -2 33q0 14 3 26q10 6 14 6q7 0 7 -13q0 -1 -1 -7v-7q0 -14 6 -19q-1 -3 -1 -6q0 -10 13 -19.5t13 -13.5q0 -6 -15 -14q0 -8 -6 -86q-3 -54 -3 -91zM124 89q5 -6 7 -7q1 -4 1 -7q0 -6 -9 -9
q-12 -4 -15 -7l3 35q2 1 4 1q4 0 9 -6zM190 161l21 -26q-9 -13 -22 -10q-6 4 -6 10q0 4 4.5 11t4.5 10q0 2 -2 5zM245 402q24 36 60 43l-23 25l-37 -22q-10 -29 -10 -32q0 -9 10 -14zM305 606q19 -3 25 -17q-4 -6 -9.5 -11t-12.5 -4q-6 9 -15 20q-7 10 -19 12v7q3 -3 31 -7z
M341 309q20 10 28 27q6 9 6 19q0 13 -9 21t-22 8q2 -2 1.5 -11t3.5 -12q0 -18 -20.5 -35t-20.5 -31q18 7 33 14zM332.5 25.5q2.5 -3.5 4.5 -4.5q2 -7 -5 -12t-17 -3q1 1 0 14q-1 9 6 9q1 0 4 -1q2 1 3 1q2 0 4.5 -3.5zM457 126q16 -21 35 -30q0 22 -20 40q-7 7 -41 28
q20 -31 26 -38zM619 228.5q4 -3.5 4 -7.5q0 -6 -5.5 -11.5t-10.5 -5.5q-9 0 -9 12q0 17 12 14q5 2 9 -1.5z" />
    <glyph glyph-name="O" unicode="O" horiz-adv-x="581" 
d="M45 -34l12 -18q-7 -13 -16 -13q-5 0 -18 11.5t-21 11.5q-3 0 -6 -2v8h7q5 0 14 -2t13 -2q9 0 15 6zM33 650q1 -3 1 -7q0 -12 -23 -24q-3 2 -3 5q0 2 3 9t3 11q0 3 -1 6h20zM385 594q27 -55 81 -171q4 -27 4 -55q0 -97 -39 -183q-39 -89 -109 -138q-6 -11 -14 -25
q-7 -15 -17 -18q-15 18 -56 40t-56 40q-7 6 -29 27q-19 19 -31 24q-4 21 -37 88q-25 53 -25 88q0 28 14 56q5 88 62 180q28 45 113 150q34 0 71 -46q40 -50 68 -57zM118 213q20 -51 46 -73q-15 22 -31 44q-18 27 -20 52q-19 58 -15 141q-1 -7 -9.5 -31t-8.5 -39v-11
q11 -16 38 -83zM103 433l15 40l-15 -20v-20zM140 622q10 -3 2 -21q-2 0 -7.5 -2.5t-7.5 -2.5q-3 0 -6 5zM432 283q2 42 5 76q-29 175 -131 235q-6 3 -20 20q-10 13 -24 13q-13 -17 -40 -49t-41 -48q-47 -59 -59 -110q3 -105 8 -134q12 -74 54 -111l4 16l18 -18l-14 -15
l36 -33l60 -55q22 6 50 36q11 11 40 49q27 15 40 53q10 28 14 75zM187 569q54 64 61 73q1 20 -6 20q-40 -53 -61 -81q-39 -50 -53 -88q22 33 59 76zM188 115l31 -28l-35 33zM298.5 269.5q5.5 -4.5 4.5 -13.5q-1 -8 -12 -12h-6l1 27q7 3 12.5 -1.5zM376 392l-19 -20
q-6 2 -5.5 11.5t5.5 16.5q4 1 10 -2zM438 728q9 5 23 -5q2 -18 -19 -18q-2 2 -2 11t-2 12zM522 588q0 -5 -2 -9l-3 -15q-1 5 -9 14t-8 15q0 5 4 11q3 2 6 2q12 0 12 -18zM569 95q4 -7 5 -8q2 -3 2 -5q0 -7 -9 -11q-12 -5 -14 -7l5 36q2 1 3 1q3 0 8 -6z" />
    <glyph glyph-name="O" unicode="&#xf8;" horiz-adv-x="581" 
d="M45 -34l12 -18q-7 -13 -16 -13q-5 0 -18 11.5t-21 11.5q-3 0 -6 -2v8h7q5 0 14 -2t13 -2q9 0 15 6zM33 650q1 -3 1 -7q0 -12 -23 -24q-3 2 -3 5q0 2 3 9t3 11q0 3 -1 6h20zM385 594q27 -55 81 -171q4 -27 4 -55q0 -97 -39 -183q-39 -89 -109 -138q-6 -11 -14 -25
q-7 -15 -17 -18q-15 18 -56 40t-56 40q-7 6 -29 27q-19 19 -31 24q-4 21 -37 88q-25 53 -25 88q0 28 14 56q5 88 62 180q28 45 113 150q34 0 71 -46q40 -50 68 -57zM118 213q20 -51 46 -73q-15 22 -31 44q-18 27 -20 52q-19 58 -15 141q-1 -7 -9.5 -31t-8.5 -39v-11
q11 -16 38 -83zM103 433l15 40l-15 -20v-20zM140 622q10 -3 2 -21q-2 0 -7.5 -2.5t-7.5 -2.5q-3 0 -6 5zM432 283q2 42 5 76q-29 175 -131 235q-6 3 -20 20q-10 13 -24 13q-13 -17 -40 -49t-41 -48q-47 -59 -59 -110q3 -105 8 -134q12 -74 54 -111l4 16l18 -18l-14 -15
l36 -33l60 -55q22 6 50 36q11 11 40 49q27 15 40 53q10 28 14 75zM187 569q54 64 61 73q1 20 -6 20q-40 -53 -61 -81q-39 -50 -53 -88q22 33 59 76zM188 115l31 -28l-35 33zM298.5 269.5q5.5 -4.5 4.5 -13.5q-1 -8 -12 -12h-6l1 27q7 3 12.5 -1.5zM376 392l-19 -20
q-6 2 -5.5 11.5t5.5 16.5q4 1 10 -2zM438 728q9 5 23 -5q2 -18 -19 -18q-2 2 -2 11t-2 12zM522 588q0 -5 -2 -9l-3 -15q-1 5 -9 14t-8 15q0 5 4 11q3 2 6 2q12 0 12 -18zM569 95q4 -7 5 -8q2 -3 2 -5q0 -7 -9 -11q-12 -5 -14 -7l5 36q2 1 3 1q3 0 8 -6z" />
    <glyph glyph-name="O" unicode="&#xf6;" horiz-adv-x="581" 
d="M45 -34l12 -18q-7 -13 -16 -13q-5 0 -18 11.5t-21 11.5q-3 0 -6 -2v8h7q5 0 14 -2t13 -2q9 0 15 6zM33 650q1 -3 1 -7q0 -12 -23 -24q-3 2 -3 5q0 2 3 9t3 11q0 3 -1 6h20zM385 594q27 -55 81 -171q4 -27 4 -55q0 -97 -39 -183q-39 -89 -109 -138q-6 -11 -14 -25
q-7 -15 -17 -18q-15 18 -56 40t-56 40q-7 6 -29 27q-19 19 -31 24q-4 21 -37 88q-25 53 -25 88q0 28 14 56q5 88 62 180q28 45 113 150q34 0 71 -46q40 -50 68 -57zM118 213q20 -51 46 -73q-15 22 -31 44q-18 27 -20 52q-19 58 -15 141q-1 -7 -9.5 -31t-8.5 -39v-11
q11 -16 38 -83zM103 433l15 40l-15 -20v-20zM140 622q10 -3 2 -21q-2 0 -7.5 -2.5t-7.5 -2.5q-3 0 -6 5zM432 283q2 42 5 76q-29 175 -131 235q-6 3 -20 20q-10 13 -24 13q-13 -17 -40 -49t-41 -48q-47 -59 -59 -110q3 -105 8 -134q12 -74 54 -111l4 16l18 -18l-14 -15
l36 -33l60 -55q22 6 50 36q11 11 40 49q27 15 40 53q10 28 14 75zM187 569q54 64 61 73q1 20 -6 20q-40 -53 -61 -81q-39 -50 -53 -88q22 33 59 76zM188 115l31 -28l-35 33zM298.5 269.5q5.5 -4.5 4.5 -13.5q-1 -8 -12 -12h-6l1 27q7 3 12.5 -1.5zM376 392l-19 -20
q-6 2 -5.5 11.5t5.5 16.5q4 1 10 -2zM438 728q9 5 23 -5q2 -18 -19 -18q-2 2 -2 11t-2 12zM522 588q0 -5 -2 -9l-3 -15q-1 5 -9 14t-8 15q0 5 4 11q3 2 6 2q12 0 12 -18zM569 95q4 -7 5 -8q2 -3 2 -5q0 -7 -9 -11q-12 -5 -14 -7l5 36q2 1 3 1q3 0 8 -6z" />
    <glyph glyph-name="O" unicode="&#xf5;" horiz-adv-x="581" 
d="M45 -34l12 -18q-7 -13 -16 -13q-5 0 -18 11.5t-21 11.5q-3 0 -6 -2v8h7q5 0 14 -2t13 -2q9 0 15 6zM33 650q1 -3 1 -7q0 -12 -23 -24q-3 2 -3 5q0 2 3 9t3 11q0 3 -1 6h20zM385 594q27 -55 81 -171q4 -27 4 -55q0 -97 -39 -183q-39 -89 -109 -138q-6 -11 -14 -25
q-7 -15 -17 -18q-15 18 -56 40t-56 40q-7 6 -29 27q-19 19 -31 24q-4 21 -37 88q-25 53 -25 88q0 28 14 56q5 88 62 180q28 45 113 150q34 0 71 -46q40 -50 68 -57zM118 213q20 -51 46 -73q-15 22 -31 44q-18 27 -20 52q-19 58 -15 141q-1 -7 -9.5 -31t-8.5 -39v-11
q11 -16 38 -83zM103 433l15 40l-15 -20v-20zM140 622q10 -3 2 -21q-2 0 -7.5 -2.5t-7.5 -2.5q-3 0 -6 5zM432 283q2 42 5 76q-29 175 -131 235q-6 3 -20 20q-10 13 -24 13q-13 -17 -40 -49t-41 -48q-47 -59 -59 -110q3 -105 8 -134q12 -74 54 -111l4 16l18 -18l-14 -15
l36 -33l60 -55q22 6 50 36q11 11 40 49q27 15 40 53q10 28 14 75zM187 569q54 64 61 73q1 20 -6 20q-40 -53 -61 -81q-39 -50 -53 -88q22 33 59 76zM188 115l31 -28l-35 33zM298.5 269.5q5.5 -4.5 4.5 -13.5q-1 -8 -12 -12h-6l1 27q7 3 12.5 -1.5zM376 392l-19 -20
q-6 2 -5.5 11.5t5.5 16.5q4 1 10 -2zM438 728q9 5 23 -5q2 -18 -19 -18q-2 2 -2 11t-2 12zM522 588q0 -5 -2 -9l-3 -15q-1 5 -9 14t-8 15q0 5 4 11q3 2 6 2q12 0 12 -18zM569 95q4 -7 5 -8q2 -3 2 -5q0 -7 -9 -11q-12 -5 -14 -7l5 36q2 1 3 1q3 0 8 -6z" />
    <glyph glyph-name="O" unicode="&#xf4;" horiz-adv-x="581" 
d="M45 -34l12 -18q-7 -13 -16 -13q-5 0 -18 11.5t-21 11.5q-3 0 -6 -2v8h7q5 0 14 -2t13 -2q9 0 15 6zM33 650q1 -3 1 -7q0 -12 -23 -24q-3 2 -3 5q0 2 3 9t3 11q0 3 -1 6h20zM385 594q27 -55 81 -171q4 -27 4 -55q0 -97 -39 -183q-39 -89 -109 -138q-6 -11 -14 -25
q-7 -15 -17 -18q-15 18 -56 40t-56 40q-7 6 -29 27q-19 19 -31 24q-4 21 -37 88q-25 53 -25 88q0 28 14 56q5 88 62 180q28 45 113 150q34 0 71 -46q40 -50 68 -57zM118 213q20 -51 46 -73q-15 22 -31 44q-18 27 -20 52q-19 58 -15 141q-1 -7 -9.5 -31t-8.5 -39v-11
q11 -16 38 -83zM103 433l15 40l-15 -20v-20zM140 622q10 -3 2 -21q-2 0 -7.5 -2.5t-7.5 -2.5q-3 0 -6 5zM432 283q2 42 5 76q-29 175 -131 235q-6 3 -20 20q-10 13 -24 13q-13 -17 -40 -49t-41 -48q-47 -59 -59 -110q3 -105 8 -134q12 -74 54 -111l4 16l18 -18l-14 -15
l36 -33l60 -55q22 6 50 36q11 11 40 49q27 15 40 53q10 28 14 75zM187 569q54 64 61 73q1 20 -6 20q-40 -53 -61 -81q-39 -50 -53 -88q22 33 59 76zM188 115l31 -28l-35 33zM298.5 269.5q5.5 -4.5 4.5 -13.5q-1 -8 -12 -12h-6l1 27q7 3 12.5 -1.5zM376 392l-19 -20
q-6 2 -5.5 11.5t5.5 16.5q4 1 10 -2zM438 728q9 5 23 -5q2 -18 -19 -18q-2 2 -2 11t-2 12zM522 588q0 -5 -2 -9l-3 -15q-1 5 -9 14t-8 15q0 5 4 11q3 2 6 2q12 0 12 -18zM569 95q4 -7 5 -8q2 -3 2 -5q0 -7 -9 -11q-12 -5 -14 -7l5 36q2 1 3 1q3 0 8 -6z" />
    <glyph glyph-name="O" unicode="&#xf3;" horiz-adv-x="581" 
d="M45 -34l12 -18q-7 -13 -16 -13q-5 0 -18 11.5t-21 11.5q-3 0 -6 -2v8h7q5 0 14 -2t13 -2q9 0 15 6zM33 650q1 -3 1 -7q0 -12 -23 -24q-3 2 -3 5q0 2 3 9t3 11q0 3 -1 6h20zM385 594q27 -55 81 -171q4 -27 4 -55q0 -97 -39 -183q-39 -89 -109 -138q-6 -11 -14 -25
q-7 -15 -17 -18q-15 18 -56 40t-56 40q-7 6 -29 27q-19 19 -31 24q-4 21 -37 88q-25 53 -25 88q0 28 14 56q5 88 62 180q28 45 113 150q34 0 71 -46q40 -50 68 -57zM118 213q20 -51 46 -73q-15 22 -31 44q-18 27 -20 52q-19 58 -15 141q-1 -7 -9.5 -31t-8.5 -39v-11
q11 -16 38 -83zM103 433l15 40l-15 -20v-20zM140 622q10 -3 2 -21q-2 0 -7.5 -2.5t-7.5 -2.5q-3 0 -6 5zM432 283q2 42 5 76q-29 175 -131 235q-6 3 -20 20q-10 13 -24 13q-13 -17 -40 -49t-41 -48q-47 -59 -59 -110q3 -105 8 -134q12 -74 54 -111l4 16l18 -18l-14 -15
l36 -33l60 -55q22 6 50 36q11 11 40 49q27 15 40 53q10 28 14 75zM187 569q54 64 61 73q1 20 -6 20q-40 -53 -61 -81q-39 -50 -53 -88q22 33 59 76zM188 115l31 -28l-35 33zM298.5 269.5q5.5 -4.5 4.5 -13.5q-1 -8 -12 -12h-6l1 27q7 3 12.5 -1.5zM376 392l-19 -20
q-6 2 -5.5 11.5t5.5 16.5q4 1 10 -2zM438 728q9 5 23 -5q2 -18 -19 -18q-2 2 -2 11t-2 12zM522 588q0 -5 -2 -9l-3 -15q-1 5 -9 14t-8 15q0 5 4 11q3 2 6 2q12 0 12 -18zM569 95q4 -7 5 -8q2 -3 2 -5q0 -7 -9 -11q-12 -5 -14 -7l5 36q2 1 3 1q3 0 8 -6z" />
    <glyph glyph-name="O" unicode="&#xf2;" horiz-adv-x="581" 
d="M45 -34l12 -18q-7 -13 -16 -13q-5 0 -18 11.5t-21 11.5q-3 0 -6 -2v8h7q5 0 14 -2t13 -2q9 0 15 6zM33 650q1 -3 1 -7q0 -12 -23 -24q-3 2 -3 5q0 2 3 9t3 11q0 3 -1 6h20zM385 594q27 -55 81 -171q4 -27 4 -55q0 -97 -39 -183q-39 -89 -109 -138q-6 -11 -14 -25
q-7 -15 -17 -18q-15 18 -56 40t-56 40q-7 6 -29 27q-19 19 -31 24q-4 21 -37 88q-25 53 -25 88q0 28 14 56q5 88 62 180q28 45 113 150q34 0 71 -46q40 -50 68 -57zM118 213q20 -51 46 -73q-15 22 -31 44q-18 27 -20 52q-19 58 -15 141q-1 -7 -9.5 -31t-8.5 -39v-11
q11 -16 38 -83zM103 433l15 40l-15 -20v-20zM140 622q10 -3 2 -21q-2 0 -7.5 -2.5t-7.5 -2.5q-3 0 -6 5zM432 283q2 42 5 76q-29 175 -131 235q-6 3 -20 20q-10 13 -24 13q-13 -17 -40 -49t-41 -48q-47 -59 -59 -110q3 -105 8 -134q12 -74 54 -111l4 16l18 -18l-14 -15
l36 -33l60 -55q22 6 50 36q11 11 40 49q27 15 40 53q10 28 14 75zM187 569q54 64 61 73q1 20 -6 20q-40 -53 -61 -81q-39 -50 -53 -88q22 33 59 76zM188 115l31 -28l-35 33zM298.5 269.5q5.5 -4.5 4.5 -13.5q-1 -8 -12 -12h-6l1 27q7 3 12.5 -1.5zM376 392l-19 -20
q-6 2 -5.5 11.5t5.5 16.5q4 1 10 -2zM438 728q9 5 23 -5q2 -18 -19 -18q-2 2 -2 11t-2 12zM522 588q0 -5 -2 -9l-3 -15q-1 5 -9 14t-8 15q0 5 4 11q3 2 6 2q12 0 12 -18zM569 95q4 -7 5 -8q2 -3 2 -5q0 -7 -9 -11q-12 -5 -14 -7l5 36q2 1 3 1q3 0 8 -6z" />
    <glyph glyph-name="O" unicode="&#xd8;" horiz-adv-x="581" 
d="M45 -34l12 -18q-7 -13 -16 -13q-5 0 -18 11.5t-21 11.5q-3 0 -6 -2v8h7q5 0 14 -2t13 -2q9 0 15 6zM33 650q1 -3 1 -7q0 -12 -23 -24q-3 2 -3 5q0 2 3 9t3 11q0 3 -1 6h20zM385 594q27 -55 81 -171q4 -27 4 -55q0 -97 -39 -183q-39 -89 -109 -138q-6 -11 -14 -25
q-7 -15 -17 -18q-15 18 -56 40t-56 40q-7 6 -29 27q-19 19 -31 24q-4 21 -37 88q-25 53 -25 88q0 28 14 56q5 88 62 180q28 45 113 150q34 0 71 -46q40 -50 68 -57zM118 213q20 -51 46 -73q-15 22 -31 44q-18 27 -20 52q-19 58 -15 141q-1 -7 -9.5 -31t-8.5 -39v-11
q11 -16 38 -83zM103 433l15 40l-15 -20v-20zM140 622q10 -3 2 -21q-2 0 -7.5 -2.5t-7.5 -2.5q-3 0 -6 5zM432 283q2 42 5 76q-29 175 -131 235q-6 3 -20 20q-10 13 -24 13q-13 -17 -40 -49t-41 -48q-47 -59 -59 -110q3 -105 8 -134q12 -74 54 -111l4 16l18 -18l-14 -15
l36 -33l60 -55q22 6 50 36q11 11 40 49q27 15 40 53q10 28 14 75zM187 569q54 64 61 73q1 20 -6 20q-40 -53 -61 -81q-39 -50 -53 -88q22 33 59 76zM188 115l31 -28l-35 33zM298.5 269.5q5.5 -4.5 4.5 -13.5q-1 -8 -12 -12h-6l1 27q7 3 12.5 -1.5zM376 392l-19 -20
q-6 2 -5.5 11.5t5.5 16.5q4 1 10 -2zM438 728q9 5 23 -5q2 -18 -19 -18q-2 2 -2 11t-2 12zM522 588q0 -5 -2 -9l-3 -15q-1 5 -9 14t-8 15q0 5 4 11q3 2 6 2q12 0 12 -18zM569 95q4 -7 5 -8q2 -3 2 -5q0 -7 -9 -11q-12 -5 -14 -7l5 36q2 1 3 1q3 0 8 -6z" />
    <glyph glyph-name="O" unicode="&#xd6;" horiz-adv-x="581" 
d="M45 -34l12 -18q-7 -13 -16 -13q-5 0 -18 11.5t-21 11.5q-3 0 -6 -2v8h7q5 0 14 -2t13 -2q9 0 15 6zM33 650q1 -3 1 -7q0 -12 -23 -24q-3 2 -3 5q0 2 3 9t3 11q0 3 -1 6h20zM385 594q27 -55 81 -171q4 -27 4 -55q0 -97 -39 -183q-39 -89 -109 -138q-6 -11 -14 -25
q-7 -15 -17 -18q-15 18 -56 40t-56 40q-7 6 -29 27q-19 19 -31 24q-4 21 -37 88q-25 53 -25 88q0 28 14 56q5 88 62 180q28 45 113 150q34 0 71 -46q40 -50 68 -57zM118 213q20 -51 46 -73q-15 22 -31 44q-18 27 -20 52q-19 58 -15 141q-1 -7 -9.5 -31t-8.5 -39v-11
q11 -16 38 -83zM103 433l15 40l-15 -20v-20zM140 622q10 -3 2 -21q-2 0 -7.5 -2.5t-7.5 -2.5q-3 0 -6 5zM432 283q2 42 5 76q-29 175 -131 235q-6 3 -20 20q-10 13 -24 13q-13 -17 -40 -49t-41 -48q-47 -59 -59 -110q3 -105 8 -134q12 -74 54 -111l4 16l18 -18l-14 -15
l36 -33l60 -55q22 6 50 36q11 11 40 49q27 15 40 53q10 28 14 75zM187 569q54 64 61 73q1 20 -6 20q-40 -53 -61 -81q-39 -50 -53 -88q22 33 59 76zM188 115l31 -28l-35 33zM298.5 269.5q5.5 -4.5 4.5 -13.5q-1 -8 -12 -12h-6l1 27q7 3 12.5 -1.5zM376 392l-19 -20
q-6 2 -5.5 11.5t5.5 16.5q4 1 10 -2zM438 728q9 5 23 -5q2 -18 -19 -18q-2 2 -2 11t-2 12zM522 588q0 -5 -2 -9l-3 -15q-1 5 -9 14t-8 15q0 5 4 11q3 2 6 2q12 0 12 -18zM569 95q4 -7 5 -8q2 -3 2 -5q0 -7 -9 -11q-12 -5 -14 -7l5 36q2 1 3 1q3 0 8 -6z" />
    <glyph glyph-name="O" unicode="&#xd5;" horiz-adv-x="581" 
d="M45 -34l12 -18q-7 -13 -16 -13q-5 0 -18 11.5t-21 11.5q-3 0 -6 -2v8h7q5 0 14 -2t13 -2q9 0 15 6zM33 650q1 -3 1 -7q0 -12 -23 -24q-3 2 -3 5q0 2 3 9t3 11q0 3 -1 6h20zM385 594q27 -55 81 -171q4 -27 4 -55q0 -97 -39 -183q-39 -89 -109 -138q-6 -11 -14 -25
q-7 -15 -17 -18q-15 18 -56 40t-56 40q-7 6 -29 27q-19 19 -31 24q-4 21 -37 88q-25 53 -25 88q0 28 14 56q5 88 62 180q28 45 113 150q34 0 71 -46q40 -50 68 -57zM118 213q20 -51 46 -73q-15 22 -31 44q-18 27 -20 52q-19 58 -15 141q-1 -7 -9.5 -31t-8.5 -39v-11
q11 -16 38 -83zM103 433l15 40l-15 -20v-20zM140 622q10 -3 2 -21q-2 0 -7.5 -2.5t-7.5 -2.5q-3 0 -6 5zM432 283q2 42 5 76q-29 175 -131 235q-6 3 -20 20q-10 13 -24 13q-13 -17 -40 -49t-41 -48q-47 -59 -59 -110q3 -105 8 -134q12 -74 54 -111l4 16l18 -18l-14 -15
l36 -33l60 -55q22 6 50 36q11 11 40 49q27 15 40 53q10 28 14 75zM187 569q54 64 61 73q1 20 -6 20q-40 -53 -61 -81q-39 -50 -53 -88q22 33 59 76zM188 115l31 -28l-35 33zM298.5 269.5q5.5 -4.5 4.5 -13.5q-1 -8 -12 -12h-6l1 27q7 3 12.5 -1.5zM376 392l-19 -20
q-6 2 -5.5 11.5t5.5 16.5q4 1 10 -2zM438 728q9 5 23 -5q2 -18 -19 -18q-2 2 -2 11t-2 12zM522 588q0 -5 -2 -9l-3 -15q-1 5 -9 14t-8 15q0 5 4 11q3 2 6 2q12 0 12 -18zM569 95q4 -7 5 -8q2 -3 2 -5q0 -7 -9 -11q-12 -5 -14 -7l5 36q2 1 3 1q3 0 8 -6z" />
    <glyph glyph-name="O" unicode="&#xd4;" horiz-adv-x="581" 
d="M45 -34l12 -18q-7 -13 -16 -13q-5 0 -18 11.5t-21 11.5q-3 0 -6 -2v8h7q5 0 14 -2t13 -2q9 0 15 6zM33 650q1 -3 1 -7q0 -12 -23 -24q-3 2 -3 5q0 2 3 9t3 11q0 3 -1 6h20zM385 594q27 -55 81 -171q4 -27 4 -55q0 -97 -39 -183q-39 -89 -109 -138q-6 -11 -14 -25
q-7 -15 -17 -18q-15 18 -56 40t-56 40q-7 6 -29 27q-19 19 -31 24q-4 21 -37 88q-25 53 -25 88q0 28 14 56q5 88 62 180q28 45 113 150q34 0 71 -46q40 -50 68 -57zM118 213q20 -51 46 -73q-15 22 -31 44q-18 27 -20 52q-19 58 -15 141q-1 -7 -9.5 -31t-8.5 -39v-11
q11 -16 38 -83zM103 433l15 40l-15 -20v-20zM140 622q10 -3 2 -21q-2 0 -7.5 -2.5t-7.5 -2.5q-3 0 -6 5zM432 283q2 42 5 76q-29 175 -131 235q-6 3 -20 20q-10 13 -24 13q-13 -17 -40 -49t-41 -48q-47 -59 -59 -110q3 -105 8 -134q12 -74 54 -111l4 16l18 -18l-14 -15
l36 -33l60 -55q22 6 50 36q11 11 40 49q27 15 40 53q10 28 14 75zM187 569q54 64 61 73q1 20 -6 20q-40 -53 -61 -81q-39 -50 -53 -88q22 33 59 76zM188 115l31 -28l-35 33zM298.5 269.5q5.5 -4.5 4.5 -13.5q-1 -8 -12 -12h-6l1 27q7 3 12.5 -1.5zM376 392l-19 -20
q-6 2 -5.5 11.5t5.5 16.5q4 1 10 -2zM438 728q9 5 23 -5q2 -18 -19 -18q-2 2 -2 11t-2 12zM522 588q0 -5 -2 -9l-3 -15q-1 5 -9 14t-8 15q0 5 4 11q3 2 6 2q12 0 12 -18zM569 95q4 -7 5 -8q2 -3 2 -5q0 -7 -9 -11q-12 -5 -14 -7l5 36q2 1 3 1q3 0 8 -6z" />
    <glyph glyph-name="O" unicode="&#xd3;" horiz-adv-x="581" 
d="M45 -34l12 -18q-7 -13 -16 -13q-5 0 -18 11.5t-21 11.5q-3 0 -6 -2v8h7q5 0 14 -2t13 -2q9 0 15 6zM33 650q1 -3 1 -7q0 -12 -23 -24q-3 2 -3 5q0 2 3 9t3 11q0 3 -1 6h20zM385 594q27 -55 81 -171q4 -27 4 -55q0 -97 -39 -183q-39 -89 -109 -138q-6 -11 -14 -25
q-7 -15 -17 -18q-15 18 -56 40t-56 40q-7 6 -29 27q-19 19 -31 24q-4 21 -37 88q-25 53 -25 88q0 28 14 56q5 88 62 180q28 45 113 150q34 0 71 -46q40 -50 68 -57zM118 213q20 -51 46 -73q-15 22 -31 44q-18 27 -20 52q-19 58 -15 141q-1 -7 -9.5 -31t-8.5 -39v-11
q11 -16 38 -83zM103 433l15 40l-15 -20v-20zM140 622q10 -3 2 -21q-2 0 -7.5 -2.5t-7.5 -2.5q-3 0 -6 5zM432 283q2 42 5 76q-29 175 -131 235q-6 3 -20 20q-10 13 -24 13q-13 -17 -40 -49t-41 -48q-47 -59 -59 -110q3 -105 8 -134q12 -74 54 -111l4 16l18 -18l-14 -15
l36 -33l60 -55q22 6 50 36q11 11 40 49q27 15 40 53q10 28 14 75zM187 569q54 64 61 73q1 20 -6 20q-40 -53 -61 -81q-39 -50 -53 -88q22 33 59 76zM188 115l31 -28l-35 33zM298.5 269.5q5.5 -4.5 4.5 -13.5q-1 -8 -12 -12h-6l1 27q7 3 12.5 -1.5zM376 392l-19 -20
q-6 2 -5.5 11.5t5.5 16.5q4 1 10 -2zM438 728q9 5 23 -5q2 -18 -19 -18q-2 2 -2 11t-2 12zM522 588q0 -5 -2 -9l-3 -15q-1 5 -9 14t-8 15q0 5 4 11q3 2 6 2q12 0 12 -18zM569 95q4 -7 5 -8q2 -3 2 -5q0 -7 -9 -11q-12 -5 -14 -7l5 36q2 1 3 1q3 0 8 -6z" />
    <glyph glyph-name="O" unicode="&#xd2;" horiz-adv-x="581" 
d="M45 -34l12 -18q-7 -13 -16 -13q-5 0 -18 11.5t-21 11.5q-3 0 -6 -2v8h7q5 0 14 -2t13 -2q9 0 15 6zM33 650q1 -3 1 -7q0 -12 -23 -24q-3 2 -3 5q0 2 3 9t3 11q0 3 -1 6h20zM385 594q27 -55 81 -171q4 -27 4 -55q0 -97 -39 -183q-39 -89 -109 -138q-6 -11 -14 -25
q-7 -15 -17 -18q-15 18 -56 40t-56 40q-7 6 -29 27q-19 19 -31 24q-4 21 -37 88q-25 53 -25 88q0 28 14 56q5 88 62 180q28 45 113 150q34 0 71 -46q40 -50 68 -57zM118 213q20 -51 46 -73q-15 22 -31 44q-18 27 -20 52q-19 58 -15 141q-1 -7 -9.5 -31t-8.5 -39v-11
q11 -16 38 -83zM103 433l15 40l-15 -20v-20zM140 622q10 -3 2 -21q-2 0 -7.5 -2.5t-7.5 -2.5q-3 0 -6 5zM432 283q2 42 5 76q-29 175 -131 235q-6 3 -20 20q-10 13 -24 13q-13 -17 -40 -49t-41 -48q-47 -59 -59 -110q3 -105 8 -134q12 -74 54 -111l4 16l18 -18l-14 -15
l36 -33l60 -55q22 6 50 36q11 11 40 49q27 15 40 53q10 28 14 75zM187 569q54 64 61 73q1 20 -6 20q-40 -53 -61 -81q-39 -50 -53 -88q22 33 59 76zM188 115l31 -28l-35 33zM298.5 269.5q5.5 -4.5 4.5 -13.5q-1 -8 -12 -12h-6l1 27q7 3 12.5 -1.5zM376 392l-19 -20
q-6 2 -5.5 11.5t5.5 16.5q4 1 10 -2zM438 728q9 5 23 -5q2 -18 -19 -18q-2 2 -2 11t-2 12zM522 588q0 -5 -2 -9l-3 -15q-1 5 -9 14t-8 15q0 5 4 11q3 2 6 2q12 0 12 -18zM569 95q4 -7 5 -8q2 -3 2 -5q0 -7 -9 -11q-12 -5 -14 -7l5 36q2 1 3 1q3 0 8 -6z" />
    <glyph glyph-name="O" unicode="o" horiz-adv-x="581" 
d="M45 -34l12 -18q-7 -13 -16 -13q-5 0 -18 11.5t-21 11.5q-3 0 -6 -2v8h7q5 0 14 -2t13 -2q9 0 15 6zM33 650q1 -3 1 -7q0 -12 -23 -24q-3 2 -3 5q0 2 3 9t3 11q0 3 -1 6h20zM385 594q27 -55 81 -171q4 -27 4 -55q0 -97 -39 -183q-39 -89 -109 -138q-6 -11 -14 -25
q-7 -15 -17 -18q-15 18 -56 40t-56 40q-7 6 -29 27q-19 19 -31 24q-4 21 -37 88q-25 53 -25 88q0 28 14 56q5 88 62 180q28 45 113 150q34 0 71 -46q40 -50 68 -57zM118 213q20 -51 46 -73q-15 22 -31 44q-18 27 -20 52q-19 58 -15 141q-1 -7 -9.5 -31t-8.5 -39v-11
q11 -16 38 -83zM103 433l15 40l-15 -20v-20zM140 622q10 -3 2 -21q-2 0 -7.5 -2.5t-7.5 -2.5q-3 0 -6 5zM432 283q2 42 5 76q-29 175 -131 235q-6 3 -20 20q-10 13 -24 13q-13 -17 -40 -49t-41 -48q-47 -59 -59 -110q3 -105 8 -134q12 -74 54 -111l4 16l18 -18l-14 -15
l36 -33l60 -55q22 6 50 36q11 11 40 49q27 15 40 53q10 28 14 75zM187 569q54 64 61 73q1 20 -6 20q-40 -53 -61 -81q-39 -50 -53 -88q22 33 59 76zM188 115l31 -28l-35 33zM298.5 269.5q5.5 -4.5 4.5 -13.5q-1 -8 -12 -12h-6l1 27q7 3 12.5 -1.5zM376 392l-19 -20
q-6 2 -5.5 11.5t5.5 16.5q4 1 10 -2zM438 728q9 5 23 -5q2 -18 -19 -18q-2 2 -2 11t-2 12zM522 588q0 -5 -2 -9l-3 -15q-1 5 -9 14t-8 15q0 5 4 11q3 2 6 2q12 0 12 -18zM569 95q4 -7 5 -8q2 -3 2 -5q0 -7 -9 -11q-12 -5 -14 -7l5 36q2 1 3 1q3 0 8 -6z" />
    <glyph glyph-name="P" unicode="P" horiz-adv-x="461" 
d="M3 474q21 5 24 4l-4 -20q-10 2 -20 16zM383 541q16 -14 22 -27q0 -85 -75 -154q-52 -48 -150 -93h-6q-8 0 -15 -7t-12 -14q-3 -82 -6 -112q-7 -64 -26 -106q-13 -1 -15 11q-2 13 -2 25q7 10 7 22q0 7 -5.5 24.5t-5.5 26.5q0 6 1 12q11 24 11 53q0 19 -6 55t-6 56
q0 18 4 34q-9 27 -9 58q0 23 7 69t7 69q0 25 -5 46q5 9 5 20q0 7 -3 22q-4 15 -4 23q0 13 8 23q8 -2 19 -13t19 -11q6 0 14 5q42 -5 101 -45q63 -43 99 -52q22 -16 27 -20zM337 497q0 15 -12 28q-33 1 -92.5 24t-92.5 25q0 -12 1 -81q0 -49 -1 -81q0 -45 -4 -81l15 -46
q43 24 88 64q3 2 79 76q0 15 9.5 38.5t9.5 33.5zM151 599q78 -14 116 -32q-2 1 -55 39q-34 23 -63 28q-6 -5 -6 -13q0 -7 8 -22zM375 483q0 18 -10 31q3 -60 -45 -115q-55 -54 -82 -82q71 47 120 106q17 41 17 60zM282 175q10 0 14 -9q0 -13 -13 -13q-6 -2 -9 3q-2 3 -5 8
q2 11 13 11zM365 93l9 -13q-8 -12 -24 -12q-4 4 -4 8q0 12 15 12zM400 334q14 2 16 4l-8 -27q-3 -1 -5 -1q-4 0 -8 5.5t-6 6.5q0 9 11 12zM422 729q3 0 5 -3l-4 -34q-18 0 -18 18q0 6 3 14q2 0 6.5 2.5t7.5 2.5zM451 518v-18h-20q-3 13 20 18z" />
    <glyph glyph-name="P" unicode="p" horiz-adv-x="461" 
d="M3 474q21 5 24 4l-4 -20q-10 2 -20 16zM383 541q16 -14 22 -27q0 -85 -75 -154q-52 -48 -150 -93h-6q-8 0 -15 -7t-12 -14q-3 -82 -6 -112q-7 -64 -26 -106q-13 -1 -15 11q-2 13 -2 25q7 10 7 22q0 7 -5.5 24.5t-5.5 26.5q0 6 1 12q11 24 11 53q0 19 -6 55t-6 56
q0 18 4 34q-9 27 -9 58q0 23 7 69t7 69q0 25 -5 46q5 9 5 20q0 7 -3 22q-4 15 -4 23q0 13 8 23q8 -2 19 -13t19 -11q6 0 14 5q42 -5 101 -45q63 -43 99 -52q22 -16 27 -20zM337 497q0 15 -12 28q-33 1 -92.5 24t-92.5 25q0 -12 1 -81q0 -49 -1 -81q0 -45 -4 -81l15 -46
q43 24 88 64q3 2 79 76q0 15 9.5 38.5t9.5 33.5zM151 599q78 -14 116 -32q-2 1 -55 39q-34 23 -63 28q-6 -5 -6 -13q0 -7 8 -22zM375 483q0 18 -10 31q3 -60 -45 -115q-55 -54 -82 -82q71 47 120 106q17 41 17 60zM282 175q10 0 14 -9q0 -13 -13 -13q-6 -2 -9 3q-2 3 -5 8
q2 11 13 11zM365 93l9 -13q-8 -12 -24 -12q-4 4 -4 8q0 12 15 12zM400 334q14 2 16 4l-8 -27q-3 -1 -5 -1q-4 0 -8 5.5t-6 6.5q0 9 11 12zM422 729q3 0 5 -3l-4 -34q-18 0 -18 18q0 6 3 14q2 0 6.5 2.5t7.5 2.5zM451 518v-18h-20q-3 13 20 18z" />
    <glyph glyph-name="Q" unicode="Q" horiz-adv-x="451" 
d="M377 369q0 -59 -32 -102q-8 -76 -102 -132q-2 -26 18 -44q8 -7 42 -28q28 -17 37 -33q-4 -2 -7 -19q-2 -13 -16 -10q-30 24 -87 80q-5 -1 -10 -1q-34 0 -73 37q-53 49 -67 56q-19 22 -29 84q-9 58 -35 80l1 22l28 -35q0 15 6 41.5t6 38.5q0 20 -12 36q-6 22 -6 44
q0 43 24 94q10 21 48 85q11 4 26.5 17.5t26.5 17.5l2 -5q-47 -48 -71 -84q-32 -49 -39 -103q-3 -11 -3 -23q0 -20 8 -37q6 18 12 49q4 26 9 53q9 28 40 68q35 45 44 64q1 -1 11 -6q7 -4 7 -9q0 -2 -1 -6q-19 -7 -25 -28q-10 -35 -13 -39q-61 -66 -61 -168q0 -24 3 -47
q11 -20 22 -71q9 -47 26 -70q-2 -24 13 -41q9 -11 34.5 -27t35.5 -26q3 10 14 17q9 6 19 13l60 75q34 46 34 88q0 15 -3 30q-6 68 -37 120q-5 100 -82 159q-8 7 -17 15q-9 7 -18 7q0 13 14 20l11 -2q48 -41 69 -66q35 -43 39 -86q56 -79 56 -163zM96 197q24 -35 61 -46
q-24 16 -37 45q-8 18 -16 57q-9 39 -17 56q2 5 2 10q0 12 -16 42q-7 -31 -3 -88q2 -42 26 -76zM135 338v-4q-13 -5 -14 -4q-5 2 -5 6q0 2 3.5 7t4.5 6q11 -2 11 -11zM208 539q0 -5 10 -14q-7 -2 -14 3t-14 9q2 10 13 10q5 0 8 -3q-3 -2 -3 -5zM237 421v-9q-38 -5 -47 3
q2 15 12 15q4 0 18 -6q12 -5 17 -3zM271 324.5q0 -2.5 -3 -2.5q-1 -5 -6.5 -5t-7.5 2.5t-2 4.5q0 3 6.5 5t8.5 5q0 -2 2 -4.5t2 -5zM381 685q4 -10 6 -12q-11 -7 -19 -3q-4 5 -4 9q0 8 8 14q7 0 9 -8zM434.5 242q7.5 12 8.5 15l-7 -46q-9 5 -9 12t7.5 19z" />
    <glyph glyph-name="Q" unicode="q" horiz-adv-x="451" 
d="M377 369q0 -59 -32 -102q-8 -76 -102 -132q-2 -26 18 -44q8 -7 42 -28q28 -17 37 -33q-4 -2 -7 -19q-2 -13 -16 -10q-30 24 -87 80q-5 -1 -10 -1q-34 0 -73 37q-53 49 -67 56q-19 22 -29 84q-9 58 -35 80l1 22l28 -35q0 15 6 41.5t6 38.5q0 20 -12 36q-6 22 -6 44
q0 43 24 94q10 21 48 85q11 4 26.5 17.5t26.5 17.5l2 -5q-47 -48 -71 -84q-32 -49 -39 -103q-3 -11 -3 -23q0 -20 8 -37q6 18 12 49q4 26 9 53q9 28 40 68q35 45 44 64q1 -1 11 -6q7 -4 7 -9q0 -2 -1 -6q-19 -7 -25 -28q-10 -35 -13 -39q-61 -66 -61 -168q0 -24 3 -47
q11 -20 22 -71q9 -47 26 -70q-2 -24 13 -41q9 -11 34.5 -27t35.5 -26q3 10 14 17q9 6 19 13l60 75q34 46 34 88q0 15 -3 30q-6 68 -37 120q-5 100 -82 159q-8 7 -17 15q-9 7 -18 7q0 13 14 20l11 -2q48 -41 69 -66q35 -43 39 -86q56 -79 56 -163zM96 197q24 -35 61 -46
q-24 16 -37 45q-8 18 -16 57q-9 39 -17 56q2 5 2 10q0 12 -16 42q-7 -31 -3 -88q2 -42 26 -76zM135 338v-4q-13 -5 -14 -4q-5 2 -5 6q0 2 3.5 7t4.5 6q11 -2 11 -11zM208 539q0 -5 10 -14q-7 -2 -14 3t-14 9q2 10 13 10q5 0 8 -3q-3 -2 -3 -5zM237 421v-9q-38 -5 -47 3
q2 15 12 15q4 0 18 -6q12 -5 17 -3zM271 324.5q0 -2.5 -3 -2.5q-1 -5 -6.5 -5t-7.5 2.5t-2 4.5q0 3 6.5 5t8.5 5q0 -2 2 -4.5t2 -5zM381 685q4 -10 6 -12q-11 -7 -19 -3q-4 5 -4 9q0 8 8 14q7 0 9 -8zM434.5 242q7.5 12 8.5 15l-7 -46q-9 5 -9 12t7.5 19z" />
    <glyph glyph-name="R" unicode="R" horiz-adv-x="469" 
d="M30 622q16 0 19 2q-6 -4 -13 -7.5t-7 -7t4 -6.5q-6 0 -9.5 5t-7.5 6q2 8 14 8zM51.5 470q2.5 -9 5.5 -17q-3 -4 -6.5 -4t-9 5.5t-7.5 5.5q-4 3 -4 7q0 3 5.5 7.5t6.5 6.5q7 -2 9.5 -11zM354 155q39 -74 63 -112q1 -1 6 -14q3 -9 3 -14q0 -10 -11 -15q-40 26 -76 81
q-52 78 -63 91q-28 30 -56 61q-33 36 -50 68l-37 -19l-24 -243q-20 -6 -18 -6q-5 9 -9 38q-3 26 -12 35q8 177 28 578q7 14 13 14q3 0 9 -9t10 -9q7 0 14 12l17 -6q25 -24 78 -44q64 -25 81 -36q42 -26 60 -70q9 -14 9 -28t-9 -22q-19 -10 -34 -40q-19 -36 -29 -47
q-13 -14 -40 -33q-35 -26 -44 -34q6 -13 29 -30.5t30 -34.5q23 -36 62 -112zM189 377q76 30 105 79q2 12 2 24q0 49 -48 93q-23 21 -91 65l-39 -148q22 -77 22 -138q0 -14 -1 -26q2 3 15 14q11 9 11 18q0 5 -4 13q4 0 10.5 7t9.5 7q5 0 8 -8zM155 43v-6l-18 2q-4 3 -4 6
t9 12q4 -2 9 -4q5 -1 5 -6q0 -1 -1 -4zM197 483.5q9 5.5 14 -2.5q-2 -7 -14 -9.5t-12 -9.5q-16 10 -22 24q6 10 16 10q5 0 6 -8q3 -10 12 -4.5zM234 86q0 -12 1 -14q-21 -6 -26 -5q-2 8 5 16q6 5 12 11q9 -2 8 -8zM268 231q25 -23 30 -27q-3 3 -34 49q-21 30 -42 42
q5 -19 18 -35q10 -13 28 -29zM286 589q10 -5 18 -7q-3 8 -30 19q3 -8 12 -12zM352 495h9q0 25 -42 71zM405 636q10 -26 21 -30q-3 -3 -6 -3t-7 5t-9 6q-9 7 -18 15q-13 11 -13 19q0 6 7 11q17 0 25 -23zM407.5 300.5q9.5 -19.5 25.5 -18.5q-5 -6 -10.5 -6t-18.5 10.5
t-20 10.5q-7 5 -7 12q0 6 5 8q16 3 25.5 -16.5zM421 416q0 23 24 20q-1 -7 -6 -39q-2 -23 -9 -35q0 7 -4.5 26t-4.5 28z" />
    <glyph glyph-name="R" unicode="r" horiz-adv-x="469" 
d="M30 622q16 0 19 2q-6 -4 -13 -7.5t-7 -7t4 -6.5q-6 0 -9.5 5t-7.5 6q2 8 14 8zM51.5 470q2.5 -9 5.5 -17q-3 -4 -6.5 -4t-9 5.5t-7.5 5.5q-4 3 -4 7q0 3 5.5 7.5t6.5 6.5q7 -2 9.5 -11zM354 155q39 -74 63 -112q1 -1 6 -14q3 -9 3 -14q0 -10 -11 -15q-40 26 -76 81
q-52 78 -63 91q-28 30 -56 61q-33 36 -50 68l-37 -19l-24 -243q-20 -6 -18 -6q-5 9 -9 38q-3 26 -12 35q8 177 28 578q7 14 13 14q3 0 9 -9t10 -9q7 0 14 12l17 -6q25 -24 78 -44q64 -25 81 -36q42 -26 60 -70q9 -14 9 -28t-9 -22q-19 -10 -34 -40q-19 -36 -29 -47
q-13 -14 -40 -33q-35 -26 -44 -34q6 -13 29 -30.5t30 -34.5q23 -36 62 -112zM189 377q76 30 105 79q2 12 2 24q0 49 -48 93q-23 21 -91 65l-39 -148q22 -77 22 -138q0 -14 -1 -26q2 3 15 14q11 9 11 18q0 5 -4 13q4 0 10.5 7t9.5 7q5 0 8 -8zM155 43v-6l-18 2q-4 3 -4 6
t9 12q4 -2 9 -4q5 -1 5 -6q0 -1 -1 -4zM197 483.5q9 5.5 14 -2.5q-2 -7 -14 -9.5t-12 -9.5q-16 10 -22 24q6 10 16 10q5 0 6 -8q3 -10 12 -4.5zM234 86q0 -12 1 -14q-21 -6 -26 -5q-2 8 5 16q6 5 12 11q9 -2 8 -8zM268 231q25 -23 30 -27q-3 3 -34 49q-21 30 -42 42
q5 -19 18 -35q10 -13 28 -29zM286 589q10 -5 18 -7q-3 8 -30 19q3 -8 12 -12zM352 495h9q0 25 -42 71zM405 636q10 -26 21 -30q-3 -3 -6 -3t-7 5t-9 6q-9 7 -18 15q-13 11 -13 19q0 6 7 11q17 0 25 -23zM407.5 300.5q9.5 -19.5 25.5 -18.5q-5 -6 -10.5 -6t-18.5 10.5
t-20 10.5q-7 5 -7 12q0 6 5 8q16 3 25.5 -16.5zM421 416q0 23 24 20q-1 -7 -6 -39q-2 -23 -9 -35q0 7 -4.5 26t-4.5 28z" />
    <glyph glyph-name="S" unicode="S" horiz-adv-x="415" 
d="M13 556q8 -6 13 -29l-13 -7q-6 6 -6 16t6 20zM84 274q12 -5 19 -12q-5 -16 -12 -16q-5 0 -15 16t-15 19q16 -4 23 -7zM331 212q0 -14 -13 -26q-24 -46 -79 -100q-44 -43 -89 -86q-9 -1 -15.5 9.5t-11 10.5t-11.5 -5v9l102 93h16q17 20 37 43q20 25 18 51q-31 61 -96 125
q-57 56 -114 111q-5 14 -5 27q0 32 28 63q12 14 52 48q15 7 48 41q29 32 52 40q15 32 53 32l9 -7q-1 -14 -18 -19q-20 -7 -25 -14q-43 -30 -83 -84q-31 -44 -67 -98q-2 -5 -2 -9q0 -14 16 -23q24 -15 26 -16q43 -18 85 -64q13 -17 38 -47l30 -36q-3 -13 8 -35q11 -23 11 -34
zM97 481l24 39q-21 -16 -24 -39zM110 183q12 0 16 -15v-14q1 -10 -7 -10q-14 -2 -14 26v11q3 2 5 2zM345 481h4q4 -22 -24 -34q6 27 20 34zM384 120q0 -5 -8 -10q-11 0 -24 7q-10 5 -21 11l36 4q0 6 2 6q1 -1 8 -7.5t7 -10.5zM382 597q8 1 13.5 -2t5.5 -10t-8 -15
q-11 0 -21 20q1 6 10 7z" />
    <glyph glyph-name="S" unicode="s" horiz-adv-x="415" 
d="M13 556q8 -6 13 -29l-13 -7q-6 6 -6 16t6 20zM84 274q12 -5 19 -12q-5 -16 -12 -16q-5 0 -15 16t-15 19q16 -4 23 -7zM331 212q0 -14 -13 -26q-24 -46 -79 -100q-44 -43 -89 -86q-9 -1 -15.5 9.5t-11 10.5t-11.5 -5v9l102 93h16q17 20 37 43q20 25 18 51q-31 61 -96 125
q-57 56 -114 111q-5 14 -5 27q0 32 28 63q12 14 52 48q15 7 48 41q29 32 52 40q15 32 53 32l9 -7q-1 -14 -18 -19q-20 -7 -25 -14q-43 -30 -83 -84q-31 -44 -67 -98q-2 -5 -2 -9q0 -14 16 -23q24 -15 26 -16q43 -18 85 -64q13 -17 38 -47l30 -36q-3 -13 8 -35q11 -23 11 -34
zM97 481l24 39q-21 -16 -24 -39zM110 183q12 0 16 -15v-14q1 -10 -7 -10q-14 -2 -14 26v11q3 2 5 2zM345 481h4q4 -22 -24 -34q6 27 20 34zM384 120q0 -5 -8 -10q-11 0 -24 7q-10 5 -21 11l36 4q0 6 2 6q1 -1 8 -7.5t7 -10.5zM382 597q8 1 13.5 -2t5.5 -10t-8 -15
q-11 0 -21 20q1 6 10 7z" />
    <glyph glyph-name="T" unicode="T" horiz-adv-x="482" 
d="M4 520q0 7 16 5q8 -5 8 -10q0 -4 -5.5 -10.5t-6.5 -9.5q0 4 -6 13t-6 12zM400 680q52 -1 76 -42q-4 -2 -9 -10t-10 -6l2 2q-35 26 -92 22q-18 -12 -43 -12q-8 0 -23 1t-23 1q-18 0 -32 -5q4 -9 10 -34q5 -21 12 -32q-3 -28 -3 -61q0 -35 5 -103t5 -102q0 -61 -11 -110
q2 -14 2 -31q0 -19 -6 -62q-6 -42 -6 -64q0 -20 4 -37q-16 2 -22 16q-4 9 -6 31.5t-6 31.5l-8 -15q-4 -4 -9 -4q-15 0 -18 14q26 193 26 363q0 103 -9 209q-16 3 -60 2q-38 0 -59 7q-22 -9 -36 -9q-17 0 -28 12q13 27 42 27q10 0 33 -4.5t34.5 -4.5t21.5 3q8 -5 18 -5
q8 0 23 4t21 4q13 0 19 -10q16 -5 35 -5q21 0 65.5 9t64.5 9zM102 218q7 0 23 -7q2 -3 2 -5q0 -4 -7 -6q-10 -2 -11 -2q-8 -3 -13.5 2.5t-5.5 13.5q5 4 12 4zM455 391q3 0 9 -4v-25q-2 -13 -12 -16q1 5 -4.5 9.5t-6.5 5.5q5 3 7 17q1 13 7 13z" />
    <glyph glyph-name="T" unicode="t" horiz-adv-x="482" 
d="M4 520q0 7 16 5q8 -5 8 -10q0 -4 -5.5 -10.5t-6.5 -9.5q0 4 -6 13t-6 12zM400 680q52 -1 76 -42q-4 -2 -9 -10t-10 -6l2 2q-35 26 -92 22q-18 -12 -43 -12q-8 0 -23 1t-23 1q-18 0 -32 -5q4 -9 10 -34q5 -21 12 -32q-3 -28 -3 -61q0 -35 5 -103t5 -102q0 -61 -11 -110
q2 -14 2 -31q0 -19 -6 -62q-6 -42 -6 -64q0 -20 4 -37q-16 2 -22 16q-4 9 -6 31.5t-6 31.5l-8 -15q-4 -4 -9 -4q-15 0 -18 14q26 193 26 363q0 103 -9 209q-16 3 -60 2q-38 0 -59 7q-22 -9 -36 -9q-17 0 -28 12q13 27 42 27q10 0 33 -4.5t34.5 -4.5t21.5 3q8 -5 18 -5
q8 0 23 4t21 4q13 0 19 -10q16 -5 35 -5q21 0 65.5 9t64.5 9zM102 218q7 0 23 -7q2 -3 2 -5q0 -4 -7 -6q-10 -2 -11 -2q-8 -3 -13.5 2.5t-5.5 13.5q5 4 12 4zM455 391q3 0 9 -4v-25q-2 -13 -12 -16q1 5 -4.5 9.5t-6.5 5.5q5 3 7 17q1 13 7 13z" />
    <glyph glyph-name="U" unicode="U" horiz-adv-x="696" 
d="M27 503q8 0 16 -8q0 -11 -3 -12q-5 -7 -12 -7q-5 0 -29 14q26 13 28 13zM603.5 554q-10.5 -43 -9.5 -61q-13 -30 -20 -45q-11 -28 -11 -48q0 -7 2 -15q-25 -137 -38 -182q-29 -100 -82 -159q-21 -14 -53 -14q-27 0 -49 11q-63 34 -103 101q-25 43 -56 132q-34 97 -53 135
q-6 -5 -20 -5q-10 0 -14 5t-4 9t7.5 8t7.5 9q0 3 -1 7q-12 30 -20 92q-8 65 -17 93q0 7 5 24q5 15 5 23q0 12 -8 21l10 3l51 -103q1 -3 43 -180q26 -108 54 -174q38 -91 98 -153q16 1 33 13q30 20 31 21q31 17 51 53q12 21 28 71q16 48 28 69q23 14 28 39q2 12 3 51
q0 32 8 48q-5 20 -5 40q0 44 39 131l-4 37q0 18 9 27q37 -24 37 -69q0 -22 -10.5 -65zM87 239q36 -12 39 -32q-9 -7 -15 -7q-8 0 -13.5 18.5t-10.5 20.5zM204 31q12 4 34 -7q2 -13 -8 -16t-21 -5q-2 -1 -5 -3q2 1 5 3q6 3 6 8q0 4 -5 11.5t-6 8.5zM384 627l13 -17
q-3 -12 -11 -23.5t-17 -8.5q0 30 15 49zM415 344q13 0 13 -17q-4 -10 -14 -10q-7 0 -20.5 4.5l-16.5 5.5q0 5 2.5 6.5t15.5 6t20 4.5zM489 188q22 51 22 95q-24 -65 -66 -180q40 77 44 85zM672 85q12 2 25 -17q-4 -1 -21 -11q-12 -7 -21 -6q1 8 -6 10h-13q-8 0 -8 7
q3 3 11 3h7h9q16 0 17 14z" />
    <glyph glyph-name="U" unicode="&#xfc;" horiz-adv-x="696" 
d="M27 503q8 0 16 -8q0 -11 -3 -12q-5 -7 -12 -7q-5 0 -29 14q26 13 28 13zM603.5 554q-10.5 -43 -9.5 -61q-13 -30 -20 -45q-11 -28 -11 -48q0 -7 2 -15q-25 -137 -38 -182q-29 -100 -82 -159q-21 -14 -53 -14q-27 0 -49 11q-63 34 -103 101q-25 43 -56 132q-34 97 -53 135
q-6 -5 -20 -5q-10 0 -14 5t-4 9t7.5 8t7.5 9q0 3 -1 7q-12 30 -20 92q-8 65 -17 93q0 7 5 24q5 15 5 23q0 12 -8 21l10 3l51 -103q1 -3 43 -180q26 -108 54 -174q38 -91 98 -153q16 1 33 13q30 20 31 21q31 17 51 53q12 21 28 71q16 48 28 69q23 14 28 39q2 12 3 51
q0 32 8 48q-5 20 -5 40q0 44 39 131l-4 37q0 18 9 27q37 -24 37 -69q0 -22 -10.5 -65zM87 239q36 -12 39 -32q-9 -7 -15 -7q-8 0 -13.5 18.5t-10.5 20.5zM204 31q12 4 34 -7q2 -13 -8 -16t-21 -5q-2 -1 -5 -3q2 1 5 3q6 3 6 8q0 4 -5 11.5t-6 8.5zM384 627l13 -17
q-3 -12 -11 -23.5t-17 -8.5q0 30 15 49zM415 344q13 0 13 -17q-4 -10 -14 -10q-7 0 -20.5 4.5l-16.5 5.5q0 5 2.5 6.5t15.5 6t20 4.5zM489 188q22 51 22 95q-24 -65 -66 -180q40 77 44 85zM672 85q12 2 25 -17q-4 -1 -21 -11q-12 -7 -21 -6q1 8 -6 10h-13q-8 0 -8 7
q3 3 11 3h7h9q16 0 17 14z" />
    <glyph glyph-name="U" unicode="&#xfb;" horiz-adv-x="696" 
d="M27 503q8 0 16 -8q0 -11 -3 -12q-5 -7 -12 -7q-5 0 -29 14q26 13 28 13zM603.5 554q-10.5 -43 -9.5 -61q-13 -30 -20 -45q-11 -28 -11 -48q0 -7 2 -15q-25 -137 -38 -182q-29 -100 -82 -159q-21 -14 -53 -14q-27 0 -49 11q-63 34 -103 101q-25 43 -56 132q-34 97 -53 135
q-6 -5 -20 -5q-10 0 -14 5t-4 9t7.5 8t7.5 9q0 3 -1 7q-12 30 -20 92q-8 65 -17 93q0 7 5 24q5 15 5 23q0 12 -8 21l10 3l51 -103q1 -3 43 -180q26 -108 54 -174q38 -91 98 -153q16 1 33 13q30 20 31 21q31 17 51 53q12 21 28 71q16 48 28 69q23 14 28 39q2 12 3 51
q0 32 8 48q-5 20 -5 40q0 44 39 131l-4 37q0 18 9 27q37 -24 37 -69q0 -22 -10.5 -65zM87 239q36 -12 39 -32q-9 -7 -15 -7q-8 0 -13.5 18.5t-10.5 20.5zM204 31q12 4 34 -7q2 -13 -8 -16t-21 -5q-2 -1 -5 -3q2 1 5 3q6 3 6 8q0 4 -5 11.5t-6 8.5zM384 627l13 -17
q-3 -12 -11 -23.5t-17 -8.5q0 30 15 49zM415 344q13 0 13 -17q-4 -10 -14 -10q-7 0 -20.5 4.5l-16.5 5.5q0 5 2.5 6.5t15.5 6t20 4.5zM489 188q22 51 22 95q-24 -65 -66 -180q40 77 44 85zM672 85q12 2 25 -17q-4 -1 -21 -11q-12 -7 -21 -6q1 8 -6 10h-13q-8 0 -8 7
q3 3 11 3h7h9q16 0 17 14z" />
    <glyph glyph-name="U" unicode="&#xfa;" horiz-adv-x="696" 
d="M27 503q8 0 16 -8q0 -11 -3 -12q-5 -7 -12 -7q-5 0 -29 14q26 13 28 13zM603.5 554q-10.5 -43 -9.5 -61q-13 -30 -20 -45q-11 -28 -11 -48q0 -7 2 -15q-25 -137 -38 -182q-29 -100 -82 -159q-21 -14 -53 -14q-27 0 -49 11q-63 34 -103 101q-25 43 -56 132q-34 97 -53 135
q-6 -5 -20 -5q-10 0 -14 5t-4 9t7.5 8t7.5 9q0 3 -1 7q-12 30 -20 92q-8 65 -17 93q0 7 5 24q5 15 5 23q0 12 -8 21l10 3l51 -103q1 -3 43 -180q26 -108 54 -174q38 -91 98 -153q16 1 33 13q30 20 31 21q31 17 51 53q12 21 28 71q16 48 28 69q23 14 28 39q2 12 3 51
q0 32 8 48q-5 20 -5 40q0 44 39 131l-4 37q0 18 9 27q37 -24 37 -69q0 -22 -10.5 -65zM87 239q36 -12 39 -32q-9 -7 -15 -7q-8 0 -13.5 18.5t-10.5 20.5zM204 31q12 4 34 -7q2 -13 -8 -16t-21 -5q-2 -1 -5 -3q2 1 5 3q6 3 6 8q0 4 -5 11.5t-6 8.5zM384 627l13 -17
q-3 -12 -11 -23.5t-17 -8.5q0 30 15 49zM415 344q13 0 13 -17q-4 -10 -14 -10q-7 0 -20.5 4.5l-16.5 5.5q0 5 2.5 6.5t15.5 6t20 4.5zM489 188q22 51 22 95q-24 -65 -66 -180q40 77 44 85zM672 85q12 2 25 -17q-4 -1 -21 -11q-12 -7 -21 -6q1 8 -6 10h-13q-8 0 -8 7
q3 3 11 3h7h9q16 0 17 14z" />
    <glyph glyph-name="U" unicode="&#xf9;" horiz-adv-x="696" 
d="M27 503q8 0 16 -8q0 -11 -3 -12q-5 -7 -12 -7q-5 0 -29 14q26 13 28 13zM603.5 554q-10.5 -43 -9.5 -61q-13 -30 -20 -45q-11 -28 -11 -48q0 -7 2 -15q-25 -137 -38 -182q-29 -100 -82 -159q-21 -14 -53 -14q-27 0 -49 11q-63 34 -103 101q-25 43 -56 132q-34 97 -53 135
q-6 -5 -20 -5q-10 0 -14 5t-4 9t7.5 8t7.5 9q0 3 -1 7q-12 30 -20 92q-8 65 -17 93q0 7 5 24q5 15 5 23q0 12 -8 21l10 3l51 -103q1 -3 43 -180q26 -108 54 -174q38 -91 98 -153q16 1 33 13q30 20 31 21q31 17 51 53q12 21 28 71q16 48 28 69q23 14 28 39q2 12 3 51
q0 32 8 48q-5 20 -5 40q0 44 39 131l-4 37q0 18 9 27q37 -24 37 -69q0 -22 -10.5 -65zM87 239q36 -12 39 -32q-9 -7 -15 -7q-8 0 -13.5 18.5t-10.5 20.5zM204 31q12 4 34 -7q2 -13 -8 -16t-21 -5q-2 -1 -5 -3q2 1 5 3q6 3 6 8q0 4 -5 11.5t-6 8.5zM384 627l13 -17
q-3 -12 -11 -23.5t-17 -8.5q0 30 15 49zM415 344q13 0 13 -17q-4 -10 -14 -10q-7 0 -20.5 4.5l-16.5 5.5q0 5 2.5 6.5t15.5 6t20 4.5zM489 188q22 51 22 95q-24 -65 -66 -180q40 77 44 85zM672 85q12 2 25 -17q-4 -1 -21 -11q-12 -7 -21 -6q1 8 -6 10h-13q-8 0 -8 7
q3 3 11 3h7h9q16 0 17 14z" />
    <glyph glyph-name="U" unicode="&#xdc;" horiz-adv-x="696" 
d="M27 503q8 0 16 -8q0 -11 -3 -12q-5 -7 -12 -7q-5 0 -29 14q26 13 28 13zM603.5 554q-10.5 -43 -9.5 -61q-13 -30 -20 -45q-11 -28 -11 -48q0 -7 2 -15q-25 -137 -38 -182q-29 -100 -82 -159q-21 -14 -53 -14q-27 0 -49 11q-63 34 -103 101q-25 43 -56 132q-34 97 -53 135
q-6 -5 -20 -5q-10 0 -14 5t-4 9t7.5 8t7.5 9q0 3 -1 7q-12 30 -20 92q-8 65 -17 93q0 7 5 24q5 15 5 23q0 12 -8 21l10 3l51 -103q1 -3 43 -180q26 -108 54 -174q38 -91 98 -153q16 1 33 13q30 20 31 21q31 17 51 53q12 21 28 71q16 48 28 69q23 14 28 39q2 12 3 51
q0 32 8 48q-5 20 -5 40q0 44 39 131l-4 37q0 18 9 27q37 -24 37 -69q0 -22 -10.5 -65zM87 239q36 -12 39 -32q-9 -7 -15 -7q-8 0 -13.5 18.5t-10.5 20.5zM204 31q12 4 34 -7q2 -13 -8 -16t-21 -5q-2 -1 -5 -3q2 1 5 3q6 3 6 8q0 4 -5 11.5t-6 8.5zM384 627l13 -17
q-3 -12 -11 -23.5t-17 -8.5q0 30 15 49zM415 344q13 0 13 -17q-4 -10 -14 -10q-7 0 -20.5 4.5l-16.5 5.5q0 5 2.5 6.5t15.5 6t20 4.5zM489 188q22 51 22 95q-24 -65 -66 -180q40 77 44 85zM672 85q12 2 25 -17q-4 -1 -21 -11q-12 -7 -21 -6q1 8 -6 10h-13q-8 0 -8 7
q3 3 11 3h7h9q16 0 17 14z" />
    <glyph glyph-name="U" unicode="&#xdb;" horiz-adv-x="696" 
d="M27 503q8 0 16 -8q0 -11 -3 -12q-5 -7 -12 -7q-5 0 -29 14q26 13 28 13zM603.5 554q-10.5 -43 -9.5 -61q-13 -30 -20 -45q-11 -28 -11 -48q0 -7 2 -15q-25 -137 -38 -182q-29 -100 -82 -159q-21 -14 -53 -14q-27 0 -49 11q-63 34 -103 101q-25 43 -56 132q-34 97 -53 135
q-6 -5 -20 -5q-10 0 -14 5t-4 9t7.5 8t7.5 9q0 3 -1 7q-12 30 -20 92q-8 65 -17 93q0 7 5 24q5 15 5 23q0 12 -8 21l10 3l51 -103q1 -3 43 -180q26 -108 54 -174q38 -91 98 -153q16 1 33 13q30 20 31 21q31 17 51 53q12 21 28 71q16 48 28 69q23 14 28 39q2 12 3 51
q0 32 8 48q-5 20 -5 40q0 44 39 131l-4 37q0 18 9 27q37 -24 37 -69q0 -22 -10.5 -65zM87 239q36 -12 39 -32q-9 -7 -15 -7q-8 0 -13.5 18.5t-10.5 20.5zM204 31q12 4 34 -7q2 -13 -8 -16t-21 -5q-2 -1 -5 -3q2 1 5 3q6 3 6 8q0 4 -5 11.5t-6 8.5zM384 627l13 -17
q-3 -12 -11 -23.5t-17 -8.5q0 30 15 49zM415 344q13 0 13 -17q-4 -10 -14 -10q-7 0 -20.5 4.5l-16.5 5.5q0 5 2.5 6.5t15.5 6t20 4.5zM489 188q22 51 22 95q-24 -65 -66 -180q40 77 44 85zM672 85q12 2 25 -17q-4 -1 -21 -11q-12 -7 -21 -6q1 8 -6 10h-13q-8 0 -8 7
q3 3 11 3h7h9q16 0 17 14z" />
    <glyph glyph-name="U" unicode="&#xda;" horiz-adv-x="696" 
d="M27 503q8 0 16 -8q0 -11 -3 -12q-5 -7 -12 -7q-5 0 -29 14q26 13 28 13zM603.5 554q-10.5 -43 -9.5 -61q-13 -30 -20 -45q-11 -28 -11 -48q0 -7 2 -15q-25 -137 -38 -182q-29 -100 -82 -159q-21 -14 -53 -14q-27 0 -49 11q-63 34 -103 101q-25 43 -56 132q-34 97 -53 135
q-6 -5 -20 -5q-10 0 -14 5t-4 9t7.5 8t7.5 9q0 3 -1 7q-12 30 -20 92q-8 65 -17 93q0 7 5 24q5 15 5 23q0 12 -8 21l10 3l51 -103q1 -3 43 -180q26 -108 54 -174q38 -91 98 -153q16 1 33 13q30 20 31 21q31 17 51 53q12 21 28 71q16 48 28 69q23 14 28 39q2 12 3 51
q0 32 8 48q-5 20 -5 40q0 44 39 131l-4 37q0 18 9 27q37 -24 37 -69q0 -22 -10.5 -65zM87 239q36 -12 39 -32q-9 -7 -15 -7q-8 0 -13.5 18.5t-10.5 20.5zM204 31q12 4 34 -7q2 -13 -8 -16t-21 -5q-2 -1 -5 -3q2 1 5 3q6 3 6 8q0 4 -5 11.5t-6 8.5zM384 627l13 -17
q-3 -12 -11 -23.5t-17 -8.5q0 30 15 49zM415 344q13 0 13 -17q-4 -10 -14 -10q-7 0 -20.5 4.5l-16.5 5.5q0 5 2.5 6.5t15.5 6t20 4.5zM489 188q22 51 22 95q-24 -65 -66 -180q40 77 44 85zM672 85q12 2 25 -17q-4 -1 -21 -11q-12 -7 -21 -6q1 8 -6 10h-13q-8 0 -8 7
q3 3 11 3h7h9q16 0 17 14z" />
    <glyph glyph-name="U" unicode="&#xd9;" horiz-adv-x="696" 
d="M27 503q8 0 16 -8q0 -11 -3 -12q-5 -7 -12 -7q-5 0 -29 14q26 13 28 13zM603.5 554q-10.5 -43 -9.5 -61q-13 -30 -20 -45q-11 -28 -11 -48q0 -7 2 -15q-25 -137 -38 -182q-29 -100 -82 -159q-21 -14 -53 -14q-27 0 -49 11q-63 34 -103 101q-25 43 -56 132q-34 97 -53 135
q-6 -5 -20 -5q-10 0 -14 5t-4 9t7.5 8t7.5 9q0 3 -1 7q-12 30 -20 92q-8 65 -17 93q0 7 5 24q5 15 5 23q0 12 -8 21l10 3l51 -103q1 -3 43 -180q26 -108 54 -174q38 -91 98 -153q16 1 33 13q30 20 31 21q31 17 51 53q12 21 28 71q16 48 28 69q23 14 28 39q2 12 3 51
q0 32 8 48q-5 20 -5 40q0 44 39 131l-4 37q0 18 9 27q37 -24 37 -69q0 -22 -10.5 -65zM87 239q36 -12 39 -32q-9 -7 -15 -7q-8 0 -13.5 18.5t-10.5 20.5zM204 31q12 4 34 -7q2 -13 -8 -16t-21 -5q-2 -1 -5 -3q2 1 5 3q6 3 6 8q0 4 -5 11.5t-6 8.5zM384 627l13 -17
q-3 -12 -11 -23.5t-17 -8.5q0 30 15 49zM415 344q13 0 13 -17q-4 -10 -14 -10q-7 0 -20.5 4.5l-16.5 5.5q0 5 2.5 6.5t15.5 6t20 4.5zM489 188q22 51 22 95q-24 -65 -66 -180q40 77 44 85zM672 85q12 2 25 -17q-4 -1 -21 -11q-12 -7 -21 -6q1 8 -6 10h-13q-8 0 -8 7
q3 3 11 3h7h9q16 0 17 14z" />
    <glyph glyph-name="U" unicode="u" horiz-adv-x="696" 
d="M27 503q8 0 16 -8q0 -11 -3 -12q-5 -7 -12 -7q-5 0 -29 14q26 13 28 13zM603.5 554q-10.5 -43 -9.5 -61q-13 -30 -20 -45q-11 -28 -11 -48q0 -7 2 -15q-25 -137 -38 -182q-29 -100 -82 -159q-21 -14 -53 -14q-27 0 -49 11q-63 34 -103 101q-25 43 -56 132q-34 97 -53 135
q-6 -5 -20 -5q-10 0 -14 5t-4 9t7.5 8t7.5 9q0 3 -1 7q-12 30 -20 92q-8 65 -17 93q0 7 5 24q5 15 5 23q0 12 -8 21l10 3l51 -103q1 -3 43 -180q26 -108 54 -174q38 -91 98 -153q16 1 33 13q30 20 31 21q31 17 51 53q12 21 28 71q16 48 28 69q23 14 28 39q2 12 3 51
q0 32 8 48q-5 20 -5 40q0 44 39 131l-4 37q0 18 9 27q37 -24 37 -69q0 -22 -10.5 -65zM87 239q36 -12 39 -32q-9 -7 -15 -7q-8 0 -13.5 18.5t-10.5 20.5zM204 31q12 4 34 -7q2 -13 -8 -16t-21 -5q-2 -1 -5 -3q2 1 5 3q6 3 6 8q0 4 -5 11.5t-6 8.5zM384 627l13 -17
q-3 -12 -11 -23.5t-17 -8.5q0 30 15 49zM415 344q13 0 13 -17q-4 -10 -14 -10q-7 0 -20.5 4.5l-16.5 5.5q0 5 2.5 6.5t15.5 6t20 4.5zM489 188q22 51 22 95q-24 -65 -66 -180q40 77 44 85zM672 85q12 2 25 -17q-4 -1 -21 -11q-12 -7 -21 -6q1 8 -6 10h-13q-8 0 -8 7
q3 3 11 3h7h9q16 0 17 14z" />
    <glyph glyph-name="V" unicode="V" horiz-adv-x="448" 
d="M429 663l6 -7q-12 -42 -25 -124q-14 -89 -23 -127q-17 -38 -34 -145q-14 -91 -47 -139q-5 -73 -51 -121q-4 -1 -7 -1q-9 0 -25 18q3 19 -8 26q-12 3 -23 7q-12 3 -12 16q0 5 3 14q-40 88 -71 205q-20 73 -49 215q-30 145 -49 214q11 -4 22 -16l17 -19q32 -124 91 -371
q19 -23 27 -69q13 -66 15 -73q13 -38 44 -54q17 17 24 61q7 48 19 64q107 152 100 306q4 17 4 63q0 40 9 62q12 -3 15 -18q5 -21 6 -24q4 4 9 21q4 14 13 16zM54 194q7 0 12 -13q-12 -21 -50 -16l-1 7q6 1 19.5 11.5t19.5 10.5zM241 38q5 2 13 11q-10 -2 -16.5 8t-14.5 9
q-2 -9 6 -17q8 -7 12 -11zM295 623q7 0 15 -6q-3 -13 -29 -24q-1 0 -40 -14q7 3 26 24q16 20 28 20zM312 211q7 29 14 56q-29 -16 -41 -60q-6 -37 -12 -70q10 4 12 26q17 17 27 48z" />
    <glyph glyph-name="V" unicode="v" horiz-adv-x="448" 
d="M429 663l6 -7q-12 -42 -25 -124q-14 -89 -23 -127q-17 -38 -34 -145q-14 -91 -47 -139q-5 -73 -51 -121q-4 -1 -7 -1q-9 0 -25 18q3 19 -8 26q-12 3 -23 7q-12 3 -12 16q0 5 3 14q-40 88 -71 205q-20 73 -49 215q-30 145 -49 214q11 -4 22 -16l17 -19q32 -124 91 -371
q19 -23 27 -69q13 -66 15 -73q13 -38 44 -54q17 17 24 61q7 48 19 64q107 152 100 306q4 17 4 63q0 40 9 62q12 -3 15 -18q5 -21 6 -24q4 4 9 21q4 14 13 16zM54 194q7 0 12 -13q-12 -21 -50 -16l-1 7q6 1 19.5 11.5t19.5 10.5zM241 38q5 2 13 11q-10 -2 -16.5 8t-14.5 9
q-2 -9 6 -17q8 -7 12 -11zM295 623q7 0 15 -6q-3 -13 -29 -24q-1 0 -40 -14q7 3 26 24q16 20 28 20zM312 211q7 29 14 56q-29 -16 -41 -60q-6 -37 -12 -70q10 4 12 26q17 17 27 48z" />
    <glyph glyph-name="W" unicode="W" horiz-adv-x="654" 
d="M24 404q7 0 13 -19q-2 -3 -7 -18q-3 -11 -14 -11q-3 5 -3 17q0 31 11 31zM69 175q12 0 13 -13q-2 -1 -14 -8q-8 -5 -14 -5q-5 0 -10 4q2 9 9.5 15.5t15.5 6.5zM639 607v-50q-39 -93 -70 -238q-25 -125 -48 -241q-6 -24 -30 -24h-11q-7 1 -10 1q-12 0 -20 -4
q-34 54 -55 147q-10 48 -33 158q-29 -102 -39 -203q-7 -29 -31 -40q-29 -8 -47 -14q-25 -9 -32 -32q-7 -6 -12 -6q-7 0 -14 10q-11 12 -14 14q-25 78 -43 208q-24 182 -31 214q-20 59 -20 133q20 -4 31 -30q10 -25 17 -46q19 -225 99 -387q32 81 67 166q37 98 46 175
q3 15 -3 38q-6 27 -6 37q0 20 14 33q16 2 21 -13q2 -17 4 -27q12 39 18 95q11 0 16 -13l6 -21q37 -18 37 -63q0 -15 -7 -57q-6 -37 -5 -56q6 -5 6 -13q0 -4 -2 -13.5t-2 -14.5q0 -9 7 -13q0 -23 -2 -79q-3 -53 -3 -80q0 -92 17 -153l10 5q4 107 58 226q30 28 41 70
q8 28 9 82q2 60 6 85q2 50 41 74q17 -11 19 -40zM166 8q16 0 14 -16l-9 -9q-2 2 -10 6t-8 9q0 3 2 6q4 4 11 4zM189 170q7 -27 7 -38q10 9 10 20t-10 29q-11 22 -13 28q0 -15 6 -39zM221 565q6 -3 10 -1q-19 -41 -40 -44q-1 5 3 12q13 11 13 19q0 4 -4 8q5 9 10 9q2 0 8 -3z
M320 292q17 63 35 129l-1 36q-10 -51 -34 -140q-26 -97 -36 -140q-10 -12 -22 -40q6 -5 11 -5q7 0 16 12q13 16 14 18q-2 54 17 130zM372 482l6 55l-9 -35zM393 305q8 -31 18 -73l-19 221q-10 -30 -10 -65t11 -83zM434 567q0 29 -17 50l-13 -18q3 -47 12 -135q1 15 10 52
q8 34 8 51zM421 356q6 7 1 31zM499 100q4 15 4 28q-4 -14 -13 -41q2 -1 4.5 2.5t4.5 10.5zM616 587q0 10 3 17h-5q1 -12 -5 -30.5t-6 -26.5q0 -6 2 -13q13 9 13 27q0 4 -1 13t-1 13z" />
    <glyph glyph-name="W" unicode="w" horiz-adv-x="654" 
d="M24 404q7 0 13 -19q-2 -3 -7 -18q-3 -11 -14 -11q-3 5 -3 17q0 31 11 31zM69 175q12 0 13 -13q-2 -1 -14 -8q-8 -5 -14 -5q-5 0 -10 4q2 9 9.5 15.5t15.5 6.5zM639 607v-50q-39 -93 -70 -238q-25 -125 -48 -241q-6 -24 -30 -24h-11q-7 1 -10 1q-12 0 -20 -4
q-34 54 -55 147q-10 48 -33 158q-29 -102 -39 -203q-7 -29 -31 -40q-29 -8 -47 -14q-25 -9 -32 -32q-7 -6 -12 -6q-7 0 -14 10q-11 12 -14 14q-25 78 -43 208q-24 182 -31 214q-20 59 -20 133q20 -4 31 -30q10 -25 17 -46q19 -225 99 -387q32 81 67 166q37 98 46 175
q3 15 -3 38q-6 27 -6 37q0 20 14 33q16 2 21 -13q2 -17 4 -27q12 39 18 95q11 0 16 -13l6 -21q37 -18 37 -63q0 -15 -7 -57q-6 -37 -5 -56q6 -5 6 -13q0 -4 -2 -13.5t-2 -14.5q0 -9 7 -13q0 -23 -2 -79q-3 -53 -3 -80q0 -92 17 -153l10 5q4 107 58 226q30 28 41 70
q8 28 9 82q2 60 6 85q2 50 41 74q17 -11 19 -40zM166 8q16 0 14 -16l-9 -9q-2 2 -10 6t-8 9q0 3 2 6q4 4 11 4zM189 170q7 -27 7 -38q10 9 10 20t-10 29q-11 22 -13 28q0 -15 6 -39zM221 565q6 -3 10 -1q-19 -41 -40 -44q-1 5 3 12q13 11 13 19q0 4 -4 8q5 9 10 9q2 0 8 -3z
M320 292q17 63 35 129l-1 36q-10 -51 -34 -140q-26 -97 -36 -140q-10 -12 -22 -40q6 -5 11 -5q7 0 16 12q13 16 14 18q-2 54 17 130zM372 482l6 55l-9 -35zM393 305q8 -31 18 -73l-19 221q-10 -30 -10 -65t11 -83zM434 567q0 29 -17 50l-13 -18q3 -47 12 -135q1 15 10 52
q8 34 8 51zM421 356q6 7 1 31zM499 100q4 15 4 28q-4 -14 -13 -41q2 -1 4.5 2.5t4.5 10.5zM616 587q0 10 3 17h-5q1 -12 -5 -30.5t-6 -26.5q0 -6 2 -13q13 9 13 27q0 4 -1 13t-1 13z" />
    <glyph glyph-name="X" unicode="X" horiz-adv-x="475" 
d="M443 51q7 -11 5 -23q-3 -2 -7 -2q-2 0 -6 1h-6q-10 0 -14 -13q-26 11 -41 48q-13 34 -25 65q-32 107 -80 228l-82 -90q-29 -40 -46 -105q-14 -50 -30 -111q-3 -2 -7 -2t-11 2t-10 2q-8 0 -9 -13q-4 -4 -7 -4q-9 0 -12 19q29 81 86 246q7 13 50 58q31 34 37 68
q-46 36 -106 117q-64 87 -104 123q-2 -1 -4 -1q-3 0 -5 5q-2 9 -3 10q3 1 6 1q7 0 19.5 -13t19.5 -13q4 0 7 5q27 -19 69 -61l66 -66q6 4 6 7q0 2 -6 7t-6 10q1 1 10 1q5 -9 23 -49q13 -32 27 -50q24 36 47 74q28 41 63 55q18 -3 30 16q16 26 26 30q4 -6 20 -7q13 -2 11 -16
q-6 -7 -54 -51q-34 -33 -49 -58q-7 -18 -29 -53q-21 -33 -28 -54q67 -76 90 -169q18 -30 32 -76q9 -31 23 -79q5 -6 14 -19zM150 532q46 -56 84 -86q-18 44 -72 95q-84 79 -88 84q30 -37 76 -93zM86 378l11 -8q3 -7 -3 -14q-8 -11 -8 -13q-5 6 -5 12q0 5 2.5 12.5t2.5 10.5z
M101 471q0 -5 3 -9h-10q0 6 -2.5 20t-2.5 20q0 11 5 16q14 -3 14 -15q0 -5 -3.5 -16t-3.5 -16zM275 712l4 -14q-13 -10 -22 -16q-11 -8 -23 -5q4 3 17 21q9 14 24 14zM269 151l10 -9q0 -12 -2 -13q-9 -9 -13 -9q-3 0 -5 3q1 7 2 17q2 7 8 11zM278 453q10 23 10 25
q-25 -26 -23 -49q7 9 13 24zM367 155q11 -15 17 -20q-5 48 -39 111q-53 96 -57 103q8 -36 30 -89q26 -66 32 -88q8 -4 17 -17zM313 510q15 19 20 30q-26 -13 -40 -59q5 10 20 29zM442 419q12 0 14 -14q-3 -1 -7.5 -6t-8.5 -5h-4q-6 1 -14 3q-7 1 -5 11q9 11 25 11z" />
    <glyph glyph-name="X" unicode="x" horiz-adv-x="475" 
d="M443 51q7 -11 5 -23q-3 -2 -7 -2q-2 0 -6 1h-6q-10 0 -14 -13q-26 11 -41 48q-13 34 -25 65q-32 107 -80 228l-82 -90q-29 -40 -46 -105q-14 -50 -30 -111q-3 -2 -7 -2t-11 2t-10 2q-8 0 -9 -13q-4 -4 -7 -4q-9 0 -12 19q29 81 86 246q7 13 50 58q31 34 37 68
q-46 36 -106 117q-64 87 -104 123q-2 -1 -4 -1q-3 0 -5 5q-2 9 -3 10q3 1 6 1q7 0 19.5 -13t19.5 -13q4 0 7 5q27 -19 69 -61l66 -66q6 4 6 7q0 2 -6 7t-6 10q1 1 10 1q5 -9 23 -49q13 -32 27 -50q24 36 47 74q28 41 63 55q18 -3 30 16q16 26 26 30q4 -6 20 -7q13 -2 11 -16
q-6 -7 -54 -51q-34 -33 -49 -58q-7 -18 -29 -53q-21 -33 -28 -54q67 -76 90 -169q18 -30 32 -76q9 -31 23 -79q5 -6 14 -19zM150 532q46 -56 84 -86q-18 44 -72 95q-84 79 -88 84q30 -37 76 -93zM86 378l11 -8q3 -7 -3 -14q-8 -11 -8 -13q-5 6 -5 12q0 5 2.5 12.5t2.5 10.5z
M101 471q0 -5 3 -9h-10q0 6 -2.5 20t-2.5 20q0 11 5 16q14 -3 14 -15q0 -5 -3.5 -16t-3.5 -16zM275 712l4 -14q-13 -10 -22 -16q-11 -8 -23 -5q4 3 17 21q9 14 24 14zM269 151l10 -9q0 -12 -2 -13q-9 -9 -13 -9q-3 0 -5 3q1 7 2 17q2 7 8 11zM278 453q10 23 10 25
q-25 -26 -23 -49q7 9 13 24zM367 155q11 -15 17 -20q-5 48 -39 111q-53 96 -57 103q8 -36 30 -89q26 -66 32 -88q8 -4 17 -17zM313 510q15 19 20 30q-26 -13 -40 -59q5 10 20 29zM442 419q12 0 14 -14q-3 -1 -7.5 -6t-8.5 -5h-4q-6 1 -14 3q-7 1 -5 11q9 11 25 11z" />
    <glyph glyph-name="Y" unicode="Y" horiz-adv-x="513" 
d="M406 640q31 38 75 47q14 -12 14 -25q0 -10 -10 -28q-11 -21 -13 -33q-11 2 -24.5 -14t-26.5 -14l-62 -90l-24 -22q-13 -14 -13 -27v-7q-29 -53 -33 -131q12 -59 16 -139q2 -72 3 -143q0 -11 -15 -6q-16 0 -16 19q0 5 2 19q3 14 3 20q0 7 -2 12q-7 -15 -17 -73l-9 -4
q-8 2 -8 9q0 2 0.5 6t0.5 5q0 5 -4 7q18 91 16 182q1 4 1 7q0 5 -3 15q-2 9 -2 14q0 10 8 16q-12 20 -13 73q-2 48 -19 70q-19 80 -67 141q-53 66 -128 87q-9 -12 -13.5 -12t-8.5 16.5t-14 18.5q0 4 0.5 9t5.5 6q14 -3 22 -15q3 4 3 7t-5.5 10t-5.5 12t4 10q8 -2 28 -14
q18 -11 30 -13q28 0 48 -19q11 -9 35 -41q21 -30 37 -42q29 -21 45 -78q19 -69 33 -88l26 88q23 23 52 76q30 57 48 76zM81 299q0 -3 1 -7h-5q-7 14 -7 33q0 17 7 29q16 -6 16 -16q0 -4 -6 -17t-6 -22zM153 177l7 -19q-11 -19 -21 -19q-3 0 -6 1q6 4 7 22q1 15 13 15z
M225 470q9 -21 13 -33q-12 51 -20 71q-16 38 -46 58q-2 -4 -2 -9q0 -14 20 -28q21 -16 23 -27q3 -10 12 -32zM297 688q4 0 11 -7q0 -5 1 -15q2 -10 2 -14q0 -10 -9 -12q-1 2 -1 3q0 2 4 6t4 7t-3 6q-8 1 -14.5 -7t-8.5 -8q-3 0 -8 6q4 3 10 20q6 15 12 15zM441.5 133.5
q1.5 -9.5 2.5 -9.5q-11 -20 -23 -28q-8 -5 -32 -11q12 8 24 27q17 26 19 30q8 1 9.5 -8.5zM447 509l14 -14q-10 -19 -34 -24q0 1 7 22q4 12 13 16zM444.5 281q5.5 13 15.5 13q13 -5 13 -14q0 -13 -20 -30q-3 4 -15 7q-9 2 -8 11q9 0 14.5 13z" />
    <glyph glyph-name="Y" unicode="&#x178;" horiz-adv-x="513" 
d="M406 640q31 38 75 47q14 -12 14 -25q0 -10 -10 -28q-11 -21 -13 -33q-11 2 -24.5 -14t-26.5 -14l-62 -90l-24 -22q-13 -14 -13 -27v-7q-29 -53 -33 -131q12 -59 16 -139q2 -72 3 -143q0 -11 -15 -6q-16 0 -16 19q0 5 2 19q3 14 3 20q0 7 -2 12q-7 -15 -17 -73l-9 -4
q-8 2 -8 9q0 2 0.5 6t0.5 5q0 5 -4 7q18 91 16 182q1 4 1 7q0 5 -3 15q-2 9 -2 14q0 10 8 16q-12 20 -13 73q-2 48 -19 70q-19 80 -67 141q-53 66 -128 87q-9 -12 -13.5 -12t-8.5 16.5t-14 18.5q0 4 0.5 9t5.5 6q14 -3 22 -15q3 4 3 7t-5.5 10t-5.5 12t4 10q8 -2 28 -14
q18 -11 30 -13q28 0 48 -19q11 -9 35 -41q21 -30 37 -42q29 -21 45 -78q19 -69 33 -88l26 88q23 23 52 76q30 57 48 76zM81 299q0 -3 1 -7h-5q-7 14 -7 33q0 17 7 29q16 -6 16 -16q0 -4 -6 -17t-6 -22zM153 177l7 -19q-11 -19 -21 -19q-3 0 -6 1q6 4 7 22q1 15 13 15z
M225 470q9 -21 13 -33q-12 51 -20 71q-16 38 -46 58q-2 -4 -2 -9q0 -14 20 -28q21 -16 23 -27q3 -10 12 -32zM297 688q4 0 11 -7q0 -5 1 -15q2 -10 2 -14q0 -10 -9 -12q-1 2 -1 3q0 2 4 6t4 7t-3 6q-8 1 -14.5 -7t-8.5 -8q-3 0 -8 6q4 3 10 20q6 15 12 15zM441.5 133.5
q1.5 -9.5 2.5 -9.5q-11 -20 -23 -28q-8 -5 -32 -11q12 8 24 27q17 26 19 30q8 1 9.5 -8.5zM447 509l14 -14q-10 -19 -34 -24q0 1 7 22q4 12 13 16zM444.5 281q5.5 13 15.5 13q13 -5 13 -14q0 -13 -20 -30q-3 4 -15 7q-9 2 -8 11q9 0 14.5 13z" />
    <glyph glyph-name="Y" unicode="&#xff;" horiz-adv-x="513" 
d="M406 640q31 38 75 47q14 -12 14 -25q0 -10 -10 -28q-11 -21 -13 -33q-11 2 -24.5 -14t-26.5 -14l-62 -90l-24 -22q-13 -14 -13 -27v-7q-29 -53 -33 -131q12 -59 16 -139q2 -72 3 -143q0 -11 -15 -6q-16 0 -16 19q0 5 2 19q3 14 3 20q0 7 -2 12q-7 -15 -17 -73l-9 -4
q-8 2 -8 9q0 2 0.5 6t0.5 5q0 5 -4 7q18 91 16 182q1 4 1 7q0 5 -3 15q-2 9 -2 14q0 10 8 16q-12 20 -13 73q-2 48 -19 70q-19 80 -67 141q-53 66 -128 87q-9 -12 -13.5 -12t-8.5 16.5t-14 18.5q0 4 0.5 9t5.5 6q14 -3 22 -15q3 4 3 7t-5.5 10t-5.5 12t4 10q8 -2 28 -14
q18 -11 30 -13q28 0 48 -19q11 -9 35 -41q21 -30 37 -42q29 -21 45 -78q19 -69 33 -88l26 88q23 23 52 76q30 57 48 76zM81 299q0 -3 1 -7h-5q-7 14 -7 33q0 17 7 29q16 -6 16 -16q0 -4 -6 -17t-6 -22zM153 177l7 -19q-11 -19 -21 -19q-3 0 -6 1q6 4 7 22q1 15 13 15z
M225 470q9 -21 13 -33q-12 51 -20 71q-16 38 -46 58q-2 -4 -2 -9q0 -14 20 -28q21 -16 23 -27q3 -10 12 -32zM297 688q4 0 11 -7q0 -5 1 -15q2 -10 2 -14q0 -10 -9 -12q-1 2 -1 3q0 2 4 6t4 7t-3 6q-8 1 -14.5 -7t-8.5 -8q-3 0 -8 6q4 3 10 20q6 15 12 15zM441.5 133.5
q1.5 -9.5 2.5 -9.5q-11 -20 -23 -28q-8 -5 -32 -11q12 8 24 27q17 26 19 30q8 1 9.5 -8.5zM447 509l14 -14q-10 -19 -34 -24q0 1 7 22q4 12 13 16zM444.5 281q5.5 13 15.5 13q13 -5 13 -14q0 -13 -20 -30q-3 4 -15 7q-9 2 -8 11q9 0 14.5 13z" />
    <glyph glyph-name="Y" unicode="&#xfd;" horiz-adv-x="513" 
d="M406 640q31 38 75 47q14 -12 14 -25q0 -10 -10 -28q-11 -21 -13 -33q-11 2 -24.5 -14t-26.5 -14l-62 -90l-24 -22q-13 -14 -13 -27v-7q-29 -53 -33 -131q12 -59 16 -139q2 -72 3 -143q0 -11 -15 -6q-16 0 -16 19q0 5 2 19q3 14 3 20q0 7 -2 12q-7 -15 -17 -73l-9 -4
q-8 2 -8 9q0 2 0.5 6t0.5 5q0 5 -4 7q18 91 16 182q1 4 1 7q0 5 -3 15q-2 9 -2 14q0 10 8 16q-12 20 -13 73q-2 48 -19 70q-19 80 -67 141q-53 66 -128 87q-9 -12 -13.5 -12t-8.5 16.5t-14 18.5q0 4 0.5 9t5.5 6q14 -3 22 -15q3 4 3 7t-5.5 10t-5.5 12t4 10q8 -2 28 -14
q18 -11 30 -13q28 0 48 -19q11 -9 35 -41q21 -30 37 -42q29 -21 45 -78q19 -69 33 -88l26 88q23 23 52 76q30 57 48 76zM81 299q0 -3 1 -7h-5q-7 14 -7 33q0 17 7 29q16 -6 16 -16q0 -4 -6 -17t-6 -22zM153 177l7 -19q-11 -19 -21 -19q-3 0 -6 1q6 4 7 22q1 15 13 15z
M225 470q9 -21 13 -33q-12 51 -20 71q-16 38 -46 58q-2 -4 -2 -9q0 -14 20 -28q21 -16 23 -27q3 -10 12 -32zM297 688q4 0 11 -7q0 -5 1 -15q2 -10 2 -14q0 -10 -9 -12q-1 2 -1 3q0 2 4 6t4 7t-3 6q-8 1 -14.5 -7t-8.5 -8q-3 0 -8 6q4 3 10 20q6 15 12 15zM441.5 133.5
q1.5 -9.5 2.5 -9.5q-11 -20 -23 -28q-8 -5 -32 -11q12 8 24 27q17 26 19 30q8 1 9.5 -8.5zM447 509l14 -14q-10 -19 -34 -24q0 1 7 22q4 12 13 16zM444.5 281q5.5 13 15.5 13q13 -5 13 -14q0 -13 -20 -30q-3 4 -15 7q-9 2 -8 11q9 0 14.5 13z" />
    <glyph glyph-name="Y" unicode="&#xdd;" horiz-adv-x="513" 
d="M406 640q31 38 75 47q14 -12 14 -25q0 -10 -10 -28q-11 -21 -13 -33q-11 2 -24.5 -14t-26.5 -14l-62 -90l-24 -22q-13 -14 -13 -27v-7q-29 -53 -33 -131q12 -59 16 -139q2 -72 3 -143q0 -11 -15 -6q-16 0 -16 19q0 5 2 19q3 14 3 20q0 7 -2 12q-7 -15 -17 -73l-9 -4
q-8 2 -8 9q0 2 0.5 6t0.5 5q0 5 -4 7q18 91 16 182q1 4 1 7q0 5 -3 15q-2 9 -2 14q0 10 8 16q-12 20 -13 73q-2 48 -19 70q-19 80 -67 141q-53 66 -128 87q-9 -12 -13.5 -12t-8.5 16.5t-14 18.5q0 4 0.5 9t5.5 6q14 -3 22 -15q3 4 3 7t-5.5 10t-5.5 12t4 10q8 -2 28 -14
q18 -11 30 -13q28 0 48 -19q11 -9 35 -41q21 -30 37 -42q29 -21 45 -78q19 -69 33 -88l26 88q23 23 52 76q30 57 48 76zM81 299q0 -3 1 -7h-5q-7 14 -7 33q0 17 7 29q16 -6 16 -16q0 -4 -6 -17t-6 -22zM153 177l7 -19q-11 -19 -21 -19q-3 0 -6 1q6 4 7 22q1 15 13 15z
M225 470q9 -21 13 -33q-12 51 -20 71q-16 38 -46 58q-2 -4 -2 -9q0 -14 20 -28q21 -16 23 -27q3 -10 12 -32zM297 688q4 0 11 -7q0 -5 1 -15q2 -10 2 -14q0 -10 -9 -12q-1 2 -1 3q0 2 4 6t4 7t-3 6q-8 1 -14.5 -7t-8.5 -8q-3 0 -8 6q4 3 10 20q6 15 12 15zM441.5 133.5
q1.5 -9.5 2.5 -9.5q-11 -20 -23 -28q-8 -5 -32 -11q12 8 24 27q17 26 19 30q8 1 9.5 -8.5zM447 509l14 -14q-10 -19 -34 -24q0 1 7 22q4 12 13 16zM444.5 281q5.5 13 15.5 13q13 -5 13 -14q0 -13 -20 -30q-3 4 -15 7q-9 2 -8 11q9 0 14.5 13z" />
    <glyph glyph-name="Y" unicode="y" horiz-adv-x="513" 
d="M406 640q31 38 75 47q14 -12 14 -25q0 -10 -10 -28q-11 -21 -13 -33q-11 2 -24.5 -14t-26.5 -14l-62 -90l-24 -22q-13 -14 -13 -27v-7q-29 -53 -33 -131q12 -59 16 -139q2 -72 3 -143q0 -11 -15 -6q-16 0 -16 19q0 5 2 19q3 14 3 20q0 7 -2 12q-7 -15 -17 -73l-9 -4
q-8 2 -8 9q0 2 0.5 6t0.5 5q0 5 -4 7q18 91 16 182q1 4 1 7q0 5 -3 15q-2 9 -2 14q0 10 8 16q-12 20 -13 73q-2 48 -19 70q-19 80 -67 141q-53 66 -128 87q-9 -12 -13.5 -12t-8.5 16.5t-14 18.5q0 4 0.5 9t5.5 6q14 -3 22 -15q3 4 3 7t-5.5 10t-5.5 12t4 10q8 -2 28 -14
q18 -11 30 -13q28 0 48 -19q11 -9 35 -41q21 -30 37 -42q29 -21 45 -78q19 -69 33 -88l26 88q23 23 52 76q30 57 48 76zM81 299q0 -3 1 -7h-5q-7 14 -7 33q0 17 7 29q16 -6 16 -16q0 -4 -6 -17t-6 -22zM153 177l7 -19q-11 -19 -21 -19q-3 0 -6 1q6 4 7 22q1 15 13 15z
M225 470q9 -21 13 -33q-12 51 -20 71q-16 38 -46 58q-2 -4 -2 -9q0 -14 20 -28q21 -16 23 -27q3 -10 12 -32zM297 688q4 0 11 -7q0 -5 1 -15q2 -10 2 -14q0 -10 -9 -12q-1 2 -1 3q0 2 4 6t4 7t-3 6q-8 1 -14.5 -7t-8.5 -8q-3 0 -8 6q4 3 10 20q6 15 12 15zM441.5 133.5
q1.5 -9.5 2.5 -9.5q-11 -20 -23 -28q-8 -5 -32 -11q12 8 24 27q17 26 19 30q8 1 9.5 -8.5zM447 509l14 -14q-10 -19 -34 -24q0 1 7 22q4 12 13 16zM444.5 281q5.5 13 15.5 13q13 -5 13 -14q0 -13 -20 -30q-3 4 -15 7q-9 2 -8 11q9 0 14.5 13z" />
    <glyph glyph-name="Z" unicode="Z" horiz-adv-x="569" 
d="M19 547q11 0 27 -22q1 -2 1 -4q0 -4 -7 -8t-9 -6q-9 3 -15.5 14t-5.5 23q4 3 9 3zM513 687.5q12 -6.5 19 -6.5q-9 -32 -43 -96q-32 -62 -40 -97q-9 -44 -53 -92q-63 -69 -70 -79q-17 -26 -58 -100q-35 -64 -62 -98q-3 -12 9 -17q4 -2 22 -6q16 -4 36 -4q8 0 25 1t24 1
q36 0 59 -15l52 -2q3 -14 -10 -26q-61 0 -92 5q29 -13 73 -13q37 0 74 8q8 -6 8 -13t-13.5 -20.5t-13.5 -20.5l-10 11q3 2 3 7q-20 3 -55 4q-47 1 -59 1q-54 17 -96.5 17t-70.5 -17q-42 2 -120 9q-6 4 -6 13.5t6 13.5q37 5 77 44q41 44 62 67q27 85 130 233q104 150 132 231
q7 0 8 9q1 6 1 13q-40 -6 -87 -6q-45 0 -111 6q-58 5 -111 9q-6 -1 -23.5 -6.5t-27.5 -5.5q-13 0 -22 8q9 21 39 27q39 4 56 6q52 6 111 6q12 0 198 -8q6 5 13 5q5 0 17 -6.5zM84.5 216q1.5 16 15.5 16q2 -7 -3 -20q-5 -15 -5 -19q0 -7 5 -12q-8 -17 -20 -17q0 29 -10 38
q5 -2 8 -2q8 0 9.5 16zM157 50q31 0 61 13q-10 4 -38.5 0.5t-41.5 1.5v14l-22 -23q21 -6 41 -6zM261 275q30 31 35 47q-1 -2 -21 -21q-13 -12 -14 -26zM428 511q38 63 50 120q-25 -35 -61 -109q-37 -78 -61 -114q52 69 72 103zM429 369l4 -14q1 -1 1 -3q0 -4 -18 -16
q-8 4 -8 14t6 20l4 5q9 1 11 -6zM537 188l26 -19l-14 -19q-12 8 -31 26q6 -2 12.5 1t6.5 11z" />
    <glyph glyph-name="Z" unicode="z" horiz-adv-x="569" 
d="M19 547q11 0 27 -22q1 -2 1 -4q0 -4 -7 -8t-9 -6q-9 3 -15.5 14t-5.5 23q4 3 9 3zM513 687.5q12 -6.5 19 -6.5q-9 -32 -43 -96q-32 -62 -40 -97q-9 -44 -53 -92q-63 -69 -70 -79q-17 -26 -58 -100q-35 -64 -62 -98q-3 -12 9 -17q4 -2 22 -6q16 -4 36 -4q8 0 25 1t24 1
q36 0 59 -15l52 -2q3 -14 -10 -26q-61 0 -92 5q29 -13 73 -13q37 0 74 8q8 -6 8 -13t-13.5 -20.5t-13.5 -20.5l-10 11q3 2 3 7q-20 3 -55 4q-47 1 -59 1q-54 17 -96.5 17t-70.5 -17q-42 2 -120 9q-6 4 -6 13.5t6 13.5q37 5 77 44q41 44 62 67q27 85 130 233q104 150 132 231
q7 0 8 9q1 6 1 13q-40 -6 -87 -6q-45 0 -111 6q-58 5 -111 9q-6 -1 -23.5 -6.5t-27.5 -5.5q-13 0 -22 8q9 21 39 27q39 4 56 6q52 6 111 6q12 0 198 -8q6 5 13 5q5 0 17 -6.5zM84.5 216q1.5 16 15.5 16q2 -7 -3 -20q-5 -15 -5 -19q0 -7 5 -12q-8 -17 -20 -17q0 29 -10 38
q5 -2 8 -2q8 0 9.5 16zM157 50q31 0 61 13q-10 4 -38.5 0.5t-41.5 1.5v14l-22 -23q21 -6 41 -6zM261 275q30 31 35 47q-1 -2 -21 -21q-13 -12 -14 -26zM428 511q38 63 50 120q-25 -35 -61 -109q-37 -78 -61 -114q52 69 72 103zM429 369l4 -14q1 -1 1 -3q0 -4 -18 -16
q-8 4 -8 14t6 20l4 5q9 1 11 -6zM537 188l26 -19l-14 -19q-12 8 -31 26q6 -2 12.5 1t6.5 11z" />
    <glyph glyph-name="nonbreakingspace" unicode="&#xa0;" horiz-adv-x="290" 
 />
    <glyph glyph-name="softhyphen" unicode="&#xad;" 
 />
    <glyph glyph-name="Iocyrillic" unicode="&#x401;" horiz-adv-x="470" 
d="M14 55q19 60 49 85q-26 -52 -29 -90q-3 -1 -4 -1t-6 3.5t-10 2.5zM402 302q-9 1 -17 1q-12 0 -33 -4t-31 -4q-13 0 -24 4q-15 -2 -40 -2h-41q-28 -1 -44 -8q25 -100 137 -186q6 -12 50 -45q36 -26 33 -54q-2 -2 -5 -2q-1 0 -8 2.5t-11 1.5q-3 -3 -8 -7q-4 -4 -2 -10h-12
q-141 109 -223 202q-9 23 -36 69q-26 45 -37 71q2 22 16 50l7 14t8.5 16t7.5 15q43 32 122 127q78 92 127 129l18 5q14 -10 12 -22q-12 -9 -26 -40q-12 -26 -28 -28q-24 -24 -52 -72q-35 -61 -48 -78q-14 -10 -26 -19q-14 -12 -13 -27q21 4 48 4q17 0 59 -2q37 -2 56 -2
q2 -16 18 -16h7h6q13 0 18 -8q3 -3 3 -7q0 -5 -8 -13q-19 2 -44 -5q-4 -1 -19.5 -5.5t-24.5 -6.5q19 -9 53 -11q45 -4 55 -6v-21zM169 187q19 -3 24 -7q-23 36 -72 102l-14 110q-29 -25 -29 -52q0 -26 31 -70q35 -49 39 -69q5 -11 21 -14zM158 328l35 2q-7 1 -21 8t-17 7
t-3 -3q0 -4 6 -14zM232 363q11 0 18 1v8q-5 -3 -11 -3t-17 3t-17 3q-7 0 -13 -3q12 -9 40 -9zM437 154q8 -1 14 -7q-25 -11 -32 -11q-11 0 -15 11l5 5q4 0 14 1.5t14 0.5zM455 460q0 -5 -2 -10q-20 5 -20 15q2 0 4 12q2 9 9 7q9 -12 9 -24zM81 536q-18 28 -2 68q5 15 11 23
q10 11 22 9q12 -1 19 -15q4 -8 6 -24q4 -32 -5 -46q-8 -12 -36 -21q-5 -1 -7 0q-4 0 -8 6zM203 630q-37 -6 -35 23q1 27 26 52l13 8q16 8 29 5q11 -3 16 -14q13 -28 -22 -59q-13 -13 -27 -15z" />
    <glyph glyph-name="Iocyrillic" unicode="&#x451;" horiz-adv-x="470" 
d="M14 55q19 60 49 85q-26 -52 -29 -90q-3 -1 -4 -1t-6 3.5t-10 2.5zM402 302q-9 1 -17 1q-12 0 -33 -4t-31 -4q-13 0 -24 4q-15 -2 -40 -2h-41q-28 -1 -44 -8q25 -100 137 -186q6 -12 50 -45q36 -26 33 -54q-2 -2 -5 -2q-1 0 -8 2.5t-11 1.5q-3 -3 -8 -7q-4 -4 -2 -10h-12
q-141 109 -223 202q-9 23 -36 69q-26 45 -37 71q2 22 16 50l7 14t8.5 16t7.5 15q43 32 122 127q78 92 127 129l18 5q14 -10 12 -22q-12 -9 -26 -40q-12 -26 -28 -28q-24 -24 -52 -72q-35 -61 -48 -78q-14 -10 -26 -19q-14 -12 -13 -27q21 4 48 4q17 0 59 -2q37 -2 56 -2
q2 -16 18 -16h7h6q13 0 18 -8q3 -3 3 -7q0 -5 -8 -13q-19 2 -44 -5q-4 -1 -19.5 -5.5t-24.5 -6.5q19 -9 53 -11q45 -4 55 -6v-21zM169 187q19 -3 24 -7q-23 36 -72 102l-14 110q-29 -25 -29 -52q0 -26 31 -70q35 -49 39 -69q5 -11 21 -14zM158 328l35 2q-7 1 -21 8t-17 7
t-3 -3q0 -4 6 -14zM232 363q11 0 18 1v8q-5 -3 -11 -3t-17 3t-17 3q-7 0 -13 -3q12 -9 40 -9zM437 154q8 -1 14 -7q-25 -11 -32 -11q-11 0 -15 11l5 5q4 0 14 1.5t14 0.5zM455 460q0 -5 -2 -10q-20 5 -20 15q2 0 4 12q2 9 9 7q9 -12 9 -24zM81 536q-18 28 -2 68q5 15 11 23
q10 11 22 9q12 -1 19 -15q4 -8 6 -24q4 -32 -5 -46q-8 -12 -36 -21q-5 -1 -7 0q-4 0 -8 6zM203 630q-37 -6 -35 23q1 27 26 52l13 8q16 8 29 5q11 -3 16 -14q13 -28 -22 -59q-13 -13 -27 -15z" />
    <glyph glyph-name="Acyrillic" unicode="&#x410;" horiz-adv-x="698" 
d="M31 351q13 0 18 -11q-6 -13 -24 -17l-11 12q-3 7 2.5 11.5t14.5 4.5zM44 610q0 -5 -6 -6q-11 -8 -21 2q-2 5 4 11t13 6q10 -2 10 -13zM595 11q5 -6 5 -11q-10 -10 -18 -4q-57 62 -173 135q-141 89 -176 117q-26 -37 -50 -110q-30 -88 -44 -116q-11 -5 -18 -5t-7 8
q0 5 5.5 21.5t5.5 24.5q0 9 -6 15q0 -1 -12 -28q-9 -20 -22 -20q-3 0 -8 2l-2 21q17 28 32 100q14 67 34 95q10 42 65 127q50 77 53 130q19 19 28 62q12 55 16 66q14 0 16 -5q4 6 7 26q2 16 12 20q23 -10 23 -29q0 -8 -6 -23q-8 -22 -10 -27l29 -40l2 40h6q29 -67 80 -210
q36 -47 69 -141q38 -108 60 -145q1 -4 4 -13t4 -13q5 -18 5 -28q0 -18 -13 -27q-1 -3 -1 -5q0 -4 5 -10zM130 577.5q0 -4.5 -6 -6.5q-5 -8 -15 2q-2 4 -2 6q0 5 5 7q9 5 10 7q8 -11 8 -15.5zM209 322q6 26 9 31l-28 -50l6 -7q8 5 13 26zM444 176q29 -25 90 -79q-6 26 -26 63
q-27 92 -31 102q-19 57 -47 96l-6 -1q-3 -1 -5.5 0t-3.5 5v22q-10 19 -39 85q-24 54 -44 84q-9 -8 -15.5 -34t-19.5 -37q-10 -28 -26 -96q-14 -64 -27 -97q14 -7 79 -30q49 -17 72 -44q1 0 2 -1t3.5 -2t6 -3t8.5 -4t10 -5q15 -8 19 -24zM351 61q8 -3 10 -10l-27 -29
q4 5 4 11q0 2 -1 8q-1 5 -1 8q0 5 2 10q6 4 13 2zM366 203q3 0 6 1l-27 18q4 -5 8 -11q6 -8 13 -8zM374 520q8 -25 17 -37q2 2 2 5q0 6 -19 32zM411 169q25 -15 35 -22l-30 27q-17 15 -36 21q13 -15 31 -26zM492 293q10 -18 11 -23q1 3 1 7q0 8 -7 21q-10 16 -11 22
q-2 -13 6 -27zM540 158q43 -96 45 -99v8q0 9 -6 20q-9 18 -9.5 19.5t-33.5 78.5q-19 48 -28 81q5 -46 32 -108zM673 88q6 0 14 -9q1 -2 1 -5q0 -10 -14 -19q-5 9 -23 8.5t-21 6.5q4 -1 8 -1q7 0 18.5 9.5t16.5 9.5zM658 539q14 0 14 -17q-8 -7 -8 -19q0 -4 1.5 -12.5
t1.5 -12.5q0 -10 -11 -13v2l-4 71q3 1 6 1z" />
    <glyph glyph-name="Acyrillic" unicode="&#x430;" horiz-adv-x="698" 
d="M31 351q13 0 18 -11q-6 -13 -24 -17l-11 12q-3 7 2.5 11.5t14.5 4.5zM44 610q0 -5 -6 -6q-11 -8 -21 2q-2 5 4 11t13 6q10 -2 10 -13zM595 11q5 -6 5 -11q-10 -10 -18 -4q-57 62 -173 135q-141 89 -176 117q-26 -37 -50 -110q-30 -88 -44 -116q-11 -5 -18 -5t-7 8
q0 5 5.5 21.5t5.5 24.5q0 9 -6 15q0 -1 -12 -28q-9 -20 -22 -20q-3 0 -8 2l-2 21q17 28 32 100q14 67 34 95q10 42 65 127q50 77 53 130q19 19 28 62q12 55 16 66q14 0 16 -5q4 6 7 26q2 16 12 20q23 -10 23 -29q0 -8 -6 -23q-8 -22 -10 -27l29 -40l2 40h6q29 -67 80 -210
q36 -47 69 -141q38 -108 60 -145q1 -4 4 -13t4 -13q5 -18 5 -28q0 -18 -13 -27q-1 -3 -1 -5q0 -4 5 -10zM130 577.5q0 -4.5 -6 -6.5q-5 -8 -15 2q-2 4 -2 6q0 5 5 7q9 5 10 7q8 -11 8 -15.5zM209 322q6 26 9 31l-28 -50l6 -7q8 5 13 26zM444 176q29 -25 90 -79q-6 26 -26 63
q-27 92 -31 102q-19 57 -47 96l-6 -1q-3 -1 -5.5 0t-3.5 5v22q-10 19 -39 85q-24 54 -44 84q-9 -8 -15.5 -34t-19.5 -37q-10 -28 -26 -96q-14 -64 -27 -97q14 -7 79 -30q49 -17 72 -44q1 0 2 -1t3.5 -2t6 -3t8.5 -4t10 -5q15 -8 19 -24zM351 61q8 -3 10 -10l-27 -29
q4 5 4 11q0 2 -1 8q-1 5 -1 8q0 5 2 10q6 4 13 2zM366 203q3 0 6 1l-27 18q4 -5 8 -11q6 -8 13 -8zM374 520q8 -25 17 -37q2 2 2 5q0 6 -19 32zM411 169q25 -15 35 -22l-30 27q-17 15 -36 21q13 -15 31 -26zM492 293q10 -18 11 -23q1 3 1 7q0 8 -7 21q-10 16 -11 22
q-2 -13 6 -27zM540 158q43 -96 45 -99v8q0 9 -6 20q-9 18 -9.5 19.5t-33.5 78.5q-19 48 -28 81q5 -46 32 -108zM673 88q6 0 14 -9q1 -2 1 -5q0 -10 -14 -19q-5 9 -23 8.5t-21 6.5q4 -1 8 -1q7 0 18.5 9.5t16.5 9.5zM658 539q14 0 14 -17q-8 -7 -8 -19q0 -4 1.5 -12.5
t1.5 -12.5q0 -10 -11 -13v2l-4 71q3 1 6 1z" />
    <glyph glyph-name="Becyrillic" unicode="&#x411;" horiz-adv-x="465" 
d="M389 399q2 1 6 6.5t8 5.5q2 0 5 -1l8 -26q-1 1 -16 4q-11 2 -11 11zM3 247q10 14 20 16l4 -20q-3 -1 -24 4zM361 675q-16 0 -15 12q0 4 4 7q16 0 24 -11l-9 -13zM405 12q0 17 18 17l4 -33q-2 -4 -5 -4t-7.5 3t-6.5 3q-3 7 -3 14zM330 361q75 -69 75 -154q-6 -13 -22 -27
q-6 -5 -27 -20q-36 -9 -99 -52q-59 -40 -101 -45q-8 5 -14 5q-8 0 -19 -11t-19 -13q-8 10 -8 23q0 8 4 23q3 15 3 22q0 11 -5 20q5 21 5 46q0 23 -7 69t-7 69q0 31 9 58q-4 16 -4 34q0 20 6 56t6 55q0 29 -11 53q-1 6 -1 12q0 9 5.5 26t5.5 25q0 12 -7 23l2 24q2 12 15 11
q5 -11 11 -28q2 -3 5 -3t6 1q8 -19 23 -19q8 0 26 7.5t27 7.5q7 0 12 -4q17 -1 52 -10q31 -9 48 -9q13 0 26 4q5 -6 27 -10q18 -2 18 -13q0 -3 -1 -6q-9 0 -26.5 -6t-26 -6t-14.5 4q-35 3 -106 8t-85 6q2 -14 4 -30q3 -30 6 -112q6 -8 12 -14q7 -7 15 -7h6q98 -45 150 -93z
M212 116q53 37 55 38q-38 -17 -116 -31q-8 -16 -8 -23t6 -13q29 6 63 29zM325 196q12 13 12 28q0 10 -9.5 34t-9.5 38q-76 74 -79 76q-45 40 -88 65l-15 -47q4 -36 4 -80q1 -33 1 -82q-1 -69 -1 -81q33 2 92.5 25t92.5 24zM365 207q11 13 11 31q0 19 -18 60q-49 59 -120 106
l82 -82q48 -55 45 -115zM431 221h20v-18q-22 5 -20 18zM274 566q3 4 9 2q13 0 13 -13q-4 -9 -14 -9q-11 0 -13 11q3 5 5 9z" />
    <glyph glyph-name="Becyrillic" unicode="&#x431;" horiz-adv-x="465" 
d="M389 399q2 1 6 6.5t8 5.5q2 0 5 -1l8 -26q-1 1 -16 4q-11 2 -11 11zM3 247q10 14 20 16l4 -20q-3 -1 -24 4zM361 675q-16 0 -15 12q0 4 4 7q16 0 24 -11l-9 -13zM405 12q0 17 18 17l4 -33q-2 -4 -5 -4t-7.5 3t-6.5 3q-3 7 -3 14zM330 361q75 -69 75 -154q-6 -13 -22 -27
q-6 -5 -27 -20q-36 -9 -99 -52q-59 -40 -101 -45q-8 5 -14 5q-8 0 -19 -11t-19 -13q-8 10 -8 23q0 8 4 23q3 15 3 22q0 11 -5 20q5 21 5 46q0 23 -7 69t-7 69q0 31 9 58q-4 16 -4 34q0 20 6 56t6 55q0 29 -11 53q-1 6 -1 12q0 9 5.5 26t5.5 25q0 12 -7 23l2 24q2 12 15 11
q5 -11 11 -28q2 -3 5 -3t6 1q8 -19 23 -19q8 0 26 7.5t27 7.5q7 0 12 -4q17 -1 52 -10q31 -9 48 -9q13 0 26 4q5 -6 27 -10q18 -2 18 -13q0 -3 -1 -6q-9 0 -26.5 -6t-26 -6t-14.5 4q-35 3 -106 8t-85 6q2 -14 4 -30q3 -30 6 -112q6 -8 12 -14q7 -7 15 -7h6q98 -45 150 -93z
M212 116q53 37 55 38q-38 -17 -116 -31q-8 -16 -8 -23t6 -13q29 6 63 29zM325 196q12 13 12 28q0 10 -9.5 34t-9.5 38q-76 74 -79 76q-45 40 -88 65l-15 -47q4 -36 4 -80q1 -33 1 -82q-1 -69 -1 -81q33 2 92.5 25t92.5 24zM365 207q11 13 11 31q0 19 -18 60q-49 59 -120 106
l82 -82q48 -55 45 -115zM431 221h20v-18q-22 5 -20 18zM274 566q3 4 9 2q13 0 13 -13q-4 -9 -14 -9q-11 0 -13 11q3 5 5 9z" />
    <glyph glyph-name="Vecyrillic" unicode="&#x412;" horiz-adv-x="434" 
d="M35.5 318.5q4.5 -4.5 2.5 -11.5l-9 -14q-16 5 -22 19q4 11 17 11q7 0 11.5 -4.5zM71 628q0 -3 -2 -7q-9 -9 -13 -2q-5 2 -5 7q0 4 6 16q2 -2 9 -6q5 -3 5 -8zM199 349q92 -5 190 -65q-26 -93 -94.5 -158.5t-153.5 -79.5q-22 -16 -34 -16q-13 0 -16 16q1 14 -2 40
q16 125 22 282q3 76 5 283q3 9 7 9q2 0 5.5 -2t6.5 -2q4 0 8 6q45 -40 89 -79q55 -50 83 -94v-13q-63 -84 -116 -127zM134 332l5 37q-7 -24 -7 -28q0 -5 2 -9zM136 480h5v24zM280 137q58 55 80 136q-98 48 -151 48q-24 0 -44 -7q-18 -134 -18 -236q72 1 133 59zM163 -66
q0 -13 -7 -18q-7 4 -7 27q4 2 7 2q7 0 7 -11zM279 462l6 21q-46 64 -122 125l-7 -22q6 -38 7 -113q1 -87 3 -117q29 18 59 48q8 8 54 58zM215.5 208.5q7.5 6.5 12.5 6.5q2 -9 -9 -19.5t-10 -21.5q-10 12 -4 27q3 1 10.5 7.5zM274 724q17 0 32 -28q-4 -6 -9 -6q-4 0 -13 6
t-12 6t-5 -2q-4 5 -4 20q6 4 11 4zM370 102l9 -2l-2 -20q-1 2 -7 0q-7 -1 -10 2q-1 2 -1 4q0 10 11 16zM397 596q6 0 8 -10q-3 -7 -12 -16l-11 11q3 15 15 15zM401 484q4 5 12 5l-4 -27q-6 0 -16 11q5 7 8 11zM415 -5l23 -5q-2 -6 -13 -10t-9 -12q0 -1 -2 -1t-5.5 7t-7.5 7
q3 14 14 14z" />
    <glyph glyph-name="Vecyrillic" unicode="&#x432;" horiz-adv-x="434" 
d="M35.5 318.5q4.5 -4.5 2.5 -11.5l-9 -14q-16 5 -22 19q4 11 17 11q7 0 11.5 -4.5zM71 628q0 -3 -2 -7q-9 -9 -13 -2q-5 2 -5 7q0 4 6 16q2 -2 9 -6q5 -3 5 -8zM199 349q92 -5 190 -65q-26 -93 -94.5 -158.5t-153.5 -79.5q-22 -16 -34 -16q-13 0 -16 16q1 14 -2 40
q16 125 22 282q3 76 5 283q3 9 7 9q2 0 5.5 -2t6.5 -2q4 0 8 6q45 -40 89 -79q55 -50 83 -94v-13q-63 -84 -116 -127zM134 332l5 37q-7 -24 -7 -28q0 -5 2 -9zM136 480h5v24zM280 137q58 55 80 136q-98 48 -151 48q-24 0 -44 -7q-18 -134 -18 -236q72 1 133 59zM163 -66
q0 -13 -7 -18q-7 4 -7 27q4 2 7 2q7 0 7 -11zM279 462l6 21q-46 64 -122 125l-7 -22q6 -38 7 -113q1 -87 3 -117q29 18 59 48q8 8 54 58zM215.5 208.5q7.5 6.5 12.5 6.5q2 -9 -9 -19.5t-10 -21.5q-10 12 -4 27q3 1 10.5 7.5zM274 724q17 0 32 -28q-4 -6 -9 -6q-4 0 -13 6
t-12 6t-5 -2q-4 5 -4 20q6 4 11 4zM370 102l9 -2l-2 -20q-1 2 -7 0q-7 -1 -10 2q-1 2 -1 4q0 10 11 16zM397 596q6 0 8 -10q-3 -7 -12 -16l-11 11q3 15 15 15zM401 484q4 5 12 5l-4 -27q-6 0 -16 11q5 7 8 11zM415 -5l23 -5q-2 -6 -13 -10t-9 -12q0 -1 -2 -1t-5.5 7t-7.5 7
q3 14 14 14z" />
    <glyph glyph-name="Gecyrillic" unicode="&#x413;" horiz-adv-x="448" 
d="M30 356v-34q-8 -2 -14 2.5t-6 12.5q2 1 7.5 10t12.5 9zM451 592q-12 0 -34 -7q-22 -8 -32.5 -8t-18.5 5q-150 13 -227 22q6 -27 6 -57q0 -23 -5 -67q-5 -45 -5 -67q0 -17 4.5 -47.5t4.5 -46.5q0 -36 -13 -103t-13 -98q0 -51 21 -90l8 -8q5 -16 5 -25q0 -12 -9 -12
q-11 0 -28.5 14.5t-21.5 25.5q-24 74 -24 156q0 68 24 211q-1 11 6.5 32t7.5 30q0 13 -9 23q4 22 4 45q0 28 -8 76q-9 52 -11 81q7 4 12 4q6 0 11 -12.5t12 -12.5q3 0 7 2q11 -24 29 -24q11 0 33.5 9t33.5 9q9 0 16 -4q21 -2 65 -13q39 -11 61 -11q16 0 32 4q6 -7 34 -12
q23 -2 23 -17q0 -3 -1 -7zM106 285q-10 -21 -10 -54q0 -13 2 -23zM239 288v-10q-16 2 -22 -13q-9 -22 -12 -26q-2 -1 -5 -1q-5 0 -6 7q-1 11 -1 16q18 28 36 28q5 0 10 -1zM337 35q-4 -18 -11 -18q-3 0 -6 1q5 4 4 21t10 20z" />
    <glyph glyph-name="Gecyrillic" unicode="&#x433;" horiz-adv-x="448" 
d="M30 356v-34q-8 -2 -14 2.5t-6 12.5q2 1 7.5 10t12.5 9zM451 592q-12 0 -34 -7q-22 -8 -32.5 -8t-18.5 5q-150 13 -227 22q6 -27 6 -57q0 -23 -5 -67q-5 -45 -5 -67q0 -17 4.5 -47.5t4.5 -46.5q0 -36 -13 -103t-13 -98q0 -51 21 -90l8 -8q5 -16 5 -25q0 -12 -9 -12
q-11 0 -28.5 14.5t-21.5 25.5q-24 74 -24 156q0 68 24 211q-1 11 6.5 32t7.5 30q0 13 -9 23q4 22 4 45q0 28 -8 76q-9 52 -11 81q7 4 12 4q6 0 11 -12.5t12 -12.5q3 0 7 2q11 -24 29 -24q11 0 33.5 9t33.5 9q9 0 16 -4q21 -2 65 -13q39 -11 61 -11q16 0 32 4q6 -7 34 -12
q23 -2 23 -17q0 -3 -1 -7zM106 285q-10 -21 -10 -54q0 -13 2 -23zM239 288v-10q-16 2 -22 -13q-9 -22 -12 -26q-2 -1 -5 -1q-5 0 -6 7q-1 11 -1 16q18 28 36 28q5 0 10 -1zM337 35q-4 -18 -11 -18q-3 0 -6 1q5 4 4 21t10 20z" />
    <glyph glyph-name="Decyrillic" unicode="&#x414;" horiz-adv-x="476" 
d="M34 583l4 2q-1 -1 -4 -2q-12 -8 -12 -18q0 -4 3 -9q-3 -3 -6 -3q-2 0 -6.5 4.5t-7.5 3.5q-1 5 -1 9q0 9 10 11q11 1 20 2zM450 315q0 -29 -15 -51q-153 -191 -300 -244q-16 16 -13 27l-2 -2q-4 -4 -6 -4q-5 0 -10 7q-7 8 -9 10v20q0 15 2 39q3 26 3 37q0 13 -2 24
q10 65 10 157q0 27 -1 84q-1 54 -1 82t1 49q5 10 5 25q0 9 -2 26t-2 24q0 33 29 37q14 -3 16 -18v-28q73 -43 166 -129q28 -7 58 -33q7 -7 15.5 -15t18 -16.5t15.5 -14.5q24 -71 24 -93zM415 340q0 6 -4 11q-132 167 -250 227q-6 -12 -6 -26q0 -11 5 -35t5 -37q0 -9 -1 -18
q-18 -75 -18 -179q0 -69 9 -171q16 -5 16 -11q0 -2 -1 -4q-10 0 -13 -14q-3 -18 -7 -22q123 50 252 218q-32 -8 -67 -42l-58 -54q-33 -26 -70 -23q-10 10 -8 14q43 11 100 67.5t94 67.5q1 1 13 15q9 9 9 16zM211 358q9 0 11 -14q-1 -1 -5 -6t-9 -5h-5v22q4 3 8 3zM312 714
v-9q0 -8 -5 -8q-2 0 -8.5 5t-7.5 6q0 10 12 10q6 0 9 -4zM356 628q2 0 5 -2q-10 -14 -10 -21q0 -5 4 -9q-14 0 -20 9q4 7 10 15q5 8 11 8zM374 50v-17q-10 -1 -16 3t-4 13q-1 2 -1 4q0 3 4.5 3.5t5.5 3.5q10 0 11 -10zM380 423l33 -35q-9 12 -13 19q-9 11 -20 16zM433 485
q5 13 15 17q10 -4 10 -13q0 -6 -5 -15.5t-9 -17.5l-16 8q4 17 5 21z" />
    <glyph glyph-name="Decyrillic" unicode="&#x434;" horiz-adv-x="476" 
d="M34 583l4 2q-1 -1 -4 -2q-12 -8 -12 -18q0 -4 3 -9q-3 -3 -6 -3q-2 0 -6.5 4.5t-7.5 3.5q-1 5 -1 9q0 9 10 11q11 1 20 2zM450 315q0 -29 -15 -51q-153 -191 -300 -244q-16 16 -13 27l-2 -2q-4 -4 -6 -4q-5 0 -10 7q-7 8 -9 10v20q0 15 2 39q3 26 3 37q0 13 -2 24
q10 65 10 157q0 27 -1 84q-1 54 -1 82t1 49q5 10 5 25q0 9 -2 26t-2 24q0 33 29 37q14 -3 16 -18v-28q73 -43 166 -129q28 -7 58 -33q7 -7 15.5 -15t18 -16.5t15.5 -14.5q24 -71 24 -93zM415 340q0 6 -4 11q-132 167 -250 227q-6 -12 -6 -26q0 -11 5 -35t5 -37q0 -9 -1 -18
q-18 -75 -18 -179q0 -69 9 -171q16 -5 16 -11q0 -2 -1 -4q-10 0 -13 -14q-3 -18 -7 -22q123 50 252 218q-32 -8 -67 -42l-58 -54q-33 -26 -70 -23q-10 10 -8 14q43 11 100 67.5t94 67.5q1 1 13 15q9 9 9 16zM211 358q9 0 11 -14q-1 -1 -5 -6t-9 -5h-5v22q4 3 8 3zM312 714
v-9q0 -8 -5 -8q-2 0 -8.5 5t-7.5 6q0 10 12 10q6 0 9 -4zM356 628q2 0 5 -2q-10 -14 -10 -21q0 -5 4 -9q-14 0 -20 9q4 7 10 15q5 8 11 8zM374 50v-17q-10 -1 -16 3t-4 13q-1 2 -1 4q0 3 4.5 3.5t5.5 3.5q10 0 11 -10zM380 423l33 -35q-9 12 -13 19q-9 11 -20 16zM433 485
q5 13 15 17q10 -4 10 -13q0 -6 -5 -15.5t-9 -17.5l-16 8q4 17 5 21z" />
    <glyph glyph-name="Iecyrillic" unicode="&#x415;" horiz-adv-x="464" 
d="M8 55q19 60 49 85q-26 -52 -29 -90q-3 -1 -4 -1t-6 3.5t-10 2.5zM396 302q-9 1 -17 1q-12 0 -33 -4t-31 -4q-13 0 -24 4q-15 -2 -40 -2h-41q-28 -1 -44 -8q25 -100 137 -186q6 -12 50 -45q36 -26 33 -54q-2 -2 -5 -2q-1 0 -8 2.5t-11 1.5q-3 -3 -8 -7q-4 -4 -2 -10h-12
q-141 109 -223 202q-9 23 -36 69q-26 45 -37 71q2 22 16 50l7 14t8.5 16t7.5 15q43 32 122 127q78 92 127 129l18 5q14 -10 12 -22q-12 -9 -26 -40q-12 -26 -28 -28q-24 -24 -52 -72q-35 -61 -48 -78q-14 -10 -26 -19q-14 -12 -13 -27q21 4 48 4q17 0 59 -2q37 -2 56 -2
q2 -16 18 -16h7h6q13 0 18 -8q3 -3 3 -7q0 -5 -8 -13q-19 2 -44 -5q-4 -1 -19.5 -5.5t-24.5 -6.5q19 -9 53 -11q45 -4 55 -6v-21zM163 187q19 -3 24 -7q-23 36 -72 102l-14 110q-29 -25 -29 -52q0 -26 31 -70q35 -49 39 -69q5 -11 21 -14zM152 328l35 2q-7 1 -21 8t-17 7
t-3 -3q0 -4 6 -14zM226 363q11 0 18 1v8q-5 -3 -11 -3t-17 3t-17 3q-7 0 -13 -3q12 -9 40 -9zM431 154q8 -1 14 -7q-25 -11 -32 -11q-11 0 -15 11l5 5q4 0 14 1.5t14 0.5zM449 460q0 -5 -2 -10q-20 5 -20 15q2 0 4 12q2 9 9 7q9 -12 9 -24z" />
    <glyph glyph-name="Iecyrillic" unicode="&#x435;" horiz-adv-x="464" 
d="M8 55q19 60 49 85q-26 -52 -29 -90q-3 -1 -4 -1t-6 3.5t-10 2.5zM396 302q-9 1 -17 1q-12 0 -33 -4t-31 -4q-13 0 -24 4q-15 -2 -40 -2h-41q-28 -1 -44 -8q25 -100 137 -186q6 -12 50 -45q36 -26 33 -54q-2 -2 -5 -2q-1 0 -8 2.5t-11 1.5q-3 -3 -8 -7q-4 -4 -2 -10h-12
q-141 109 -223 202q-9 23 -36 69q-26 45 -37 71q2 22 16 50l7 14t8.5 16t7.5 15q43 32 122 127q78 92 127 129l18 5q14 -10 12 -22q-12 -9 -26 -40q-12 -26 -28 -28q-24 -24 -52 -72q-35 -61 -48 -78q-14 -10 -26 -19q-14 -12 -13 -27q21 4 48 4q17 0 59 -2q37 -2 56 -2
q2 -16 18 -16h7h6q13 0 18 -8q3 -3 3 -7q0 -5 -8 -13q-19 2 -44 -5q-4 -1 -19.5 -5.5t-24.5 -6.5q19 -9 53 -11q45 -4 55 -6v-21zM163 187q19 -3 24 -7q-23 36 -72 102l-14 110q-29 -25 -29 -52q0 -26 31 -70q35 -49 39 -69q5 -11 21 -14zM152 328l35 2q-7 1 -21 8t-17 7
t-3 -3q0 -4 6 -14zM226 363q11 0 18 1v8q-5 -3 -11 -3t-17 3t-17 3q-7 0 -13 -3q12 -9 40 -9zM431 154q8 -1 14 -7q-25 -11 -32 -11q-11 0 -15 11l5 5q4 0 14 1.5t14 0.5zM449 460q0 -5 -2 -10q-20 5 -20 15q2 0 4 12q2 9 9 7q9 -12 9 -24z" />
    <glyph glyph-name="Zhecyrillic" unicode="&#x416;" horiz-adv-x="727" 
d="M157 155q7 0 11 -15q-11 -17 -39 -12q20 27 28 27zM23 501q4 11 14 11q5 0 12 -3q2 -12 -9 -21q-8 -6 -19 -13l-4 5l15 12zM678 568q-13 -40 -13 -69q14 -80 14 -171q0 -49 -10 -132q-12 -96 -14 -132v-41q-3 -25 -21 -31q-11 1 -11.5 15t-9.5 16q-5 31 -5 65
q0 51 12 136q16 102 19 139v10q0 19 -25 19q-4 0 -16 -1q-11 -1 -137 -1q-16 0 -22 6q-14 -6 -18 -25q-2 -7 -3 -34q-12 -33 -57 -37q-30 9 -30 47q0 4 3 32q-27 6 -112 5t-105 -7q-10 -50 -10 -111q0 -31 4 -98q4 -66 4 -101q-8 -38 -23 -38q-5 0 -10 3q-16 124 -16 178
q0 31 3.5 93t3.5 94q0 105 -13 196l22 97q28 2 28 -23q0 -4 -1 -16t-1 -17q0 -23 19 -29q-19 -31 -19 -76q0 -16 4 -59q5 -38 3 -60q14 -6 34 -6q132 0 157 3q25 4 36 4q6 0 13 -1q10 -9 10 -22q0 -3 -8 -35q-5 -20 6 -30q28 10 34 44q1 9 4 28t4 29q19 -5 90 -8.5t99 -3.5
t45 12v25q0 31 -7 91t-7 90q0 32 5 60q20 -7 23 -36q3 -36 9 -45q5 0 12 9.5t4 16.5q4 6 7 6q2 0 6 -4.5t8 -3.5q-2 -6 -21 -65zM357 559q-2 8 -16 45q-10 28 -10 45q0 23 19 38q12 -5 39 -28q0 -26 1 -66l1 1l2 1q16 15 23 15q6 0 12 -8q-3 -16 -26 -18h-4t-4.5 -0.5
t-3.5 -0.5q1 -61 4 -129q0 -3 0.5 -7.5t0.5 -6.5q-10 2 -20 2q-6 0 -15 -1q5 14 7 20zM402 274q1 -25 1 -28q2 -31 -3 -92q-6 -65 -6 -94q0 -31 4 -56q-2 1 -6 1q-5 0 -16.5 -8t-18.5 -8t-12 5q4 30 -1 81q-6 64 -6 83q0 37 9 66q0 17 -1 51q14 -5 29 -5q13 0 27 4zM477 119
l5 -3q9 -6 9 -17q0 -6 -4 -9q-13 0 -17 6v14q0 7 7 9zM493 559q-15 -6 -16 -7q-4 24 12 37l15 -15q0 -10 -11 -15zM253 74q1 11 6 18l12 -42q-2 -8 -14 -8q-7 0 -13 1h1q8 7 8 31zM620 298q0 -6 -11 -20t-11 -21q-12 -1 -12 11q0 3 2 12q1 7 1 9q2 2 6 16q2 12 13 9
q12 -8 12 -16z" />
    <glyph glyph-name="Zhecyrillic" unicode="&#x436;" horiz-adv-x="727" 
d="M157 155q7 0 11 -15q-11 -17 -39 -12q20 27 28 27zM23 501q4 11 14 11q5 0 12 -3q2 -12 -9 -21q-8 -6 -19 -13l-4 5l15 12zM678 568q-13 -40 -13 -69q14 -80 14 -171q0 -49 -10 -132q-12 -96 -14 -132v-41q-3 -25 -21 -31q-11 1 -11.5 15t-9.5 16q-5 31 -5 65
q0 51 12 136q16 102 19 139v10q0 19 -25 19q-4 0 -16 -1q-11 -1 -137 -1q-16 0 -22 6q-14 -6 -18 -25q-2 -7 -3 -34q-12 -33 -57 -37q-30 9 -30 47q0 4 3 32q-27 6 -112 5t-105 -7q-10 -50 -10 -111q0 -31 4 -98q4 -66 4 -101q-8 -38 -23 -38q-5 0 -10 3q-16 124 -16 178
q0 31 3.5 93t3.5 94q0 105 -13 196l22 97q28 2 28 -23q0 -4 -1 -16t-1 -17q0 -23 19 -29q-19 -31 -19 -76q0 -16 4 -59q5 -38 3 -60q14 -6 34 -6q132 0 157 3q25 4 36 4q6 0 13 -1q10 -9 10 -22q0 -3 -8 -35q-5 -20 6 -30q28 10 34 44q1 9 4 28t4 29q19 -5 90 -8.5t99 -3.5
t45 12v25q0 31 -7 91t-7 90q0 32 5 60q20 -7 23 -36q3 -36 9 -45q5 0 12 9.5t4 16.5q4 6 7 6q2 0 6 -4.5t8 -3.5q-2 -6 -21 -65zM357 559q-2 8 -16 45q-10 28 -10 45q0 23 19 38q12 -5 39 -28q0 -26 1 -66l1 1l2 1q16 15 23 15q6 0 12 -8q-3 -16 -26 -18h-4t-4.5 -0.5
t-3.5 -0.5q1 -61 4 -129q0 -3 0.5 -7.5t0.5 -6.5q-10 2 -20 2q-6 0 -15 -1q5 14 7 20zM402 274q1 -25 1 -28q2 -31 -3 -92q-6 -65 -6 -94q0 -31 4 -56q-2 1 -6 1q-5 0 -16.5 -8t-18.5 -8t-12 5q4 30 -1 81q-6 64 -6 83q0 37 9 66q0 17 -1 51q14 -5 29 -5q13 0 27 4zM477 119
l5 -3q9 -6 9 -17q0 -6 -4 -9q-13 0 -17 6v14q0 7 7 9zM493 559q-15 -6 -16 -7q-4 24 12 37l15 -15q0 -10 -11 -15zM253 74q1 11 6 18l12 -42q-2 -8 -14 -8q-7 0 -13 1h1q8 7 8 31zM620 298q0 -6 -11 -20t-11 -21q-12 -1 -12 11q0 3 2 12q1 7 1 9q2 2 6 16q2 12 13 9
q12 -8 12 -16z" />
    <glyph glyph-name="Zecyrillic" unicode="&#x417;" horiz-adv-x="335" 
d="M166 640q60 -48 82 -120q-11 -78 -92 -145q2 -16 24 -24q27 -11 31 -16q42 -54 42 -105q0 -27 -13 -48q-32 -41 -72 -92q-42 -55 -61 -96q-2 -3 -4 -3q-8 0 -12 11q-32 -11 -53 -27q-2 2 -8 2q4 20 23 35q25 23 30 29q8 20 59 82q42 51 42 86q0 25 -17 50q-13 13 -40 26
q-30 14 -40 23q-8 1 -20 -5t-17 -6q-7 0 -12 5q-1 12 13 16q18 6 22 12q-4 5 -26 8q-18 3 -18 13q0 4 3 10q10 9 58 29q36 14 46 45q15 24 23 65q11 62 14 71q1 23 -26 38q-15 7 -46 22q-6 -3 -14 -3q-19 0 -64 35q-2 13 9 21q71 6 134 -44zM52.5 459.5q10.5 -4.5 16.5 -4.5
q-7 -10 -39 -10l-4 6q4 13 12 13q4 0 14.5 -4.5zM84 218q4 -5 -1 -12q-2 0 -4 -0.5t-3 -2.5t-1 -5q-1 0 -8.5 3.5t-7.5 8.5q0 13 16 13q6 0 9 -5zM191 439l15 100l-13 20q-22 -113 -57 -159zM201 159q21 31 33 57l-14 59q-21 45 -64 54q16 -17 32 -48q24 -44 28 -51zM281 37
q5 0 6 -7q2 -6 -1 -10t-7 -2h-8q-2 6 2.5 12.5t7.5 6.5zM320 660q0 -6 -3 -11q-8 0 -9.5 11t-8.5 13q0 6 -10.5 10.5t-10.5 11.5q0 2 1 5l14 10q27 -21 27 -50zM297 425q0 -9 -2 -19q-5 -1 -12 -6q-5 4 -5 15q1 18 1 19q7 7 11 7q7 0 7 -16z" />
    <glyph glyph-name="Zecyrillic" unicode="&#x437;" horiz-adv-x="335" 
d="M166 640q60 -48 82 -120q-11 -78 -92 -145q2 -16 24 -24q27 -11 31 -16q42 -54 42 -105q0 -27 -13 -48q-32 -41 -72 -92q-42 -55 -61 -96q-2 -3 -4 -3q-8 0 -12 11q-32 -11 -53 -27q-2 2 -8 2q4 20 23 35q25 23 30 29q8 20 59 82q42 51 42 86q0 25 -17 50q-13 13 -40 26
q-30 14 -40 23q-8 1 -20 -5t-17 -6q-7 0 -12 5q-1 12 13 16q18 6 22 12q-4 5 -26 8q-18 3 -18 13q0 4 3 10q10 9 58 29q36 14 46 45q15 24 23 65q11 62 14 71q1 23 -26 38q-15 7 -46 22q-6 -3 -14 -3q-19 0 -64 35q-2 13 9 21q71 6 134 -44zM52.5 459.5q10.5 -4.5 16.5 -4.5
q-7 -10 -39 -10l-4 6q4 13 12 13q4 0 14.5 -4.5zM84 218q4 -5 -1 -12q-2 0 -4 -0.5t-3 -2.5t-1 -5q-1 0 -8.5 3.5t-7.5 8.5q0 13 16 13q6 0 9 -5zM191 439l15 100l-13 20q-22 -113 -57 -159zM201 159q21 31 33 57l-14 59q-21 45 -64 54q16 -17 32 -48q24 -44 28 -51zM281 37
q5 0 6 -7q2 -6 -1 -10t-7 -2h-8q-2 6 2.5 12.5t7.5 6.5zM320 660q0 -6 -3 -11q-8 0 -9.5 11t-8.5 13q0 6 -10.5 10.5t-10.5 11.5q0 2 1 5l14 10q27 -21 27 -50zM297 425q0 -9 -2 -19q-5 -1 -12 -6q-5 4 -5 15q1 18 1 19q7 7 11 7q7 0 7 -16z" />
    <glyph glyph-name="Iicyrillic" unicode="&#x418;" horiz-adv-x="633" 
d="M587 545q-1 3 -1 8q0 18 14 18q3 0 7 -2q4 -5 4 -10q0 -6 -10.5 -14.5t-11.5 -14.5zM70 263q24 61 24 156q0 36 -4 90q-5 78 -5 87q-16 8 -16 14q0 3 13.5 13t13.5 19q0 3 -2 7q7 4 7 19v7q-1 5 -1 6q0 13 7 13q4 0 14 -6q3 -11 3 -26q0 -10 -2 -32q-2 -23 -2 -33
q0 -15 2 -44.5t2 -43.5q0 -40 -5 -119q-5 -81 -5 -121q0 -63 9 -115l8 -10q93 51 141 134q-16 19 -30 38q-17 25 -14 47q3 23 30 35q34 14 42 25q9 30 13 37q9 19 26 29q22 2 41 -15q1 0 30 -34q8 33 23 63q2 4 33 59q7 17 36 43q26 23 31 47h7q10 0 16 -14q7 -18 13 -21
q-1 -20 1 -104q2 -65 -7 -104q8 -128 8 -135q0 -39 -6 -76q-3 -76 21 -190q-4 17 -20 17q-8 0 -13 -9q-19 20 -24 62q-4 32 -8 67q18 84 18 180q0 88 -18 237q-10 -14 -27 -57q-15 -36 -31 -52l-8.5 -25.5t-8.5 -24.5q-10 -30 -22 -45l-4 8q-11 -16 -20 -16q-8 0 -26.5 24.5
t-33.5 24.5q-10 0 -22 -10q-11 -16 -11 -30q0 -18 30 -46t32 -50q-5 2 -10 2q-9 0 -28.5 -7.5t-27.5 -8.5q-42 -16 -51 -75q-15 -40 -59 -84q-57 -56 -70 -74q4 -19 -14 -19q-3 8 -19 25q-15 17 -15 26t12 19q-9 33 -9 99.5t-8 96.5zM502 72q2 1 7 7t8 6q2 0 4 -1l3 -34
q-2 2 -14 7q-9 2 -9 9q0 2 1 6zM422 125l21 26q-2 -2 -2 -4q0 -3 4.5 -10.5t4.5 -11.5q0 -6 -7 -10q-12 -3 -21 10zM327 435q37 -7 60 -43q11 5 11 15q0 2 -11 31l-36 22zM303 579q6 14 25 18q27 4 31 6v-7q-12 -2 -20 -12q-8 -11 -14 -20q-7 -1 -12.5 4.5t-9.5 10.5z
M264 327q8 -18 28 -28q15 -6 33 -14q0 14 -20.5 31t-20.5 35q4 3 3 12t1 12q-12 0 -21 -8.5t-9 -21.5q0 -9 6 -18zM295 11q2 1 4.5 5t4.5 4t4 -2q3 1 4 1q6 0 6 -8q-1 -14 0 -14q-10 -2 -17 2.5t-6 11.5zM141 87q18 9 34 29q7 8 26 38q-33 -21 -40 -28q-20 -18 -20 -39z
M10 211q0 4 4 7.5t9 2.5q6 1 8.5 -2.5t2.5 -12.5q0 -11 -8 -11q-5 0 -11 5t-5 11z" />
    <glyph glyph-name="Iicyrillic" unicode="&#x438;" horiz-adv-x="633" 
d="M587 545q-1 3 -1 8q0 18 14 18q3 0 7 -2q4 -5 4 -10q0 -6 -10.5 -14.5t-11.5 -14.5zM70 263q24 61 24 156q0 36 -4 90q-5 78 -5 87q-16 8 -16 14q0 3 13.5 13t13.5 19q0 3 -2 7q7 4 7 19v7q-1 5 -1 6q0 13 7 13q4 0 14 -6q3 -11 3 -26q0 -10 -2 -32q-2 -23 -2 -33
q0 -15 2 -44.5t2 -43.5q0 -40 -5 -119q-5 -81 -5 -121q0 -63 9 -115l8 -10q93 51 141 134q-16 19 -30 38q-17 25 -14 47q3 23 30 35q34 14 42 25q9 30 13 37q9 19 26 29q22 2 41 -15q1 0 30 -34q8 33 23 63q2 4 33 59q7 17 36 43q26 23 31 47h7q10 0 16 -14q7 -18 13 -21
q-1 -20 1 -104q2 -65 -7 -104q8 -128 8 -135q0 -39 -6 -76q-3 -76 21 -190q-4 17 -20 17q-8 0 -13 -9q-19 20 -24 62q-4 32 -8 67q18 84 18 180q0 88 -18 237q-10 -14 -27 -57q-15 -36 -31 -52l-8.5 -25.5t-8.5 -24.5q-10 -30 -22 -45l-4 8q-11 -16 -20 -16q-8 0 -26.5 24.5
t-33.5 24.5q-10 0 -22 -10q-11 -16 -11 -30q0 -18 30 -46t32 -50q-5 2 -10 2q-9 0 -28.5 -7.5t-27.5 -8.5q-42 -16 -51 -75q-15 -40 -59 -84q-57 -56 -70 -74q4 -19 -14 -19q-3 8 -19 25q-15 17 -15 26t12 19q-9 33 -9 99.5t-8 96.5zM502 72q2 1 7 7t8 6q2 0 4 -1l3 -34
q-2 2 -14 7q-9 2 -9 9q0 2 1 6zM422 125l21 26q-2 -2 -2 -4q0 -3 4.5 -10.5t4.5 -11.5q0 -6 -7 -10q-12 -3 -21 10zM327 435q37 -7 60 -43q11 5 11 15q0 2 -11 31l-36 22zM303 579q6 14 25 18q27 4 31 6v-7q-12 -2 -20 -12q-8 -11 -14 -20q-7 -1 -12.5 4.5t-9.5 10.5z
M264 327q8 -18 28 -28q15 -6 33 -14q0 14 -20.5 31t-20.5 35q4 3 3 12t1 12q-12 0 -21 -8.5t-9 -21.5q0 -9 6 -18zM295 11q2 1 4.5 5t4.5 4t4 -2q3 1 4 1q6 0 6 -8q-1 -14 0 -14q-10 -2 -17 2.5t-6 11.5zM141 87q18 9 34 29q7 8 26 38q-33 -21 -40 -28q-20 -18 -20 -39z
M10 211q0 4 4 7.5t9 2.5q6 1 8.5 -2.5t2.5 -12.5q0 -11 -8 -11q-5 0 -11 5t-5 11z" />
    <glyph glyph-name="Iishortcyrillic" unicode="&#x419;" horiz-adv-x="633" 
d="M587 545q-1 3 -1 8q0 18 14 18q3 0 7 -2q4 -5 4 -10q0 -6 -10.5 -14.5t-11.5 -14.5zM70 263q24 61 24 156q0 36 -4 90q-5 78 -5 87q-16 8 -16 14q0 3 13.5 13t13.5 19q0 3 -2 7q7 4 7 19v7q-1 5 -1 6q0 13 7 13q4 0 14 -6q3 -11 3 -26q0 -10 -2 -32q-2 -23 -2 -33
q0 -15 2 -44.5t2 -43.5q0 -40 -5 -119q-5 -81 -5 -121q0 -63 9 -115l8 -10q93 51 141 134q-16 19 -30 38q-17 25 -14 47q3 23 30 35q34 14 42 25q9 30 13 37q9 19 26 29q22 2 41 -15q1 0 30 -34q8 33 23 63q2 4 33 59q7 17 36 43q26 23 31 47h7q10 0 16 -14q7 -18 13 -21
q-1 -20 1 -104q2 -65 -7 -104q8 -128 8 -135q0 -39 -6 -76q-3 -76 21 -190q-4 17 -20 17q-8 0 -13 -9q-19 20 -24 62q-4 32 -8 67q18 84 18 180q0 88 -18 237q-10 -14 -27 -57q-15 -36 -31 -52l-8.5 -25.5t-8.5 -24.5q-10 -30 -22 -45l-4 8q-11 -16 -20 -16q-8 0 -26.5 24.5
t-33.5 24.5q-10 0 -22 -10q-11 -16 -11 -30q0 -18 30 -46t32 -50q-5 2 -10 2q-9 0 -28.5 -7.5t-27.5 -8.5q-42 -16 -51 -75q-15 -40 -59 -84q-57 -56 -70 -74q4 -19 -14 -19q-3 8 -19 25q-15 17 -15 26t12 19q-9 33 -9 99.5t-8 96.5zM502 72q2 1 7 7t8 6q2 0 4 -1l3 -34
q-2 2 -14 7q-9 2 -9 9q0 2 1 6zM422 125l21 26q-2 -2 -2 -4q0 -3 4.5 -10.5t4.5 -11.5q0 -6 -7 -10q-12 -3 -21 10zM328 435q36 -7 59 -43q11 5 11 15q0 2 -11 31l-36 22zM303 579q6 14 25 18q27 4 31 6v-7q-12 -2 -20 -12q-8 -11 -14 -20q-7 -1 -12.5 4.5t-9.5 10.5z
M264 327q8 -18 28 -28q15 -6 33 -14q0 14 -20.5 31t-20.5 35q4 3 3 12t1 12q-12 0 -21 -8.5t-9 -21.5q0 -9 6 -18zM295 11q2 1 4.5 5t4.5 4t4 -2q3 1 4 1q6 0 6 -8q-1 -14 0 -14q-10 -2 -17 2.5t-6 11.5zM141 87q18 9 34 29q7 8 26 38q-33 -21 -40 -28q-20 -18 -20 -39z
M10 211q0 4 4 7.5t9 2.5q4 0 6.5 -1t3.5 -4.5t1 -9.5q0 -11 -8 -11q-5 0 -11 5t-5 11zM371 701q-16 -1 -33 -1t-43 2t-42 10t-15 21q0 10 24.5 10t57 -4t43.5 -1q6 1 31 25.5t33 24.5q28 -2 37 -18q-46 -22 -70 -58q-5 -6 -8 -8q-5 -2 -15 -3z" />
    <glyph glyph-name="Iishortcyrillic" unicode="&#x439;" horiz-adv-x="633" 
d="M587 545q-1 3 -1 8q0 18 14 18q3 0 7 -2q4 -5 4 -10q0 -6 -10.5 -14.5t-11.5 -14.5zM70 263q24 61 24 156q0 36 -4 90q-5 78 -5 87q-16 8 -16 14q0 3 13.5 13t13.5 19q0 3 -2 7q7 4 7 19v7q-1 5 -1 6q0 13 7 13q4 0 14 -6q3 -11 3 -26q0 -10 -2 -32q-2 -23 -2 -33
q0 -15 2 -44.5t2 -43.5q0 -40 -5 -119q-5 -81 -5 -121q0 -63 9 -115l8 -10q93 51 141 134q-16 19 -30 38q-17 25 -14 47q3 23 30 35q34 14 42 25q9 30 13 37q9 19 26 29q22 2 41 -15q1 0 30 -34q8 33 23 63q2 4 33 59q7 17 36 43q26 23 31 47h7q10 0 16 -14q7 -18 13 -21
q-1 -20 1 -104q2 -65 -7 -104q8 -128 8 -135q0 -39 -6 -76q-3 -76 21 -190q-4 17 -20 17q-8 0 -13 -9q-19 20 -24 62q-4 32 -8 67q18 84 18 180q0 88 -18 237q-10 -14 -27 -57q-15 -36 -31 -52l-8.5 -25.5t-8.5 -24.5q-10 -30 -22 -45l-4 8q-11 -16 -20 -16q-8 0 -26.5 24.5
t-33.5 24.5q-10 0 -22 -10q-11 -16 -11 -30q0 -18 30 -46t32 -50q-5 2 -10 2q-9 0 -28.5 -7.5t-27.5 -8.5q-42 -16 -51 -75q-15 -40 -59 -84q-57 -56 -70 -74q4 -19 -14 -19q-3 8 -19 25q-15 17 -15 26t12 19q-9 33 -9 99.5t-8 96.5zM502 72q2 1 7 7t8 6q2 0 4 -1l3 -34
q-2 2 -14 7q-9 2 -9 9q0 2 1 6zM422 125l21 26q-2 -2 -2 -4q0 -3 4.5 -10.5t4.5 -11.5q0 -6 -7 -10q-12 -3 -21 10zM328 435q36 -7 59 -43q11 5 11 15q0 2 -11 31l-36 22zM303 579q6 14 25 18q27 4 31 6v-7q-12 -2 -20 -12q-8 -11 -14 -20q-7 -1 -12.5 4.5t-9.5 10.5z
M264 327q8 -18 28 -28q15 -6 33 -14q0 14 -20.5 31t-20.5 35q4 3 3 12t1 12q-12 0 -21 -8.5t-9 -21.5q0 -9 6 -18zM295 11q2 1 4.5 5t4.5 4t4 -2q3 1 4 1q6 0 6 -8q-1 -14 0 -14q-10 -2 -17 2.5t-6 11.5zM141 87q18 9 34 29q7 8 26 38q-33 -21 -40 -28q-20 -18 -20 -39z
M10 211q0 4 4 7.5t9 2.5q4 0 6.5 -1t3.5 -4.5t1 -9.5q0 -11 -8 -11q-5 0 -11 5t-5 11zM371 701q-16 -1 -33 -1t-43 2t-42 10t-15 21q0 10 24.5 10t57 -4t43.5 -1q6 1 31 25.5t33 24.5q28 -2 37 -18q-46 -22 -70 -58q-5 -6 -8 -8q-5 -2 -15 -3z" />
    <glyph glyph-name="Kacyrillic" unicode="&#x41a;" horiz-adv-x="478" 
d="M27 525q3 0 21 -7q-6 -9 -17 -9q-12 0 -17 11q6 5 13 5zM123 46q0 -26 -6 -49q-16 3 -16 25v12q1 9 1 12q0 10 -3 15q-5 -4 -5 -10v-10q-1 -3 -9 -3q-2 3 -8 8.5t-6 10.5v4q9 121 9 203q0 77 -7 141q-9 90 -9 101q0 13 1 24q-6 23 -6 50q0 10 12 114h11q10 -10 10 -15
q0 -2 -1 -4q13 -4 16 -14q0 -12 0.5 -22.5t7.5 -15.5q6 -186 6 -267q0 -82 -4 -140q-7 -21 -7 -47q0 -19 7 -60q6 -41 6 -63zM179 118q3 -6 2 -12q-2 -15 -18 -15q-11 0 -12 11q2 2 9 16q6 10 14 12q1 -1 5 -12zM463 79q0 -3 -2 -7q-4 3 -8 3q-11 0 -16 -14q-29 35 -134 132
q-87 83 -126 139q9 65 50 130q32 48 92 109l99 99l17 7q6 -6 14 -13q9 -8 10 -17q-83 -81 -124 -122q-73 -73 -113 -132l8 -54q14 -43 54 -82q40 -34 77 -66q48 -40 70 -80q2 -7 17 -15t15 -17zM204 352q-2 -28 22 -56q-1 16 -22 56zM243.5 632q6.5 -3 10.5 -3q1 -4 1 -7
q0 -11 -9 -11q-18 0 -20 16q2 8 8 8q3 0 9.5 -3zM420 369v-30q-6 -2 -11.5 2t-5.5 11q2 1 7 10q4 7 10 7z" />
    <glyph glyph-name="Kacyrillic" unicode="&#x43a;" horiz-adv-x="478" 
d="M27 525q3 0 21 -7q-6 -9 -17 -9q-12 0 -17 11q6 5 13 5zM123 46q0 -26 -6 -49q-16 3 -16 25v12q1 9 1 12q0 10 -3 15q-5 -4 -5 -10v-10q-1 -3 -9 -3q-2 3 -8 8.5t-6 10.5v4q9 121 9 203q0 77 -7 141q-9 90 -9 101q0 13 1 24q-6 23 -6 50q0 10 12 114h11q10 -10 10 -15
q0 -2 -1 -4q13 -4 16 -14q0 -12 0.5 -22.5t7.5 -15.5q6 -186 6 -267q0 -82 -4 -140q-7 -21 -7 -47q0 -19 7 -60q6 -41 6 -63zM179 118q3 -6 2 -12q-2 -15 -18 -15q-11 0 -12 11q2 2 9 16q6 10 14 12q1 -1 5 -12zM463 79q0 -3 -2 -7q-4 3 -8 3q-11 0 -16 -14q-29 35 -134 132
q-87 83 -126 139q9 65 50 130q32 48 92 109l99 99l17 7q6 -6 14 -13q9 -8 10 -17q-83 -81 -124 -122q-73 -73 -113 -132l8 -54q14 -43 54 -82q40 -34 77 -66q48 -40 70 -80q2 -7 17 -15t15 -17zM204 352q-2 -28 22 -56q-1 16 -22 56zM243.5 632q6.5 -3 10.5 -3q1 -4 1 -7
q0 -11 -9 -11q-18 0 -20 16q2 8 8 8q3 0 9.5 -3zM420 369v-30q-6 -2 -11.5 2t-5.5 11q2 1 7 10q4 7 10 7z" />
    <glyph glyph-name="Elcyrillic" unicode="&#x41b;" horiz-adv-x="698" 
d="M649 365q5 11 18 11q8 0 14 -4.5t3 -11.5l-11 -12q-18 4 -24 17zM659 629q-5 1 -5 6q0 11 10 14q7 0 13 -6.5t4 -11.5q-10 -10 -22 -2zM574 596q-6 2 -6 6.5t8 15.5q1 -2 9 -6q6 -3 6 -7q0 -3 -2 -7q-10 -10 -15 -2zM337 76q2 8 10 10q7 2 12 -2q3 -5 3 -10q0 -3 -1 -8
t-1 -8q0 -6 4 -11zM11 104q7 10 14 10q5 0 16.5 -10t18.5 -10q4 0 8 1q-3 -7 -21 -6.5t-23 -8.5q-14 9 -14 19q0 3 1 5zM26 547q0 17 14 17q3 0 6 -1l-5 -71v-2q-10 3 -10 14q0 3 1.5 11.5t1.5 12.5q0 12 -8 19zM322 494q-29 -65 -39 -85v-22q-2 -4 -4 -5t-5 0q-6 1 -7 1
q-27 -39 -46 -96q-3 -9 -31 -102q-20 -37 -26 -63q2 1 -3 -15t-12 -35.5t-11 -27.5q-1 -1 -1 -2l-1 -1q-17 -16 -20 -20q-8 -6 -18 4q0 5 5 11t5 11q0 2 -1 4q-13 10 -13 27q0 11 5 28q1 5 4 13.5t4 12.5q22 37 60 146q33 94 69 140q51 143 79 210h7l2 -39l28 39q-1 5 -9 27
q-7 15 -7 24q0 18 23 28q10 -3 12 -19q4 -21 8 -27q2 5 15 5q5 -11 16 -65q9 -44 28 -63q4 -53 53 -129q56 -85 66 -127q20 -29 34 -96q15 -72 31 -100l-2 -21q-4 -2 -7 -2q-13 0 -22 20q-12 27 -13 28q-5 -6 -5 -15q0 -8 5 -24.5t5 -21.5q0 -7 -7 -7q-6 0 -17 4
q-14 29 -44 116q-7 21 -23 59.5t-27.5 65t-10.5 27.5q-14 32 -28 96q-15 68 -25 97q-13 10 -19.5 36.5t-15.5 33.5q-21 -30 -44 -84zM190 291q-9 -33 -29 -81q-32 -76 -32 -78q-2 -3 -10 -20q-6 -11 -6 -20v-8q1 1 45 99q27 62 32 108zM212 345q-1 -6 -11 -21q-8 -14 -8 -21
q0 -4 2 -8q1 5 11 24q8 14 6 26zM480 378q3 -5 9 -31q5 -21 13 -26l6 7zM324 545q-20 -26 -20 -32q0 -3 2 -5q10 12 18 37z" />
    <glyph glyph-name="Elcyrillic" unicode="&#x43b;" horiz-adv-x="698" 
d="M649 365q5 11 18 11q8 0 14 -4.5t3 -11.5l-11 -12q-18 4 -24 17zM659 629q-5 1 -5 6q0 11 10 14q7 0 13 -6.5t4 -11.5q-10 -10 -22 -2zM574 596q-6 2 -6 6.5t8 15.5q1 -2 9 -6q6 -3 6 -7q0 -3 -2 -7q-10 -10 -15 -2zM337 76q2 8 10 10q7 2 12 -2q3 -5 3 -10q0 -3 -1 -8
t-1 -8q0 -6 4 -11zM11 104q7 10 14 10q5 0 16.5 -10t18.5 -10q4 0 8 1q-3 -7 -21 -6.5t-23 -8.5q-14 9 -14 19q0 3 1 5zM26 547q0 17 14 17q3 0 6 -1l-5 -71v-2q-10 3 -10 14q0 3 1.5 11.5t1.5 12.5q0 12 -8 19zM322 494q-29 -65 -39 -85v-22q-2 -4 -4 -5t-5 0q-6 1 -7 1
q-27 -39 -46 -96q-3 -9 -31 -102q-20 -37 -26 -63q2 1 -3 -15t-12 -35.5t-11 -27.5q-1 -1 -1 -2l-1 -1q-17 -16 -20 -20q-8 -6 -18 4q0 5 5 11t5 11q0 2 -1 4q-13 10 -13 27q0 11 5 28q1 5 4 13.5t4 12.5q22 37 60 146q33 94 69 140q51 143 79 210h7l2 -39l28 39q-1 5 -9 27
q-7 15 -7 24q0 18 23 28q10 -3 12 -19q4 -21 8 -27q2 5 15 5q5 -11 16 -65q9 -44 28 -63q4 -53 53 -129q56 -85 66 -127q20 -29 34 -96q15 -72 31 -100l-2 -21q-4 -2 -7 -2q-13 0 -22 20q-12 27 -13 28q-5 -6 -5 -15q0 -8 5 -24.5t5 -21.5q0 -7 -7 -7q-6 0 -17 4
q-14 29 -44 116q-7 21 -23 59.5t-27.5 65t-10.5 27.5q-14 32 -28 96q-15 68 -25 97q-13 10 -19.5 36.5t-15.5 33.5q-21 -30 -44 -84zM190 291q-9 -33 -29 -81q-32 -76 -32 -78q-2 -3 -10 -20q-6 -11 -6 -20v-8q1 1 45 99q27 62 32 108zM212 345q-1 -6 -11 -21q-8 -14 -8 -21
q0 -4 2 -8q1 5 11 24q8 14 6 26zM480 378q3 -5 9 -31q5 -21 13 -26l6 7zM324 545q-20 -26 -20 -32q0 -3 2 -5q10 12 18 37z" />
    <glyph glyph-name="Emcyrillic" unicode="&#x41c;" horiz-adv-x="537" 
d="M494 687q-3 -85 7 -168q-16 -82 -16 -206q0 -35 1 -107t1 -104l-10 -31q-3 -1 -5 -1q-6 0 -10 7q-2 1 -4.5 4.5t-2.5 4.5q-10 43 -12 120q-3 95 -6 121l6 35q-4 26 0 107q3 65 -15 105q-4 -40 -38 -75q-5 -6 -66 -58q-1 0 -23 -48q-13 -28 -34 -28q-14 24 -74 97
q-48 59 -63 106q-11 0 -16 10q-5 13 -10 16l-5 -5q11 -37 11 -78q0 -37 -11 -94q-14 -81 -16 -95q-3 -27 -3 -67q0 -14 1 -40v-39q0 -69 -13 -112q-2 -3 -4 -3q-3 0 -11 8q-17 172 -17 265q0 114 19 207q6 16 9 62q2 38 15 55q11 -16 52 -57q36 -35 45 -58q19 -18 43 -59
q30 -52 39 -64q21 14 34 44q10 27 19 55q48 41 51 44q27 28 28 60q5 15 17 15q10 0 21 -11q18 8 33 33q21 39 22 40zM74 425q0 13 -6 23q-8 -21 -6 -92q0 12 6 35t6 34zM191 423q9 -5 8 -12q0 -14 -18 -14q0 10 -10 17t-10 14q12 6 15 5q2 -3 15 -10zM203 203q12 0 15 -18
q-17 -5 -50 -13v11q24 20 35 20zM176 517q7 -12 23 -40q-3 21 -23 40zM231 674l14 -14l-16 -13q4 4 0 11q-5 8 -5 10q0 4 7 6zM314 711q5 -5 4 -9q0 -13 -11 -9q-6 -2 -8.5 1.5t-2.5 11.5q0 10 7 10q6 0 11 -5zM359 509q20 16 29 34l-40 -27q-25 -17 -26 -39q14 12 37 32z
M382 205q8 -6 6 -11q-3 0 -9 -4q-8 -5 -12 -5t-7 2v12q-2 4 2.5 8.5t10.5 4.5q1 -1 9 -7zM464 503l2 111l-16 -14z" />
    <glyph glyph-name="Emcyrillic" unicode="&#x43c;" horiz-adv-x="537" 
d="M494 687q-3 -85 7 -168q-16 -82 -16 -206q0 -35 1 -107t1 -104l-10 -31q-3 -1 -5 -1q-6 0 -10 7q-2 1 -4.5 4.5t-2.5 4.5q-10 43 -12 120q-3 95 -6 121l6 35q-4 26 0 107q3 65 -15 105q-4 -40 -38 -75q-5 -6 -66 -58q-1 0 -23 -48q-13 -28 -34 -28q-14 24 -74 97
q-48 59 -63 106q-11 0 -16 10q-5 13 -10 16l-5 -5q11 -37 11 -78q0 -37 -11 -94q-14 -81 -16 -95q-3 -27 -3 -67q0 -14 1 -40v-39q0 -69 -13 -112q-2 -3 -4 -3q-3 0 -11 8q-17 172 -17 265q0 114 19 207q6 16 9 62q2 38 15 55q11 -16 52 -57q36 -35 45 -58q19 -18 43 -59
q30 -52 39 -64q21 14 34 44q10 27 19 55q48 41 51 44q27 28 28 60q5 15 17 15q10 0 21 -11q18 8 33 33q21 39 22 40zM74 425q0 13 -6 23q-8 -21 -6 -92q0 12 6 35t6 34zM191 423q9 -5 8 -12q0 -14 -18 -14q0 10 -10 17t-10 14q12 6 15 5q2 -3 15 -10zM203 203q12 0 15 -18
q-17 -5 -50 -13v11q24 20 35 20zM176 517q7 -12 23 -40q-3 21 -23 40zM231 674l14 -14l-16 -13q4 4 0 11q-5 8 -5 10q0 4 7 6zM314 711q5 -5 4 -9q0 -13 -11 -9q-6 -2 -8.5 1.5t-2.5 11.5q0 10 7 10q6 0 11 -5zM359 509q20 16 29 34l-40 -27q-25 -17 -26 -39q14 12 37 32z
M382 205q8 -6 6 -11q-3 0 -9 -4q-8 -5 -12 -5t-7 2v12q-2 4 2.5 8.5t10.5 4.5q1 -1 9 -7zM464 503l2 111l-16 -14z" />
    <glyph glyph-name="Encyrillic" unicode="&#x41d;" horiz-adv-x="485" 
d="M36 525q5 0 12 -3q2 -12 -9 -21q-7 -5 -19 -13l-4 5l15 12l-9 9q4 11 14 11zM449 649.5q4 -4.5 8 -3.5q-1 -6 -21 -65q-13 -40 -13 -69q14 -81 14 -171q0 -49 -9 -132q-12 -96 -14 -132v-41q-1 -5 -2.5 -9.5t-3 -8t-4 -6t-5.5 -4.5t-6 -3q-11 1 -12 15t-10 16
q-5 30 -5 65q0 51 13 136q15 102 18 139q1 6 1 10q0 19 -25 19q-5 0 -16.5 -1t-16.5 -1q-16 0 -23 6q-13 -6 -17 -25q-2 -7 -4 -34q-11 -33 -57 -37q-29 9 -29 46q0 4 3 33q-55 11 -97 -2q-10 -50 -10 -111q0 -33 4 -98q4 -67 4 -101q-8 -38 -23 -38q-5 0 -10 3
q-15 123 -15 178q0 31 3.5 93t3.5 94q0 105 -14 196l22 97q29 2 29 -23q0 -5 -1.5 -16.5t-1.5 -16.5q0 -23 19 -29q-19 -31 -19 -76q0 -16 5 -59q4 -38 2 -60q14 -6 34 -6q12 0 36.5 3t36.5 3h13q10 -9 10 -22q0 -3 -8 -35q-5 -20 5 -30q28 10 35 43q1 10 4 29t4 29
q43 -12 68 -12q28 0 45 12q1 13 1 25q0 30 -7.5 90.5t-7.5 90.5q0 32 6 59q19 -7 22 -35q4 -36 9 -45q5 0 12 9t4 17q4 6 7 6q2 0 6 -4.5zM156 167q7 0 11 -14q-11 -18 -39 -12q20 26 28 26zM294 623q7 0 13 -8q-3 -16 -26 -18q-34 -3 -35 -3l1 2q10 -2 25 12.5t22 14.5z
" />
    <glyph glyph-name="Encyrillic" unicode="&#x43d;" horiz-adv-x="485" 
d="M36 525q5 0 12 -3q2 -12 -9 -21q-7 -5 -19 -13l-4 5l15 12l-9 9q4 11 14 11zM449 649.5q4 -4.5 8 -3.5q-1 -6 -21 -65q-13 -40 -13 -69q14 -81 14 -171q0 -49 -9 -132q-12 -96 -14 -132v-41q-1 -5 -2.5 -9.5t-3 -8t-4 -6t-5.5 -4.5t-6 -3q-11 1 -12 15t-10 16
q-5 30 -5 65q0 51 13 136q15 102 18 139q1 6 1 10q0 19 -25 19q-5 0 -16.5 -1t-16.5 -1q-16 0 -23 6q-13 -6 -17 -25q-2 -7 -4 -34q-11 -33 -57 -37q-29 9 -29 46q0 4 3 33q-55 11 -97 -2q-10 -50 -10 -111q0 -33 4 -98q4 -67 4 -101q-8 -38 -23 -38q-5 0 -10 3
q-15 123 -15 178q0 31 3.5 93t3.5 94q0 105 -14 196l22 97q29 2 29 -23q0 -5 -1.5 -16.5t-1.5 -16.5q0 -23 19 -29q-19 -31 -19 -76q0 -16 5 -59q4 -38 2 -60q14 -6 34 -6q12 0 36.5 3t36.5 3h13q10 -9 10 -22q0 -3 -8 -35q-5 -20 5 -30q28 10 35 43q1 10 4 29t4 29
q43 -12 68 -12q28 0 45 12q1 13 1 25q0 30 -7.5 90.5t-7.5 90.5q0 32 6 59q19 -7 22 -35q4 -36 9 -45q5 0 12 9t4 17q4 6 7 6q2 0 6 -4.5zM156 167q7 0 11 -14q-11 -18 -39 -12q20 26 28 26zM294 623q7 0 13 -8q-3 -16 -26 -18q-34 -3 -35 -3l1 2q10 -2 25 12.5t22 14.5z
" />
    <glyph glyph-name="Ocyrillic" unicode="&#x41e;" horiz-adv-x="580" 
d="M44 -10l12 -17q-7 -13 -16 -13q-5 0 -18 11t-21 11q-3 0 -6 -2v8q3 1 7 1q5 0 14 -2.5t13 -2.5q9 0 15 6zM32 674q1 -3 1 -6q0 -12 -23 -25q-3 2 -3 5q0 2 3 9t3 11q0 3 -1 6h20zM384 618q27 -55 81 -171q4 -27 4 -54q0 -98 -39 -184q-39 -89 -109 -138q-6 -11 -14 -25
q-7 -15 -17 -17q-15 18 -56 39.5t-56 40.5q-7 5 -29 26q-19 19 -31 25q-4 20 -37 87q-25 53 -25 89q0 27 14 55q5 88 62 180q28 45 113 150q34 0 71 -46q40 -50 68 -57zM117 237q20 -51 46 -72q-15 21 -31 44q-18 27 -20 51q-19 58 -15 141q-1 -7 -9.5 -30.5t-8.5 -39.5v-10
q11 -17 38 -84zM102 457l15 40l-15 -20v-20zM139 646q10 -3 2 -20q-2 0 -7.5 -3t-7.5 -3q-3 0 -6 6zM431 308q2 41 5 76q-29 175 -131 234q-6 4 -20 20q-10 13 -24 13q-13 -16 -40 -48t-41 -48q-47 -60 -59 -111q3 -105 8 -134q12 -74 54 -111l4 16l18 -18l-14 -15l36 -33
l60 -55q22 6 50 36q11 12 40 49q27 16 40 53q10 28 14 76zM186 594q54 63 61 72q1 20 -6 20q-40 -53 -61 -81q-39 -50 -53 -87q22 33 59 76zM187 139l31 -27l-35 32zM297.5 293.5q5.5 -4.5 4.5 -13.5q-1 -8 -12 -12h-6l1 28q7 2 12.5 -2.5zM375 416l-19 -20q-6 2 -5.5 12
t5.5 16q4 1 10 -2zM437 752q9 6 23 -5q2 -18 -19 -18q-2 3 -2 11.5t-2 11.5zM521 612q0 -4 -2 -9l-3 -15q-1 6 -9 14.5t-8 14.5q0 5 4 12q3 1 6 1q12 0 12 -18zM568 119q4 -6 5 -7q2 -4 2 -6q0 -7 -9 -10q-12 -5 -14 -7l5 35q2 2 3 2q3 0 8 -7z" />
    <glyph glyph-name="Ocyrillic" unicode="&#x43e;" horiz-adv-x="580" 
d="M44 -10l12 -17q-7 -13 -16 -13q-5 0 -18 11t-21 11q-3 0 -6 -2v8q3 1 7 1q5 0 14 -2.5t13 -2.5q9 0 15 6zM32 674q1 -3 1 -6q0 -12 -23 -25q-3 2 -3 5q0 2 3 9t3 11q0 3 -1 6h20zM384 618q27 -55 81 -171q4 -27 4 -54q0 -98 -39 -184q-39 -89 -109 -138q-6 -11 -14 -25
q-7 -15 -17 -17q-15 18 -56 39.5t-56 40.5q-7 5 -29 26q-19 19 -31 25q-4 20 -37 87q-25 53 -25 89q0 27 14 55q5 88 62 180q28 45 113 150q34 0 71 -46q40 -50 68 -57zM117 237q20 -51 46 -72q-15 21 -31 44q-18 27 -20 51q-19 58 -15 141q-1 -7 -9.5 -30.5t-8.5 -39.5v-10
q11 -17 38 -84zM102 457l15 40l-15 -20v-20zM139 646q10 -3 2 -20q-2 0 -7.5 -3t-7.5 -3q-3 0 -6 6zM431 308q2 41 5 76q-29 175 -131 234q-6 4 -20 20q-10 13 -24 13q-13 -16 -40 -48t-41 -48q-47 -60 -59 -111q3 -105 8 -134q12 -74 54 -111l4 16l18 -18l-14 -15l36 -33
l60 -55q22 6 50 36q11 12 40 49q27 16 40 53q10 28 14 76zM186 594q54 63 61 72q1 20 -6 20q-40 -53 -61 -81q-39 -50 -53 -87q22 33 59 76zM187 139l31 -27l-35 32zM297.5 293.5q5.5 -4.5 4.5 -13.5q-1 -8 -12 -12h-6l1 28q7 2 12.5 -2.5zM375 416l-19 -20q-6 2 -5.5 12
t5.5 16q4 1 10 -2zM437 752q9 6 23 -5q2 -18 -19 -18q-2 3 -2 11.5t-2 11.5zM521 612q0 -4 -2 -9l-3 -15q-1 6 -9 14.5t-8 14.5q0 5 4 12q3 1 6 1q12 0 12 -18zM568 119q4 -6 5 -7q2 -4 2 -6q0 -7 -9 -10q-12 -5 -14 -7l5 35q2 2 3 2q3 0 8 -7z" />
    <glyph glyph-name="Pecyrillic" unicode="&#x41f;" horiz-adv-x="529" 
d="M195 102q10 -3 9.5 -20t4.5 -21q-4 -1 -7 -1q-7 0 -10 18zM299 332q18 0 37 -28q-1 -5 -2 -16q0 -7 -6 -7q-2 0 -5 1q-3 4 -12 26q-6 15 -21 13v10q5 1 9 1zM511 390q5 -9 7 -10q0 -8 -5.5 -12.5t-13.5 -2.5v34q7 0 12 -9zM428.5 465q7.5 -21 6.5 -32q25 -143 25 -211
q0 -82 -25 -156q-3 -11 -21 -25.5t-29 -14.5q-9 0 -9 12q0 9 6 25l7 8q21 39 21 90q0 31 -13 98t-13 103q0 16 5 46.5t5 47.5q0 22 -6 67q-5 45 -5 67q0 30 6 57q-77 -9 -226 -22q-9 -5 -19.5 -5t-32.5 8q-1 0 -2.5 0.5t-2.5 0.5q11 -51 11 -101q0 -68 -25 -211
q1 -11 -6.5 -32t-7.5 -30q0 -13 9 -23q-4 -23 -4 -46q0 -27 9 -76q9 -51 10 -81q-7 -3 -11 -3q-6 0 -11 12t-13 12l-3 9.5t-7 23.5t-8 29t-6.5 28.5t-2.5 18.5q0 23 5 68q5 44 5 67q0 17 -4.5 47.5t-4.5 46.5q0 36 13 103q13 66 13 98q0 50 -21 90l-7 8q-6 16 -6 25
q0 11 9 11q11 0 29 -14t21 -25q2 -6 7 -25q28 5 34 12q16 -4 32 -4q23 0 62 10q43 12 65 14q7 4 16 4q11 0 33.5 -9t32.5 -9q19 0 29 23q4 -1 7 -1q8 0 13 12t11 12q4 0 11 -3q-1 -29 -10 -81q-9 -49 -9 -76q0 -23 4 -45q-9 -10 -9 -23q0 -9 7.5 -30zM431 251q2 10 2 23
q0 33 -10 54z" />
    <glyph glyph-name="Pecyrillic" unicode="&#x43f;" horiz-adv-x="529" 
d="M195 102q10 -3 9.5 -20t4.5 -21q-4 -1 -7 -1q-7 0 -10 18zM299 332q18 0 37 -28q-1 -5 -2 -16q0 -7 -6 -7q-2 0 -5 1q-3 4 -12 26q-6 15 -21 13v10q5 1 9 1zM511 390q5 -9 7 -10q0 -8 -5.5 -12.5t-13.5 -2.5v34q7 0 12 -9zM428.5 465q7.5 -21 6.5 -32q25 -143 25 -211
q0 -82 -25 -156q-3 -11 -21 -25.5t-29 -14.5q-9 0 -9 12q0 9 6 25l7 8q21 39 21 90q0 31 -13 98t-13 103q0 16 5 46.5t5 47.5q0 22 -6 67q-5 45 -5 67q0 30 6 57q-77 -9 -226 -22q-9 -5 -19.5 -5t-32.5 8q-1 0 -2.5 0.5t-2.5 0.5q11 -51 11 -101q0 -68 -25 -211
q1 -11 -6.5 -32t-7.5 -30q0 -13 9 -23q-4 -23 -4 -46q0 -27 9 -76q9 -51 10 -81q-7 -3 -11 -3q-6 0 -11 12t-13 12l-3 9.5t-7 23.5t-8 29t-6.5 28.5t-2.5 18.5q0 23 5 68q5 44 5 67q0 17 -4.5 47.5t-4.5 46.5q0 36 13 103q13 66 13 98q0 50 -21 90l-7 8q-6 16 -6 25
q0 11 9 11q11 0 29 -14t21 -25q2 -6 7 -25q28 5 34 12q16 -4 32 -4q23 0 62 10q43 12 65 14q7 4 16 4q11 0 33.5 -9t32.5 -9q19 0 29 23q4 -1 7 -1q8 0 13 12t11 12q4 0 11 -3q-1 -29 -10 -81q-9 -49 -9 -76q0 -23 4 -45q-9 -10 -9 -23q0 -9 7.5 -30zM431 251q2 10 2 23
q0 33 -10 54z" />
    <glyph glyph-name="Ercyrillic" unicode="&#x420;" horiz-adv-x="463" 
d="M4 493q21 5 24 4l-4 -20q-10 3 -20 16zM384 560q16 -14 22 -27q0 -85 -75 -154q-52 -48 -150 -93h-6q-8 0 -15 -7t-12 -14q-3 -82 -6 -112q-7 -64 -26 -106q-13 -1 -15 11q-2 13 -2 25q7 10 7 22q0 7 -5.5 24.5t-5.5 26.5q0 6 1 12q11 24 11 53q0 19 -6 55.5t-6 55.5
q0 18 4 34q-9 27 -9 58q0 23 7 69t7 69q0 25 -5 46q5 9 5 20q0 7 -3 22q-4 15 -4 23q0 13 8 23q8 -2 19 -13t19 -11q6 0 14 5q42 -5 101 -45q63 -43 99 -52q22 -16 27 -20zM338 516q0 15 -12 28q-33 1 -92.5 24t-92.5 25q0 -12 1 -81q0 -49 -1 -81q0 -44 -5 -81l16 -46
q43 24 88 64q3 2 79 76q-1 15 9 38.5t10 33.5zM152 618q78 -14 116 -32q-2 1 -55 39q-34 23 -63 28q-6 -5 -6 -13q0 -7 8 -22zM376 502q0 18 -10 31q3 -60 -45 -115q-55 -54 -82 -82q71 47 120 106q17 41 17 60zM283 194q10 0 14 -9q0 -13 -13 -13q-6 -2 -9 3q-2 3 -5 8
q2 11 13 11zM366 112l9 -13q-8 -12 -24 -12q-4 4 -4 8q0 12 15 12zM401 353q14 2 16 4l-8 -27q-3 -1 -5 -1q-4 0 -7.5 5.5t-6.5 6.5q0 9 11 12zM423 748q3 0 5 -3l-4 -34q-18 0 -18 18q0 6 3 14q2 0 6.5 2.5t7.5 2.5zM452 537v-18h-20q-2 13 20 18z" />
    <glyph glyph-name="Ercyrillic" unicode="&#x440;" horiz-adv-x="463" 
d="M4 493q21 5 24 4l-4 -20q-10 3 -20 16zM384 560q16 -14 22 -27q0 -85 -75 -154q-52 -48 -150 -93h-6q-8 0 -15 -7t-12 -14q-3 -82 -6 -112q-7 -64 -26 -106q-13 -1 -15 11q-2 13 -2 25q7 10 7 22q0 7 -5.5 24.5t-5.5 26.5q0 6 1 12q11 24 11 53q0 19 -6 55.5t-6 55.5
q0 18 4 34q-9 27 -9 58q0 23 7 69t7 69q0 25 -5 46q5 9 5 20q0 7 -3 22q-4 15 -4 23q0 13 8 23q8 -2 19 -13t19 -11q6 0 14 5q42 -5 101 -45q63 -43 99 -52q22 -16 27 -20zM338 516q0 15 -12 28q-33 1 -92.5 24t-92.5 25q0 -12 1 -81q0 -49 -1 -81q0 -44 -5 -81l16 -46
q43 24 88 64q3 2 79 76q-1 15 9 38.5t10 33.5zM152 618q78 -14 116 -32q-2 1 -55 39q-34 23 -63 28q-6 -5 -6 -13q0 -7 8 -22zM376 502q0 18 -10 31q3 -60 -45 -115q-55 -54 -82 -82q71 47 120 106q17 41 17 60zM283 194q10 0 14 -9q0 -13 -13 -13q-6 -2 -9 3q-2 3 -5 8
q2 11 13 11zM366 112l9 -13q-8 -12 -24 -12q-4 4 -4 8q0 12 15 12zM401 353q14 2 16 4l-8 -27q-3 -1 -5 -1q-4 0 -7.5 5.5t-6.5 6.5q0 9 11 12zM423 748q3 0 5 -3l-4 -34q-18 0 -18 18q0 6 3 14q2 0 6.5 2.5t7.5 2.5zM452 537v-18h-20q-2 13 20 18z" />
    <glyph glyph-name="Escyrillic" unicode="&#x421;" horiz-adv-x="527" 
d="M24 111q4 -8 5 -9q-2 -10 -10 -10q-5 0 -11 5q-3 3 -4.5 5.5t-2.5 4.5l14 11q4 0 9 -7zM54 732q13 -4 15 -10l-28 -6q-13 0 -17 15q5 0 9 7t7 7h3q-2 -9 11 -13zM441 683q4 -8 2 -18q-9 1 -15 1q-43 0 -82 -31q-21 -15 -65 -65q-38 -45 -65 -61q-6 -32 -29 -65
q-9 -12 -46 -54l90 -125q57 -76 116 -114q1 -1 47 -19q28 -12 32 -32q-3 -10 -16 -14l30 -24v-13q-7 -2 -14 -2q-27 0 -60 32q-35 34 -59 39q-83 37 -145 127q-52 75 -81 175q4 21 26 37q35 26 39 31q-2 5 -2 10q0 10 7 21l11 20q29 17 83 62.5t85 62.5q50 29 99 27
q8 0 12 -8zM189 282q22 -30 44 -45q-7 16 -42 55q-33 35 -36 56l-5 -17q12 -12 39 -49zM387 382q7 7 11 5q12 -23 -2 -32q-19 6 -19 16q1 1 10 11zM491 141q-1 -8 7 -8l-4 -7q-8 5 -8 17q0 7 5 11v-13zM520 581q3 2 5 2q-2 -1 -5 -2q-13 -7 -13 -18q0 -5 4 -10
q-4 -4 -6.5 -4t-7 5t-7.5 4q-2 5 -2 9q0 11 11 12q12 2 21 2z" />
    <glyph glyph-name="Escyrillic" unicode="&#x441;" horiz-adv-x="527" 
d="M24 111q4 -8 5 -9q-2 -10 -10 -10q-5 0 -11 5q-3 3 -4.5 5.5t-2.5 4.5l14 11q4 0 9 -7zM54 732q13 -4 15 -10l-28 -6q-13 0 -17 15q5 0 9 7t7 7h3q-2 -9 11 -13zM441 683q4 -8 2 -18q-9 1 -15 1q-43 0 -82 -31q-21 -15 -65 -65q-38 -45 -65 -61q-6 -32 -29 -65
q-9 -12 -46 -54l90 -125q57 -76 116 -114q1 -1 47 -19q28 -12 32 -32q-3 -10 -16 -14l30 -24v-13q-7 -2 -14 -2q-27 0 -60 32q-35 34 -59 39q-83 37 -145 127q-52 75 -81 175q4 21 26 37q35 26 39 31q-2 5 -2 10q0 10 7 21l11 20q29 17 83 62.5t85 62.5q50 29 99 27
q8 0 12 -8zM189 282q22 -30 44 -45q-7 16 -42 55q-33 35 -36 56l-5 -17q12 -12 39 -49zM387 382q7 7 11 5q12 -23 -2 -32q-19 6 -19 16q1 1 10 11zM491 141q-1 -8 7 -8l-4 -7q-8 5 -8 17q0 7 5 11v-13zM520 581q3 2 5 2q-2 -1 -5 -2q-13 -7 -13 -18q0 -5 4 -10
q-4 -4 -6.5 -4t-7 5t-7.5 4q-2 5 -2 9q0 11 11 12q12 2 21 2z" />
    <glyph glyph-name="Tecyrillic" unicode="&#x422;" horiz-adv-x="481" 
d="M4 548q0 6 16 4q8 -5 8 -10q0 -3 -5.5 -9.5t-6.5 -9.5q0 3 -6 12t-6 13zM400 707q52 0 76 -42q-4 -1 -9 -9.5t-10 -6.5l2 3q-35 25 -92 22q-18 -13 -43 -13q-8 0 -23 1q-15 2 -23 2q-18 0 -32 -6q4 -9 10 -34q5 -21 12 -31q-3 -29 -3 -62q0 -34 5 -103q5 -67 5 -102
q0 -60 -11 -110q2 -14 2 -31q0 -19 -6 -61t-6 -64q0 -21 4 -38q-16 2 -22 17q-4 9 -6 31t-6 32l-8 -16q-4 -4 -9 -4q-15 0 -18 15q26 193 26 362q0 103 -9 209q-16 4 -60 3q-38 -1 -59 7q-22 -9 -36 -9q-17 0 -28 12q13 26 42 26q10 0 33 -4t34.5 -4t21.5 3q8 -5 18 -5
q8 0 23 3q15 4 21 4q13 0 19 -9q16 -5 35 -5q21 0 65.5 8.5t64.5 8.5zM102 245q7 0 23 -6q2 -4 2 -6q0 -3 -7 -5q-10 -2 -11 -2q-8 -3 -13.5 2t-5.5 14q5 3 12 3zM455 418q3 0 9 -4v-24q-2 -14 -12 -16q1 4 -4.5 9t-6.5 5q5 3 7 18q1 12 7 12z" />
    <glyph glyph-name="Tecyrillic" unicode="&#x442;" horiz-adv-x="481" 
d="M4 548q0 6 16 4q8 -5 8 -10q0 -3 -5.5 -9.5t-6.5 -9.5q0 3 -6 12t-6 13zM400 707q52 0 76 -42q-4 -1 -9 -9.5t-10 -6.5l2 3q-35 25 -92 22q-18 -13 -43 -13q-8 0 -23 1q-15 2 -23 2q-18 0 -32 -6q4 -9 10 -34q5 -21 12 -31q-3 -29 -3 -62q0 -34 5 -103q5 -67 5 -102
q0 -60 -11 -110q2 -14 2 -31q0 -19 -6 -61t-6 -64q0 -21 4 -38q-16 2 -22 17q-4 9 -6 31t-6 32l-8 -16q-4 -4 -9 -4q-15 0 -18 15q26 193 26 362q0 103 -9 209q-16 4 -60 3q-38 -1 -59 7q-22 -9 -36 -9q-17 0 -28 12q13 26 42 26q10 0 33 -4t34.5 -4t21.5 3q8 -5 18 -5
q8 0 23 3q15 4 21 4q13 0 19 -9q16 -5 35 -5q21 0 65.5 8.5t64.5 8.5zM102 245q7 0 23 -6q2 -4 2 -6q0 -3 -7 -5q-10 -2 -11 -2q-8 -3 -13.5 2t-5.5 14q5 3 12 3zM455 418q3 0 9 -4v-24q-2 -14 -12 -16q1 4 -4.5 9t-6.5 5q5 3 7 18q1 12 7 12z" />
    <glyph glyph-name="Ucyrillic" unicode="&#x423;" horiz-adv-x="449" 
d="M35 305q0 -3 2 -7h-5q-8 14 -8 33q0 17 7 29q16 -6 16 -16q0 -4 -6 -17t-6 -22zM108 183l7 -19q-12 -19 -22 -19q-3 0 -6 1q6 4 7 22q2 15 14 15zM251 694q5 0 11 -7q0 -5 2 -15q1 -10 1 -14q0 -10 -9 -12v3q0 2 3.5 6t3.5 7t-3 6q-7 1 -13.5 -7t-9.5 -8t-7 6q3 3 10 20
q5 15 11 15zM395.5 139.5q1.5 -9.5 3.5 -9.5q-12 -20 -24 -28q-8 -5 -32 -11q12 8 24 27q18 26 20 30q7 1 8.5 -8.5zM401 515l14 -14q-9 -19 -34 -24q1 1 7 22q4 12 13 16zM399 287q6 13 16 13q12 -5 12 -14q0 -13 -20 -30q-2 4 -15 7q-9 2 -7 11q8 0 14 13zM319 622
q11 49 50 81l4 2t4 0t3.5 -1.5t3.5 -3t3 -3.5t2.5 -3.5t2.5 -2.5q7 -10 3 -28q0 -4 2 -17.5t0 -17.5q-1 -2 -3.5 -5.5t-4.5 -6t-4 -6.5t-2 -9q0 -18 -16 -28q-3 -76 -7 -98q-1 -11 -9 -24q-12 -19 -10 -33q1 -4 2 -5.5t1 -2.5q-3 -17 -6 -63t-13 -80q-2 -7 -7.5 -29
t-9.5 -35t-11 -31.5t-17 -32.5t-22 -24q-44 -37 -141 -92q-9 -5 -20 8q-6 6 -4 12.5t9 10.5q10 4 24 9q18 6 24 9l12 8h-2q-14 -2 -48.5 -13t-43.5 -14h-4t-2.5 2t-3.5 2q-2 2 -1 6t3 5q5 3 7 3q1 1 2.5 1.5t3.5 1t3 3t3 3.5q4 1 12 4q32 10 49 16.5t42 19t43.5 28.5
t32.5 37q0 1 2 2.5t3 3.5q4 11 5 16q0 2 2 7t2 9q1 3 7 6t6 8q4 27 5 77q1 9 -3 14.5t-13.5 9.5t-15 5.5t-19.5 3.5t-15 2q-58 10 -99.5 41.5t-54.5 83.5q-4 18 -13 45.5t-11.5 40t-2.5 35.5t6 51q-1 0 -5.5 -2.5t-7 -3t-5.5 1.5q-4 5 7 24q3 5 2.5 12.5t-3.5 10.5q-1 4 4 8
q2 4 8 3q5 -2 15 -20q2 -2 5 3l1 1q2 2 -1 10q-3 10 1 12q1 1 2.5 3.5t2.5 3t4 -1.5q12 -11 7 -31q-1 -4 -6 -20.5t-7 -26t1 -27.5t3 -21q1 -7 3.5 -15t7 -18t6.5 -15.5t4 -14t5 -16.5t11 -18q2 -2 16 -23t25.5 -35.5t23.5 -26.5q30 -26 117 -36q-9 18 -8 29.5t4.5 30.5
t1.5 31q3 4 6 9t4.5 11t2.5 10.5t2 11.5t1 11t0.5 12t0.5 11q4 67 8 88zM158 377q19 -12 43 -15q-6 1 -13 3.5t-13.5 7t-12.5 8.5t-12.5 10.5t-10.5 10t-10 9.5t-7 8q-17 17 -23.5 40.5t-14.5 33.5q-2 2 -3 -2l-2 -7q-4 -13 5 -34q4 -10 32 -36q33 -31 42 -37z" />
    <glyph glyph-name="Ucyrillic" unicode="&#x443;" horiz-adv-x="449" 
d="M35 305q0 -3 2 -7h-5q-8 14 -8 33q0 17 7 29q16 -6 16 -16q0 -4 -6 -17t-6 -22zM108 183l7 -19q-12 -19 -22 -19q-3 0 -6 1q6 4 7 22q2 15 14 15zM251 694q5 0 11 -7q0 -5 2 -15q1 -10 1 -14q0 -10 -9 -12v3q0 2 3.5 6t3.5 7t-3 6q-7 1 -13.5 -7t-9.5 -8t-7 6q3 3 10 20
q5 15 11 15zM395.5 139.5q1.5 -9.5 3.5 -9.5q-12 -20 -24 -28q-8 -5 -32 -11q12 8 24 27q18 26 20 30q7 1 8.5 -8.5zM401 515l14 -14q-9 -19 -34 -24q1 1 7 22q4 12 13 16zM399 287q6 13 16 13q12 -5 12 -14q0 -13 -20 -30q-2 4 -15 7q-9 2 -7 11q8 0 14 13zM319 622
q11 49 50 81l4 2t4 0t3.5 -1.5t3.5 -3t3 -3.5t2.5 -3.5t2.5 -2.5q7 -10 3 -28q0 -4 2 -17.5t0 -17.5q-1 -2 -3.5 -5.5t-4.5 -6t-4 -6.5t-2 -9q0 -18 -16 -28q-3 -76 -7 -98q-1 -11 -9 -24q-12 -19 -10 -33q1 -4 2 -5.5t1 -2.5q-3 -17 -6 -63t-13 -80q-2 -7 -7.5 -29
t-9.5 -35t-11 -31.5t-17 -32.5t-22 -24q-44 -37 -141 -92q-9 -5 -20 8q-6 6 -4 12.5t9 10.5q10 4 24 9q18 6 24 9l12 8h-2q-14 -2 -48.5 -13t-43.5 -14h-4t-2.5 2t-3.5 2q-2 2 -1 6t3 5q5 3 7 3q1 1 2.5 1.5t3.5 1t3 3t3 3.5q4 1 12 4q32 10 49 16.5t42 19t43.5 28.5
t32.5 37q0 1 2 2.5t3 3.5q4 11 5 16q0 2 2 7t2 9q1 3 7 6t6 8q4 27 5 77q1 9 -3 14.5t-13.5 9.5t-15 5.5t-19.5 3.5t-15 2q-58 10 -99.5 41.5t-54.5 83.5q-4 18 -13 45.5t-11.5 40t-2.5 35.5t6 51q-1 0 -5.5 -2.5t-7 -3t-5.5 1.5q-4 5 7 24q3 5 2.5 12.5t-3.5 10.5q-1 4 4 8
q2 4 8 3q5 -2 15 -20q2 -2 5 3l1 1q2 2 -1 10q-3 10 1 12q1 1 2.5 3.5t2.5 3t4 -1.5q12 -11 7 -31q-1 -4 -6 -20.5t-7 -26t1 -27.5t3 -21q1 -7 3.5 -15t7 -18t6.5 -15.5t4 -14t5 -16.5t11 -18q2 -2 16 -23t25.5 -35.5t23.5 -26.5q30 -26 117 -36q-9 18 -8 29.5t4.5 30.5
t1.5 31q3 4 6 9t4.5 11t2.5 10.5t2 11.5t1 11t0.5 12t0.5 11q4 67 8 88zM158 377q19 -12 43 -15q-6 1 -13 3.5t-13.5 7t-12.5 8.5t-12.5 10.5t-10.5 10t-10 9.5t-7 8q-17 17 -23.5 40.5t-14.5 33.5q-2 2 -3 -2l-2 -7q-4 -13 5 -34q4 -10 32 -36q33 -31 42 -37z" />
    <glyph glyph-name="Efcyrillic" unicode="&#x424;" horiz-adv-x="627" 
d="M401 100q-1 -12 1 -14q-22 -6 -27 -5q-2 8 6 16q6 5 12 11q9 -2 8 -8zM571 628q-10 7 -18 15q-13 11 -13 19q0 6 7 11q17 0 25 -23q10 -25 20 -30q-3 -3 -5.5 -3t-7 5t-8.5 6zM317 68q5 -2 5 -6q0 -2 -1 -5v-6l-17 2q-4 3 -4 6t8 12q4 -2 9 -3zM574 314.5
q10 -19.5 25 -18.5q-4 -6 -9.5 -6t-18.5 10.5t-20 10.5q-7 5 -7 12q0 6 5 8q15 3 25 -16.5zM555 522q0 -14 -8 -22q-20 -9 -34 -39q-19 -37 -29 -48q-13 -14 -40 -33q-11 -8 -47 -29t-67 -38l-31 -17l-24 -243q-19 -6 -17 -6q-6 9 -9 38q-3 26 -13 35q4 82 9 174
q-51 22 -77 24q-15 11 -39 29q-30 22 -45 37q-11 12 -32 53q-16 33 -38 44q-9 9 -9 24.5t9 30.5q20 50 67 79q19 11 91 39q58 23 86 49l13 5q4 4 6 4q4 0 10 -9t10 -9q6 0 13 12l18 -6q25 -24 77 -44q64 -25 82 -36q42 -25 60 -70q8 -14 8 -28zM197 636q-12 0 -14 -8
q3 -1 7 -5.5t10 -4.5q-4 2 -4 5.5t7 7.5t12 7q-2 -2 -18 -2zM45 491l37 79q-46 -52 -46 -79h9zM94.5 603q9.5 4 12.5 12q-27 -11 -30 -19q8 3 17.5 7zM247 348q9 182 15 301q-75 -48 -101 -72q-53 -48 -53 -103q0 -13 2 -27q32 -53 117 -87q14 -3 20 -12zM460 470q2 12 2 24
q0 49 -47 93q-24 21 -91 65l-40 -147q23 -78 23 -139q0 -13 -1 -26q1 3 15 14q11 9 11 18q0 6 -4 13q4 0 10.5 7t9.5 7q4 0 8 -7q76 30 104 78zM519 509h8q0 25 -41 72zM208 495q7 -2 10 -11t6 -16q-3 -5 -6.5 -5t-9.5 5.5t-8 5.5q-3 3 -3 7q0 3 5.5 7.5t5.5 6.5zM588 430
q0 23 24 20q-2 -7 -6 -39q-3 -23 -9 -35q0 7 -4.5 26t-4.5 28zM364 497.5q9 5.5 13 -2.5q-2 -7 -14 -9.5t-12 -9.5q-16 10 -21 24q6 10 15 10q6 0 6 -8q4 -10 13 -4.5z" />
    <glyph glyph-name="Efcyrillic" unicode="&#x444;" horiz-adv-x="627" 
d="M401 100q-1 -12 1 -14q-22 -6 -27 -5q-2 8 6 16q6 5 12 11q9 -2 8 -8zM571 628q-10 7 -18 15q-13 11 -13 19q0 6 7 11q17 0 25 -23q10 -25 20 -30q-3 -3 -5.5 -3t-7 5t-8.5 6zM317 68q5 -2 5 -6q0 -2 -1 -5v-6l-17 2q-4 3 -4 6t8 12q4 -2 9 -3zM574 314.5
q10 -19.5 25 -18.5q-4 -6 -9.5 -6t-18.5 10.5t-20 10.5q-7 5 -7 12q0 6 5 8q15 3 25 -16.5zM555 522q0 -14 -8 -22q-20 -9 -34 -39q-19 -37 -29 -48q-13 -14 -40 -33q-11 -8 -47 -29t-67 -38l-31 -17l-24 -243q-19 -6 -17 -6q-6 9 -9 38q-3 26 -13 35q4 82 9 174
q-51 22 -77 24q-15 11 -39 29q-30 22 -45 37q-11 12 -32 53q-16 33 -38 44q-9 9 -9 24.5t9 30.5q20 50 67 79q19 11 91 39q58 23 86 49l13 5q4 4 6 4q4 0 10 -9t10 -9q6 0 13 12l18 -6q25 -24 77 -44q64 -25 82 -36q42 -25 60 -70q8 -14 8 -28zM197 636q-12 0 -14 -8
q3 -1 7 -5.5t10 -4.5q-4 2 -4 5.5t7 7.5t12 7q-2 -2 -18 -2zM45 491l37 79q-46 -52 -46 -79h9zM94.5 603q9.5 4 12.5 12q-27 -11 -30 -19q8 3 17.5 7zM247 348q9 182 15 301q-75 -48 -101 -72q-53 -48 -53 -103q0 -13 2 -27q32 -53 117 -87q14 -3 20 -12zM460 470q2 12 2 24
q0 49 -47 93q-24 21 -91 65l-40 -147q23 -78 23 -139q0 -13 -1 -26q1 3 15 14q11 9 11 18q0 6 -4 13q4 0 10.5 7t9.5 7q4 0 8 -7q76 30 104 78zM519 509h8q0 25 -41 72zM208 495q7 -2 10 -11t6 -16q-3 -5 -6.5 -5t-9.5 5.5t-8 5.5q-3 3 -3 7q0 3 5.5 7.5t5.5 6.5zM588 430
q0 23 24 20q-2 -7 -6 -39q-3 -23 -9 -35q0 7 -4.5 26t-4.5 28zM364 497.5q9 5.5 13 -2.5q-2 -7 -14 -9.5t-12 -9.5q-16 10 -21 24q6 10 15 10q6 0 6 -8q4 -10 13 -4.5z" />
    <glyph glyph-name="Khacyrillic" unicode="&#x425;" horiz-adv-x="475" 
d="M443 57q7 -10 5 -23q-3 -2 -7 -2q-2 0 -6 1h-6q-10 0 -14 -13q-26 11 -41 48q-13 34 -25 65q-32 107 -80 228l-82 -90q-29 -39 -46 -105q-14 -49 -30 -111q-3 -1 -7 -1t-11 1q-7 2 -10 2q-8 0 -9 -13q-4 -4 -7 -4q-9 0 -12 19q29 81 86 246q7 13 50 58q31 35 37 68
q-46 36 -106 117q-64 87 -104 123q-2 -1 -4 -1q-3 0 -5 5q-2 9 -3 10q3 1 6 1q7 0 19.5 -12.5t19.5 -12.5q4 0 7 4q27 -18 69 -61l66 -66q6 5 6 7q0 3 -6 7.5t-6 9.5q1 2 10 2q5 -10 23 -50q13 -31 27 -49q24 36 47 73q28 41 63 55q18 -3 30 16q16 26 26 31q4 -7 20 -8
q13 -1 11 -15q-6 -8 -54 -52q-34 -33 -49 -58q-7 -17 -29 -53q-21 -33 -28 -54q67 -76 90 -169q18 -30 32 -75q9 -31 23 -79q5 -7 14 -20zM150 538q46 -56 84 -85q-18 43 -72 94q-84 79 -88 84q30 -37 76 -93zM86 384l11 -7q3 -7 -3 -15q-8 -11 -8 -12q-5 5 -5 11
q0 5 2.5 13t2.5 10zM101 477q0 -5 3 -9h-10q0 6 -2.5 20t-2.5 20q0 11 5 17q14 -4 14 -16q0 -5 -3.5 -16t-3.5 -16zM275 718l4 -14q-13 -10 -22 -16q-11 -8 -23 -5q4 3 17 21q9 14 24 14zM269 157l10 -8q0 -13 -2 -14q-9 -9 -13 -9q-3 0 -5 3q1 7 2 18q2 7 8 10zM278 459
q9 22 10 25q-25 -26 -23 -49q7 9 13 24zM367 161q11 -15 17 -20q-5 49 -39 111q-53 96 -57 103q8 -36 30 -89q26 -66 32 -88q8 -4 17 -17zM313 516q15 19 20 30q-26 -12 -40 -58q5 9 20 28zM442 426q12 0 14 -14q-3 -2 -7.5 -7t-8.5 -5h-4q-6 1 -14 3q-7 2 -5 11q9 12 25 12
z" />
    <glyph glyph-name="Khacyrillic" unicode="&#x445;" horiz-adv-x="475" 
d="M443 57q7 -10 5 -23q-3 -2 -7 -2q-2 0 -6 1h-6q-10 0 -14 -13q-26 11 -41 48q-13 34 -25 65q-32 107 -80 228l-82 -90q-29 -39 -46 -105q-14 -49 -30 -111q-3 -1 -7 -1t-11 1q-7 2 -10 2q-8 0 -9 -13q-4 -4 -7 -4q-9 0 -12 19q29 81 86 246q7 13 50 58q31 35 37 68
q-46 36 -106 117q-64 87 -104 123q-2 -1 -4 -1q-3 0 -5 5q-2 9 -3 10q3 1 6 1q7 0 19.5 -12.5t19.5 -12.5q4 0 7 4q27 -18 69 -61l66 -66q6 5 6 7q0 3 -6 7.5t-6 9.5q1 2 10 2q5 -10 23 -50q13 -31 27 -49q24 36 47 73q28 41 63 55q18 -3 30 16q16 26 26 31q4 -7 20 -8
q13 -1 11 -15q-6 -8 -54 -52q-34 -33 -49 -58q-7 -17 -29 -53q-21 -33 -28 -54q67 -76 90 -169q18 -30 32 -75q9 -31 23 -79q5 -7 14 -20zM150 538q46 -56 84 -85q-18 43 -72 94q-84 79 -88 84q30 -37 76 -93zM86 384l11 -7q3 -7 -3 -15q-8 -11 -8 -12q-5 5 -5 11
q0 5 2.5 13t2.5 10zM101 477q0 -5 3 -9h-10q0 6 -2.5 20t-2.5 20q0 11 5 17q14 -4 14 -16q0 -5 -3.5 -16t-3.5 -16zM275 718l4 -14q-13 -10 -22 -16q-11 -8 -23 -5q4 3 17 21q9 14 24 14zM269 157l10 -8q0 -13 -2 -14q-9 -9 -13 -9q-3 0 -5 3q1 7 2 18q2 7 8 10zM278 459
q9 22 10 25q-25 -26 -23 -49q7 9 13 24zM367 161q11 -15 17 -20q-5 49 -39 111q-53 96 -57 103q8 -36 30 -89q26 -66 32 -88q8 -4 17 -17zM313 516q15 19 20 30q-26 -12 -40 -58q5 9 20 28zM442 426q12 0 14 -14q-3 -2 -7.5 -7t-8.5 -5h-4q-6 1 -14 3q-7 2 -5 11q9 12 25 12
z" />
    <glyph glyph-name="Tsecyrillic" unicode="&#x426;" horiz-adv-x="570" 
d="M44 388q7 0 10 -15q-10 -17 -38 -12q20 27 28 27zM254 304q-3 -17 -26 -19q-34 -2 -35 -2l1 2q10 -3 25 11.5t22 14.5t13 -7zM39 657q4 12 14 12q5 0 12 -4q2 -12 -9 -21q-9 -6 -19 -12l-4 4l14 12zM376 276q-12 -1 -12 11q0 3 1 12q2 7 1 9q3 2 6 16q2 11 14 9
q11 -8 11 -16q0 -7 -10.5 -20.5t-10.5 -20.5zM271 578l-16 -7q-5 24 12 37l14 -15q0 -10 -10 -15zM31 93q0 11 5 17l13 -42q-3 -7 -15 -7q-6 0 -12 1q8 7 9 31zM566 67q2 -6 2.5 -21t-0.5 -21q-10 -29 -54 8q-2 2 -8 3t-15.5 0.5t-18 -1t-21.5 -1.5t-20 -2q-5 -17 -19 -21
q-11 1 -12 15q0 1 -2 6q-14 3 -8 12q-5 30 -5 63q0 2 0.5 4t0.5 5v4h-10q-12 -1 -17 -1q-16 0 -22 6q-14 -7 -18 -25q-2 -8 -3 -34q-12 -33 -58 -38q-29 10 -29 47q0 4 3 33q-40 8 -74 2q1 -15 0 -24q-7 -38 -22 -38q-5 0 -10 3q-16 123 -16 178q0 31 3.5 93t3.5 93
q0 106 -13 197l22 96q28 3 28 -22q0 -5 -1.5 -16.5t-1.5 -16.5q0 -23 20 -29q-20 -31 -20 -76q0 -16 5 -59q2 -15 -1.5 -102.5t-3.5 -101.5q0 -32 4 -98q2 -29 3 -53l9 -1q12 0 37 3t36 3h13q0 -1 0.5 -1.5l0.5 -0.5q1 0 1 1l5 -3q8 -6 8 -18q0 -5 -4 -9l-1 0.5t-2 0.5
q-2 -11 -6 -27q-5 -20 6 -30q28 10 34 43l8 57q43 -11 68 -11q6 0 16 1q3 44 11 101q15 102 18 139q1 6 1 10v76q0 30 -7.5 90.5t-7.5 90.5q0 32 6 59q19 -7 22 -35q4 -37 9 -45q5 0 12 9t4 17q4 6 7 6q2 0 6.5 -4.5t7.5 -3.5q-1 -6 -21 -65q-13 -40 -12 -69q14 -80 14 -171
q0 -50 -10 -133q-12 -95 -14 -131v-19q3 1 7.5 2t8 1.5t5.5 0.5q38 10 77 14q30 3 35 -15z" />
    <glyph glyph-name="Tsecyrillic" unicode="&#x446;" horiz-adv-x="570" 
d="M44 388q7 0 10 -15q-10 -17 -38 -12q20 27 28 27zM254 304q-3 -17 -26 -19q-34 -2 -35 -2l1 2q10 -3 25 11.5t22 14.5t13 -7zM39 657q4 12 14 12q5 0 12 -4q2 -12 -9 -21q-9 -6 -19 -12l-4 4l14 12zM376 276q-12 -1 -12 11q0 3 1 12q2 7 1 9q3 2 6 16q2 11 14 9
q11 -8 11 -16q0 -7 -10.5 -20.5t-10.5 -20.5zM271 578l-16 -7q-5 24 12 37l14 -15q0 -10 -10 -15zM31 93q0 11 5 17l13 -42q-3 -7 -15 -7q-6 0 -12 1q8 7 9 31zM566 67q2 -6 2.5 -21t-0.5 -21q-10 -29 -54 8q-2 2 -8 3t-15.5 0.5t-18 -1t-21.5 -1.5t-20 -2q-5 -17 -19 -21
q-11 1 -12 15q0 1 -2 6q-14 3 -8 12q-5 30 -5 63q0 2 0.5 4t0.5 5v4h-10q-12 -1 -17 -1q-16 0 -22 6q-14 -7 -18 -25q-2 -8 -3 -34q-12 -33 -58 -38q-29 10 -29 47q0 4 3 33q-40 8 -74 2q1 -15 0 -24q-7 -38 -22 -38q-5 0 -10 3q-16 123 -16 178q0 31 3.5 93t3.5 93
q0 106 -13 197l22 96q28 3 28 -22q0 -5 -1.5 -16.5t-1.5 -16.5q0 -23 20 -29q-20 -31 -20 -76q0 -16 5 -59q2 -15 -1.5 -102.5t-3.5 -101.5q0 -32 4 -98q2 -29 3 -53l9 -1q12 0 37 3t36 3h13q0 -1 0.5 -1.5l0.5 -0.5q1 0 1 1l5 -3q8 -6 8 -18q0 -5 -4 -9l-1 0.5t-2 0.5
q-2 -11 -6 -27q-5 -20 6 -30q28 10 34 43l8 57q43 -11 68 -11q6 0 16 1q3 44 11 101q15 102 18 139q1 6 1 10v76q0 30 -7.5 90.5t-7.5 90.5q0 32 6 59q19 -7 22 -35q4 -37 9 -45q5 0 12 9t4 17q4 6 7 6q2 0 6.5 -4.5t7.5 -3.5q-1 -6 -21 -65q-13 -40 -12 -69q14 -80 14 -171
q0 -50 -10 -133q-12 -95 -14 -131v-19q3 1 7.5 2t8 1.5t5.5 0.5q38 10 77 14q30 3 35 -15z" />
    <glyph glyph-name="Checyrillic" unicode="&#x427;" horiz-adv-x="445" 
d="M32 305q0 -3 2 -7h-5q-8 14 -8 33q0 17 7 29q16 -6 16 -16q0 -4 -6 -17t-6 -22zM105 183l7 -19q-12 -19 -22 -19q-3 0 -6 1q6 4 7 22q2 15 14 15zM248 694q5 0 11 -7q0 -5 2 -15q1 -10 1 -14q0 -10 -9 -12v3q0 2 3.5 6t3.5 7t-3 6q-7 1 -13.5 -7t-9.5 -8t-7 6q3 3 10 20
q5 15 11 15zM392.5 139.5q1.5 -9.5 3.5 -9.5q-12 -20 -24 -28q-8 -5 -32 -11q12 8 24 27q18 26 20 30q7 1 8.5 -8.5zM398 515l14 -14q-9 -19 -34 -24q1 1 7 22q4 12 13 16zM396 287q6 13 16 13q12 -5 12 -14q0 -13 -20 -30q-2 4 -15 7q-9 2 -7 11q8 0 14 13zM312 621
q5 19 13 33.5t17 24.5t23 23q3 2 5.5 3t4 0.5t3.5 -2.5l3.5 -3.5t3.5 -4.5t3 -4q6 -8 2 -27q0 -4 1.5 -16.5t-1.5 -16.5q-1 -2 -7.5 -11t-7.5 -15q-3 -17 -18 -28q-1 -11 -3.5 -45t-4.5 -51q-1 -11 -9 -24q-10 -19 -8 -33q0 -4 1.5 -6t1.5 -3q-5 -85 -14 -127
q-5 -9 -1 -62.5t4 -65.5q-1 -13 1.5 -39t2 -47.5t-7.5 -40.5q-3 -10 -18 -6q-7 1 -10 7t0 13q6 14 12 23q5 7 5 19t-0.5 12t-1.5 -2q-15 -41 -43 -75q-2 -2 -11 -4q-3 0 -4.5 3t-0.5 6q1 4 3 7q1 1 2 3t2 3.5t0.5 4t0.5 3.5q12 20 18 42t6.5 36t0 43.5t0.5 41.5q0 1 0.5 3
t0.5 4q0 8 -2 13v4t-0.5 4t-1 5t4.5 6t4 8q-2 10 -1.5 27.5t-1.5 31.5q0 4 -2 7t-5 5.5t-6 4t-8.5 3t-8.5 2t-9.5 1t-9.5 0.5t-10 0.5t-9 0.5q-55 2 -95 35t-57 86q-18 57 -22.5 91t2.5 90q-1 0 -5.5 -2.5t-6.5 -3t-6 2.5q-3 5 8 24q7 12 0 23q-1 2 -1 3t2 2t3 2q3 5 8 3
t15 -18q1 -3 6 3q1 2 -1 10q-2 10 1 12q1 0 2.5 3t2.5 3t4 -3q11 -12 6 -30q-1 -4 -7 -20.5t-7 -26.5q-2 -8 2 -50q2 -14 16 -51q3 -6 5 -15.5t5.5 -17.5t10.5 -19l13 -19.5t16 -23.5t17 -22.5t20 -20.5q34 -26 117 -27q-5 11 -7 23t-1 22t1.5 24t0.5 23q12 22 16 78
q5 62 12 85zM152 365q19 -12 42 -12q-30 0 -77 53q-12 12 -18 26t-10.5 28t-12.5 25q-3 4 -4 -8v-3q-2 -21 5 -35q9 -16 33 -38q4 -3 10 -9t10.5 -10t10.5 -9t11 -8z" />
    </font>
</defs>
</svg>
